<svg width="20" height="20" viewBox="0 0 20 20" fill="none" xmlns="http://www.w3.org/2000/svg">
  <mask id="path-1-inside-1" fill="white">
    <path d="M10 20C15.5228 20 20 15.5228 20 10C20 4.47715 15.5228 0 10 0C4.47715 0 0 4.47715 0 10C0 15.5228 4.47715 20 10 20Z" />
    <path d="M11 14C11 14.5523 10.5523 15 10 15C9.44772 15 9 14.5523 9 14C9 13.4477 9.44772 13 10 13C10.5523 13 11 13.4477 11 14Z" />
  </mask>
  <path d="M10.5 6C10.5 5.72386 10.2761 5.5 10 5.5C9.72386 5.5 9.5 5.72386 9.5 6H10.5ZM9.5 10C9.5 10.2761 9.72386 10.5 10 10.5C10.2761 10.5 10.5 10.2761 10.5 10H9.5ZM9.5 6V10H10.5V6H9.5ZM19 10C19 14.9706 14.9706 19 10 19V21C16.0751 21 21 16.0751 21 10H19ZM10 19C5.02944 19 1 14.9706 1 10H-1C-1 16.0751 3.92487 21 10 21V19ZM1 10C1 5.02944 5.02944 1 10 1V-1C3.92487 -1 -1 3.92487 -1 10H1ZM10 1C14.9706 1 19 5.02944 19 10H21C21 3.92487 16.0751 -1 10 -1V1ZM10 14V16C11.1046 16 12 15.1046 12 14H10ZM10 14H8C8 15.1046 8.89543 16 10 16V14ZM10 14V12C8.89543 12 8 12.8954 8 14H10ZM10 14H12C12 12.8954 11.1046 12 10 12V14Z" fill="#1A1A1A" mask="url(#path-1-inside-1)" />
</svg>
