<svg width="13" height="14" viewBox="0 0 13 14" fill="none" xmlns="http://www.w3.org/2000/svg">
<path d="M12.3933 6.80643L7.14184 12.0579C6.4985 12.7012 5.62594 13.0626 4.71612 13.0626C3.8063 13.0626 2.93375 12.7012 2.29041 12.0579C1.64707 11.4145 1.28564 10.542 1.28564 9.63214C1.28564 8.72232 1.64707 7.84977 2.29041 7.20643L7.54184 1.955C7.97073 1.52611 8.55243 1.28516 9.15898 1.28516C9.76553 1.28516 10.3472 1.52611 10.7761 1.955C11.205 2.38389 11.446 2.9656 11.446 3.57214C11.446 4.17869 11.205 4.76039 10.7761 5.18928L5.51898 10.4407C5.30453 10.6552 5.01368 10.7756 4.71041 10.7756C4.40714 10.7756 4.11628 10.6552 3.90184 10.4407C3.68739 10.2263 3.56692 9.93542 3.56692 9.63214C3.56692 9.32887 3.68739 9.03802 3.90184 8.82357L8.75326 3.97786" stroke="#4286D6" stroke-linecap="round" stroke-linejoin="round"/>
</svg>
