<svg width="12" height="12" viewBox="0 0 12 12" fill="none" xmlns="http://www.w3.org/2000/svg">
  <mask id="path-1-inside-1" fill="white">
    <path d="M5.99993 11.7142C9.15584 11.7142 11.7142 9.15584 11.7142 5.99993C11.7142 2.84402 9.15584 0.285645 5.99993 0.285645C2.84402 0.285645 0.285645 2.84402 0.285645 5.99993C0.285645 9.15584 2.84402 11.7142 5.99993 11.7142Z" />
    <path d="M6.57136 8.28564C6.57136 8.60124 6.31552 8.85707 5.99993 8.85707C5.68434 8.85707 5.4285 8.60124 5.4285 8.28564C5.4285 7.97005 5.68434 7.71422 5.99993 7.71422C6.31552 7.71422 6.57136 7.97005 6.57136 8.28564Z" />
  </mask>
  <path d="M5.99993 11.7142C9.15584 11.7142 11.7142 9.15584 11.7142 5.99993C11.7142 2.84402 9.15584 0.285645 5.99993 0.285645C2.84402 0.285645 0.285645 2.84402 0.285645 5.99993C0.285645 9.15584 2.84402 11.7142 5.99993 11.7142Z" fill="#F4A4A4" />
  <path d="M6.57136 8.28564C6.57136 8.60124 6.31552 8.85707 5.99993 8.85707C5.68434 8.85707 5.4285 8.60124 5.4285 8.28564C5.4285 7.97005 5.68434 7.71422 5.99993 7.71422C6.31552 7.71422 6.57136 7.97005 6.57136 8.28564Z" fill="#F4A4A4" />
  <path d="M6.34993 3.71422C6.34993 3.52092 6.19323 3.36422 5.99993 3.36422C5.80663 3.36422 5.64993 3.52092 5.64993 3.71422H6.34993ZM5.64993 5.99993C5.64993 6.19323 5.80663 6.34993 5.99993 6.34993C6.19323 6.34993 6.34993 6.19323 6.34993 5.99993H5.64993ZM5.64993 3.71422V5.99993H6.34993V3.71422H5.64993ZM11.0142 5.99993C11.0142 8.76924 8.76924 11.0142 5.99993 11.0142V12.4142C9.54244 12.4142 12.4142 9.54244 12.4142 5.99993H11.0142ZM5.99993 11.0142C3.23062 11.0142 0.985645 8.76924 0.985645 5.99993H-0.414355C-0.414355 9.54244 2.45742 12.4142 5.99993 12.4142V11.0142ZM0.985645 5.99993C0.985645 3.23062 3.23062 0.985645 5.99993 0.985645V-0.414355C2.45742 -0.414355 -0.414355 2.45742 -0.414355 5.99993H0.985645ZM5.99993 0.985645C8.76924 0.985645 11.0142 3.23062 11.0142 5.99993H12.4142C12.4142 2.45742 9.54244 -0.414355 5.99993 -0.414355V0.985645ZM5.87136 8.28564C5.87136 8.21464 5.92892 8.15707 5.99993 8.15707V9.55707C6.70212 9.55707 7.27136 8.98784 7.27136 8.28564H5.87136ZM5.99993 8.15707C6.07094 8.15707 6.1285 8.21464 6.1285 8.28564H4.7285C4.7285 8.98784 5.29774 9.55707 5.99993 9.55707V8.15707ZM6.1285 8.28564C6.1285 8.35665 6.07094 8.41422 5.99993 8.41422V7.01422C5.29774 7.01422 4.7285 7.58345 4.7285 8.28564H6.1285ZM5.99993 8.41422C5.92892 8.41422 5.87136 8.35665 5.87136 8.28564H7.27136C7.27136 7.58345 6.70212 7.01422 5.99993 7.01422V8.41422Z" fill="#E31A1A" mask="url(#path-1-inside-1)" />
</svg>
