<svg width="26" height="12" viewBox="0 0 26 12" fill="none" xmlns="http://www.w3.org/2000/svg">
<path d="M12.4742 5.38861L14.2544 3.16593C14.1836 3.07289 12.454 0.726158 9.51051 0.726158C8.05395 0.726158 6.72889 1.34644 5.79831 2.48362C4.98911 3.46574 4.53394 4.76833 4.53394 6.05024C4.53394 7.3425 5.01945 8.66576 5.86911 9.66855C6.86038 10.8368 8.21579 11.488 9.69258 11.488C11.6549 11.488 13.071 10.5059 13.8397 9.6272L13.8498 9.61686C14.6793 8.61407 15.8627 7.14607 17.117 5.57469C17.117 5.56436 17.1372 5.54368 17.1372 5.54368L17.3294 5.3059C17.5721 4.99576 17.825 4.68562 18.0678 4.37548C18.0981 4.34447 18.1184 4.29278 18.1588 4.26176C19.1299 3.04188 20.0807 1.84267 20.8899 0.829539C20.5459 0.757172 20.1818 0.71582 19.8177 0.71582C18.4521 0.71582 17.208 1.27407 16.2875 2.17348C16.2875 2.17348 16.2875 2.17348 16.2774 2.18382C16.0852 2.3699 15.9133 2.56633 15.7514 2.78343C13.7487 5.08881 13.425 6.05024 11.9887 7.52858C11.9179 7.60095 11.8471 7.66298 11.7763 7.73534C11.6953 7.80771 11.6245 7.89041 11.5335 7.97312C11.1694 8.29359 10.5625 8.64509 9.70269 8.64509C8.16521 8.64509 7.32567 7.13574 7.32567 6.05024C7.32567 5.01644 8.00337 3.56912 9.52062 3.56912C11.048 3.56912 11.9988 4.80968 12.0392 4.86137L12.0291 4.85103L12.4742 5.38861Z" fill="#E43B46"/>
<path d="M2.53601 4.13062C3.44393 3.9115 4.00615 2.98164 3.79176 2.0537C3.57738 1.12576 2.66757 0.551141 1.75965 0.770254C0.851735 0.989366 0.289516 1.91924 0.503901 2.84717C0.718286 3.77511 1.62809 4.34973 2.53601 4.13062Z" fill="#173D6A"/>
<path d="M3.56217 4.44922C3.16769 4.74902 2.67206 4.92477 2.14608 4.92477C1.6201 4.92477 1.12446 4.74902 0.72998 4.44922V11.0656H3.56217V4.44922Z" fill="#173D6A"/>
<path d="M21.6895 1.14111L19.7373 3.57055C19.7575 3.57055 19.7777 3.56021 19.8081 3.56021C21.1534 3.56021 22.2559 4.76976 22.2559 6.14472C22.2559 7.51968 21.1534 8.64652 19.8081 8.64652C18.5842 8.64652 17.5626 7.70576 17.4007 6.48587L15.3979 8.97734C16.3184 10.4764 17.9469 11.4791 19.8081 11.4791C22.701 11.4791 25.0375 9.08072 25.0375 6.13438C25.0375 3.89103 23.6417 1.94748 21.6895 1.14111Z" fill="#E43B46"/>
</svg>
