<svg width="26" height="24" viewBox="0 0 26 24" fill="none" xmlns="http://www.w3.org/2000/svg">
<path d="M24.1991 4.03712L22.1502 3.36338V0.92686C22.1507 0.788979 22.1203 0.652746 22.0612 0.52817C22.0021 0.403594 21.9158 0.293842 21.8087 0.206978C21.7004 0.118886 21.5736 0.0565065 21.4377 0.024534C21.3018 -0.00743847 21.1605 -0.0081707 21.0242 0.0223926L8.10329 2.90192C7.98355 2.92608 7.8698 2.97376 7.76862 3.04221C7.66745 3.11066 7.58088 3.19851 7.51391 3.30068C7.44695 3.40284 7.40093 3.51728 7.37853 3.63736C7.35613 3.75743 7.35778 3.88077 7.38341 4.0002C7.40958 4.11924 7.45907 4.23192 7.52903 4.33173C7.59898 4.43154 7.68802 4.5165 7.79099 4.58171C7.89396 4.64693 8.00882 4.6911 8.12896 4.71168C8.24909 4.73226 8.37211 4.72885 8.49092 4.70163L20.3044 2.08052V14.4108L5.53755 11.2544V4.61856C5.53755 4.37379 5.44032 4.13904 5.26724 3.96596C5.09415 3.79287 4.8594 3.69564 4.61463 3.69564H2.76878C2.03445 3.69564 1.3302 3.98735 0.810956 4.50659C0.29171 5.02584 0 5.73009 0 6.46441V10.1561C0 10.8904 0.29171 11.5947 0.810956 12.1139C1.3302 12.6332 2.03445 12.9249 2.76878 12.9249H4.51311L6.60815 13.3679C6.51801 13.5123 6.46711 13.6777 6.46048 13.8478V20.7698C6.46048 21.6265 6.80081 22.4481 7.4066 23.0539C8.01238 23.6597 8.83401 24 9.69072 24C10.5474 24 11.3691 23.6597 11.9748 23.0539C12.5806 22.4481 12.921 21.6265 12.921 20.7698V16.6166C12.921 16.3718 12.8237 16.1371 12.6506 15.964C12.4776 15.7909 12.2428 15.6937 11.998 15.6937C11.7533 15.6937 11.5185 15.7909 11.3454 15.964C11.1723 16.1371 11.0751 16.3718 11.0751 16.6166V20.7698C11.0751 21.1369 10.9293 21.489 10.6696 21.7487C10.41 22.0083 10.0579 22.1541 9.69072 22.1541C9.32356 22.1541 8.97143 22.0083 8.71181 21.7487C8.45219 21.489 8.30633 21.1369 8.30633 20.7698V13.8478C8.31061 13.8079 8.31061 13.7677 8.30633 13.7278L21.0612 16.4505C21.1255 16.4594 21.1907 16.4594 21.255 16.4505C21.4675 16.4488 21.6728 16.3738 21.8364 16.2382C21.9423 16.1523 22.0278 16.044 22.0869 15.9212C22.1459 15.7983 22.177 15.6639 22.1779 15.5275V13.2571L24.2268 12.5834C24.6995 12.4184 25.1091 12.1102 25.3986 11.7017C25.6881 11.2931 25.843 10.8045 25.8419 10.3038V6.31675C25.841 5.81266 25.6821 5.32154 25.3873 4.91258C25.0926 4.50362 24.677 4.19742 24.1991 4.03712ZM3.6917 11.079H2.76878C2.524 11.079 2.28925 10.9818 2.11617 10.8087C1.94309 10.6356 1.84585 10.4009 1.84585 10.1561V6.46441C1.84585 6.21964 1.94309 5.98489 2.11617 5.81181C2.28925 5.63872 2.524 5.54149 2.76878 5.54149H3.6917V11.079ZM23.9961 10.3038C23.9962 10.4201 23.9598 10.5335 23.8919 10.6279C23.8239 10.7224 23.728 10.793 23.6177 10.8299L22.1502 11.3098V5.31076L23.6177 5.79068C23.728 5.82751 23.8239 5.89815 23.8919 5.99258C23.9598 6.08701 23.9962 6.20043 23.9961 6.31675V10.3038Z"/>
</svg>
