
<svg width="28" height="28" viewBox="0 0 28 28" fill="none" xmlns="http://www.w3.org/2000/svg">
<path d="M24.3276 14.862C22.3883 11.8369 22.2678 10.9903 22.265 10.9454C21.3973 3.57342 15.4382 3.00049 13.6327 3.00049C13.4663 3.00049 13.3219 3.00416 13.2096 3.00736L13.0496 3.01011C12.3493 3.01011 7.42462 3.15403 5.24464 6.90787H3.79026C3.70188 6.90787 3.61712 6.94297 3.55463 7.00546C3.49214 7.06795 3.45703 7.15271 3.45703 7.24108V19.4871C3.45703 19.5756 3.49211 19.6604 3.55458 19.723C3.61704 19.7857 3.7018 19.821 3.79026 19.8212H7.35311C7.42391 19.9316 7.48804 20.0461 7.54517 20.1641C8.18412 21.5749 8.22308 24.6412 8.22354 24.6714C8.22451 24.7592 8.26001 24.8432 8.32237 24.905C8.38473 24.9668 8.46894 25.0017 8.55677 25.0019H8.56044C8.64878 25.0009 8.73313 24.965 8.795 24.9019C8.85686 24.8388 8.89119 24.7538 8.89046 24.6655C8.89046 24.5339 8.84967 21.4282 8.1525 19.8895C8.1415 19.8652 8.12683 19.8437 8.11491 19.8217H9.57296C9.83668 19.8219 10.0895 19.9268 10.276 20.1133C10.4625 20.2997 10.5674 20.5526 10.5676 20.8163C10.5708 20.9026 10.6073 20.9843 10.6695 21.0442C10.7317 21.1041 10.8147 21.1376 10.9011 21.1376C10.9874 21.1376 11.0704 21.1041 11.1326 21.0442C11.1948 20.9843 11.2313 20.9026 11.2345 20.8163C11.2348 20.5526 11.3396 20.2997 11.5261 20.1133C11.7126 19.9268 11.9654 19.8219 12.2292 19.8217H18.0132C18.0571 19.8216 18.1004 19.8129 18.1409 19.7961C18.1814 19.7793 18.2181 19.7547 18.2491 19.7236C18.28 19.6926 18.3045 19.6558 18.3213 19.6153C18.338 19.5748 18.3465 19.5314 18.3465 19.4876V7.24016C18.3464 7.15183 18.3112 7.06714 18.2487 7.00468C18.1863 6.94222 18.1016 6.90707 18.0132 6.90695H12.2296C11.9708 6.90731 11.7157 6.96843 11.4848 7.08537C11.254 7.20231 11.0538 7.37182 10.9004 7.58026C10.7469 7.37188 10.5467 7.20241 10.3159 7.08547C10.085 6.96853 9.82992 6.90738 9.57113 6.90695H6.02799C8.0292 3.88647 12.038 3.67609 13.0496 3.67609C13.0932 3.67609 13.1532 3.67609 13.2261 3.67242C13.3338 3.66967 13.4727 3.666 13.6327 3.666C15.2993 3.666 20.7996 4.19676 21.599 10.9995C21.6041 11.0912 21.7044 12.0005 23.7753 15.2318C23.8489 15.3479 23.8797 15.486 23.8624 15.6223C23.838 15.6978 23.7982 15.7675 23.7455 15.8268C23.6928 15.8861 23.6283 15.9339 23.5562 15.967C22.9764 16.2911 22.3757 16.5763 21.7581 16.8209C21.6896 16.8475 21.6318 16.896 21.5936 16.9588C21.5555 17.0216 21.5392 17.0953 21.5472 17.1683C21.5495 17.1926 21.808 19.6104 21.583 20.792C21.4876 21.2916 20.3591 21.6271 18.775 21.6271C18.582 21.6104 18.3876 21.6353 18.2049 21.7001C18.0223 21.7649 17.8557 21.8681 17.7163 22.0028C17.5769 22.1374 17.4681 22.3004 17.3971 22.4807C17.326 22.661 17.2945 22.8544 17.3046 23.048V24.6645C17.303 24.7094 17.3103 24.7541 17.3264 24.796C17.3424 24.8379 17.3667 24.8761 17.3978 24.9084C17.4289 24.9407 17.4662 24.9664 17.5075 24.984C17.5488 25.0015 17.5932 25.0106 17.6381 25.0106C17.6829 25.0106 17.7273 25.0015 17.7686 24.984C17.8099 24.9664 17.8472 24.9407 17.8784 24.9084C17.9095 24.8761 17.9338 24.8379 17.9498 24.796C17.9658 24.7541 17.9732 24.7094 17.9715 24.6645V23.0493C17.9643 22.9442 17.9806 22.8388 18.0192 22.7407C18.0578 22.6426 18.1177 22.5544 18.1947 22.4823C18.2716 22.4103 18.3636 22.3563 18.4639 22.3242C18.5643 22.2921 18.6706 22.2827 18.775 22.2967C19.9705 22.2967 22.0097 22.1175 22.238 20.919C22.3694 19.7328 22.3685 18.5358 22.2352 17.3498C22.803 17.1155 23.3559 16.8466 23.8908 16.5445C24.0444 16.4668 24.1796 16.3571 24.2871 16.2226C24.3947 16.0882 24.4721 15.9323 24.5142 15.7654C24.5717 15.4514 24.5048 15.1274 24.3276 14.862V14.862ZM11.235 8.5689C11.2352 8.30515 11.3401 8.05226 11.5265 7.86572C11.713 7.67917 11.9659 7.5742 12.2296 7.57384H17.68V19.1534H12.2296C11.8709 19.1533 11.5219 19.2696 11.235 19.4848V8.5689ZM9.57342 7.57384C9.83718 7.5742 10.09 7.67917 10.2765 7.86572C10.463 8.05226 10.5678 8.30515 10.5681 8.5689V19.4848C10.2812 19.2696 9.93211 19.1533 9.57342 19.1534H4.12303V7.57384H9.57342Z" fill="#050C15"/>
<path d="M5.5676 9.92574H9.12266C9.21104 9.92574 9.2958 9.89063 9.35829 9.82814C9.42079 9.76564 9.45589 9.68088 9.45589 9.59251C9.45589 9.50413 9.42079 9.41937 9.35829 9.35688C9.2958 9.29439 9.21104 9.25928 9.12266 9.25928H5.5676C5.47923 9.25928 5.39447 9.29439 5.33198 9.35688C5.26948 9.41937 5.23438 9.50413 5.23438 9.59251C5.23438 9.68088 5.26948 9.76564 5.33198 9.82814C5.39447 9.89063 5.47923 9.92574 5.5676 9.92574Z" fill="#050C15"/>
<path d="M5.56806 12.4447H9.12312C9.21162 12.4447 9.2965 12.4096 9.35908 12.347C9.42165 12.2844 9.45681 12.1995 9.45681 12.111C9.45681 12.0225 9.42165 11.9377 9.35908 11.8751C9.2965 11.8125 9.21162 11.7773 9.12312 11.7773H5.56806C5.47956 11.7773 5.39469 11.8125 5.33211 11.8751C5.26953 11.9377 5.23438 12.0225 5.23438 12.111C5.23438 12.1995 5.26953 12.2844 5.33211 12.347C5.39469 12.4096 5.47956 12.4447 5.56806 12.4447Z" fill="#050C15"/>
<path d="M5.56806 14.9633H9.12312C9.16694 14.9633 9.21033 14.9546 9.25082 14.9379C9.2913 14.9211 9.32809 14.8965 9.35908 14.8655C9.39006 14.8346 9.41464 14.7978 9.43141 14.7573C9.44818 14.7168 9.45681 14.6734 9.45681 14.6296C9.45681 14.5858 9.44818 14.5424 9.43141 14.5019C9.41464 14.4614 9.39006 14.4246 9.35908 14.3936C9.32809 14.3626 9.2913 14.3381 9.25082 14.3213C9.21033 14.3045 9.16694 14.2959 9.12312 14.2959H5.56806C5.52424 14.2959 5.48085 14.3045 5.44037 14.3213C5.39988 14.3381 5.3631 14.3626 5.33211 14.3936C5.30112 14.4246 5.27654 14.4614 5.25978 14.5019C5.24301 14.5424 5.23438 14.5858 5.23438 14.6296C5.23438 14.6734 5.24301 14.7168 5.25978 14.7573C5.27654 14.7978 5.30112 14.8346 5.33211 14.8655C5.3631 14.8965 5.39988 14.9211 5.44037 14.9379C5.48085 14.9546 5.52424 14.9633 5.56806 14.9633V14.9633Z" fill="#050C15"/>
<path d="M5.56806 17.4843H9.12312C9.21162 17.4843 9.2965 17.4491 9.35908 17.3865C9.42165 17.324 9.45681 17.2391 9.45681 17.1506C9.45681 17.0621 9.42165 16.9772 9.35908 16.9146C9.2965 16.8521 9.21162 16.8169 9.12312 16.8169H5.56806C5.47956 16.8169 5.39469 16.8521 5.33211 16.9146C5.26953 16.9772 5.23438 17.0621 5.23438 17.1506C5.23438 17.2391 5.26953 17.324 5.33211 17.3865C5.39469 17.4491 5.47956 17.4843 5.56806 17.4843V17.4843Z" fill="#050C15"/>
<path d="M12.6809 9.92574H16.2359C16.3243 9.92574 16.4091 9.89063 16.4716 9.82814C16.5341 9.76564 16.5692 9.68088 16.5692 9.59251C16.5692 9.50413 16.5341 9.41937 16.4716 9.35688C16.4091 9.29439 16.3243 9.25928 16.2359 9.25928H12.6809C12.5925 9.25928 12.5078 9.29439 12.4453 9.35688C12.3828 9.41937 12.3477 9.50413 12.3477 9.59251C12.3477 9.68088 12.3828 9.76564 12.4453 9.82814C12.5078 9.89063 12.5925 9.92574 12.6809 9.92574V9.92574Z" fill="#050C15"/>
<path d="M12.6813 12.4447H16.2364C16.3249 12.4447 16.4098 12.4096 16.4724 12.347C16.5349 12.2844 16.5701 12.1995 16.5701 12.111C16.5701 12.0225 16.5349 11.9377 16.4724 11.8751C16.4098 11.8125 16.3249 11.7773 16.2364 11.7773H12.6813C12.5928 11.7773 12.508 11.8125 12.4454 11.8751C12.3828 11.9377 12.3477 12.0225 12.3477 12.111C12.3477 12.1995 12.3828 12.2844 12.4454 12.347C12.508 12.4096 12.5928 12.4447 12.6813 12.4447Z" fill="#050C15"/>
<path d="M12.6813 14.9633H16.2364C16.2802 14.9633 16.3236 14.9546 16.3641 14.9379C16.4046 14.9211 16.4414 14.8965 16.4724 14.8655C16.5033 14.8346 16.5279 14.7978 16.5447 14.7573C16.5615 14.7168 16.5701 14.6734 16.5701 14.6296C16.5701 14.5858 16.5615 14.5424 16.5447 14.5019C16.5279 14.4614 16.5033 14.4246 16.4724 14.3936C16.4414 14.3626 16.4046 14.3381 16.3641 14.3213C16.3236 14.3045 16.2802 14.2959 16.2364 14.2959H12.6813C12.6375 14.2959 12.5941 14.3045 12.5536 14.3213C12.5132 14.3381 12.4764 14.3626 12.4454 14.3936C12.4144 14.4246 12.3898 14.4614 12.3731 14.5019C12.3563 14.5424 12.3477 14.5858 12.3477 14.6296C12.3477 14.6734 12.3563 14.7168 12.3731 14.7573C12.3898 14.7978 12.4144 14.8346 12.4454 14.8655C12.4764 14.8965 12.5132 14.9211 12.5536 14.9379C12.5941 14.9546 12.6375 14.9633 12.6813 14.9633V14.9633Z" fill="#050C15"/>
<path d="M12.6813 17.4843H14.4593C14.5478 17.4843 14.6327 17.4491 14.6953 17.3865C14.7579 17.324 14.793 17.2391 14.793 17.1506C14.793 17.0621 14.7579 16.9772 14.6953 16.9146C14.6327 16.8521 14.5478 16.8169 14.4593 16.8169H12.6813C12.5928 16.8169 12.508 16.8521 12.4454 16.9146C12.3828 16.9772 12.3477 17.0621 12.3477 17.1506C12.3477 17.2391 12.3828 17.324 12.4454 17.3865C12.508 17.4491 12.5928 17.4843 12.6813 17.4843V17.4843Z" fill="#050C15"/>
</svg>
