<svg width="24" height="24" viewBox="0 0 24 24" fill="none" xmlns="http://www.w3.org/2000/svg">
<path d="M23.8392 2.72039C23.8392 1.66112 22.9789 0.800293 21.9197 0.800293H13.5423C12.4856 0.800293 11.0117 1.41172 10.2646 2.15764L1.36049 11.0612C0.613993 11.8077 0.613129 13.0299 1.36049 13.7767L10.8633 23.2796C11.6098 24.0272 12.8324 24.0272 13.5786 23.2796L13.5818 23.2824L22.4827 14.3775C23.2301 13.6304 23.8403 12.1564 23.8403 11.0997L23.8392 2.72039ZM21.1256 13.0201L12.221 21.9225L2.71783 12.4185L11.6219 3.51527C12.0079 3.12877 12.9954 2.7201 13.542 2.7201H21.9199L21.9211 11.0997C21.9202 11.6464 21.5116 12.6336 21.1256 13.0201Z" fill="#4D5866"/>
<path d="M19.6906 6.99054C19.1284 7.55271 18.2149 7.55214 17.6533 6.99054C17.0908 6.42807 17.0908 5.51569 17.6533 4.95294C18.2149 4.39134 19.127 4.39134 19.6895 4.95294C20.2511 5.51569 20.2519 6.42807 19.6906 6.99054Z" fill="#4D5866"/>
<path d="M9.50403 16.4932L8.14697 15.1348L14.9354 8.34717L16.2916 9.70451L9.50403 16.4932Z" fill="#E43B46"/>
<path d="M10.5248 10.7227C9.96233 11.2851 9.04937 11.2843 8.48777 10.7218C7.9253 10.1602 7.9253 9.24696 8.48777 8.68536C9.04937 8.12376 9.96146 8.12376 10.5239 8.68536C11.0855 9.24696 11.0864 10.1599 10.5248 10.7227Z" fill="#E43B46"/>
<path d="M15.9542 16.1532C15.3926 16.7146 14.4805 16.7146 13.9181 16.1532C13.3567 15.5908 13.3567 14.679 13.9181 14.1165C14.4805 13.5549 15.3926 13.5549 15.9542 14.1165C16.5164 14.6787 16.5164 15.5905 15.9542 16.1532Z" fill="#E43B46"/>
</svg>
