<svg width="24" height="24" viewBox="0 0 24 24" fill="none" xmlns="http://www.w3.org/2000/svg">
<path d="M23.8389 2.72039C23.8389 1.66112 22.9787 0.800293 21.9194 0.800293H13.5421C12.4854 0.800293 11.0114 1.41172 10.2643 2.15764L1.36024 11.0612C0.613749 11.8077 0.612885 13.0299 1.36024 13.7767L10.8631 23.2796C11.6096 24.0272 12.8321 24.0272 13.5784 23.2796L13.5815 23.2824L22.4825 14.3775C23.2298 13.6304 23.8401 12.1564 23.8401 11.0997L23.8389 2.72039ZM21.1254 13.0201L12.2207 21.9225L2.71759 12.4185L11.6217 3.51527C12.0076 3.12877 12.9952 2.7201 13.5418 2.7201H21.9197L21.9209 11.0997C21.92 11.6464 21.5113 12.6336 21.1254 13.0201Z" fill="#E43B46"/>
<path d="M19.6904 6.99054C19.1282 7.55271 18.2147 7.55214 17.653 6.99054C17.0906 6.42807 17.0906 5.51569 17.653 4.95294C18.2147 4.39134 19.1267 4.39134 19.6892 4.95294C20.2508 5.51569 20.2517 6.42807 19.6904 6.99054Z" fill="#E43B46"/>
<path d="M9.50403 16.4932L8.14697 15.1348L14.9354 8.34717L16.2916 9.70451L9.50403 16.4932Z" fill="#E43B46"/>
<path d="M10.5245 10.7227C9.96208 11.2851 9.04912 11.2843 8.48752 10.7218C7.92506 10.1602 7.92506 9.24696 8.48752 8.68536C9.04912 8.12376 9.96122 8.12376 10.5237 8.68536C11.0853 9.24696 11.0861 10.1599 10.5245 10.7227Z" fill="#E43B46"/>
<path d="M15.954 16.1532C15.3924 16.7146 14.4803 16.7146 13.9178 16.1532C13.3565 15.5908 13.3565 14.679 13.9178 14.1165C14.4803 13.5549 15.3924 13.5549 15.954 14.1165C16.5161 14.6787 16.5161 15.5905 15.954 16.1532Z" fill="#E43B46"/>
</svg>
