<svg width="30" height="30" viewBox="0 0 30 30" fill="none" xmlns="http://www.w3.org/2000/svg">
<path d="M19.1347 17.3914C17.4638 17.3914 15.7929 16.7554 14.5208 15.4834C11.9768 12.9393 11.9768 8.79971 14.5208 6.25563L17.7029 3.07363C20.247 0.529495 24.3865 0.529495 26.9306 3.07363C29.4747 5.61776 29.4747 9.75731 26.9306 12.3014L23.7485 15.4834C22.4765 16.7554 20.8056 17.3914 19.1347 17.3914ZM16.5891 13.4151C17.9928 14.8187 20.2767 14.8187 21.6803 13.4151L24.8623 10.2331C26.266 8.82941 26.2659 6.54554 24.8623 5.14188C23.4586 3.73828 21.1747 3.73828 19.7711 5.14188L16.5891 8.32389C15.1855 9.72755 15.1855 12.0114 16.5891 13.4151L15.5549 14.4492L16.5891 13.4151Z" fill="#99A5B2"/>
<path d="M7.68792 28.8387C6.01702 28.8387 4.34611 28.2027 3.07407 26.9306C0.529997 24.3865 0.529997 20.247 3.07407 17.7029L6.25608 14.5209C8.80021 11.9767 12.9397 11.9768 15.4838 14.5209C18.0279 17.065 18.0279 21.2046 15.4838 23.7486L12.3018 26.9306C11.0297 28.2027 9.35883 28.8387 7.68792 28.8387ZM10.8699 15.5364C9.94799 15.5364 9.02611 15.8873 8.32433 16.5891L5.14233 19.7711C3.73867 21.1748 3.73867 23.4587 5.14233 24.8623C6.54599 26.2659 8.82991 26.2659 10.2335 24.8623L13.4155 21.6803C14.8192 20.2766 14.8191 17.9927 13.4155 16.5891C12.7137 15.8874 11.7918 15.5364 10.8699 15.5364Z" fill="#99A5B2"/>
<path d="M18.2665 9.26671L9.2666 18.2666L11.7326 20.7326L20.7325 11.7327L18.2665 9.26671Z" fill="#99A5B2"/>
</svg>
