<svg width="23" height="20" viewBox="0 0 23 20" fill="none" xmlns="http://www.w3.org/2000/svg">
  <path d="M16.5 19V17C16.5 15.9391 16.0786 14.9217 15.3284 14.1716C14.5783 13.4214 13.5609 13 12.5 13H4.5C3.43913 13 2.42172 13.4214 1.67157 14.1716C0.921427 14.9217 0.5 15.9391 0.5 17V19M22.5 19V17C22.4993 16.1137 22.2044 15.2528 21.6614 14.5523C21.1184 13.8519 20.3581 13.3516 19.5 13.13M15.5 1.13C16.3604 1.3503 17.123 1.8507 17.6676 2.55231C18.2122 3.25392 18.5078 4.11683 18.5078 5.005C18.5078 5.89317 18.2122 6.75608 17.6676 7.45769C17.123 8.1593 16.3604 8.6597 15.5 8.88M12.5 5C12.5 7.20914 10.7091 9 8.5 9C6.29086 9 4.5 7.20914 4.5 5C4.5 2.79086 6.29086 1 8.5 1C10.7091 1 12.5 2.79086 12.5 5Z" stroke="#191919" strokeLinecap="round" strokeLinejoin="round" />
</svg>
