<svg width="20" height="20" viewBox="0 0 20 20" fill="none" xmlns="http://www.w3.org/2000/svg">
  <mask id="path-1-inside-1" fill="white">
    <path d="M6.77855 1.18572L0.728551 11.2857C0.603814 11.5017 0.537813 11.7466 0.537115 11.9961C0.536417 12.2455 0.601045 12.4908 0.72457 12.7075C0.848096 12.9242 1.02621 13.1048 1.2412 13.2313C1.45619 13.3578 1.70055 13.4258 1.94998 13.4286H14.05C14.2994 13.4258 14.5438 13.3578 14.7588 13.2313C14.9737 13.1048 15.1519 12.9242 15.2754 12.7075C15.3989 12.4908 15.4635 12.2455 15.4628 11.9961C15.4621 11.7466 15.3961 11.5017 15.2714 11.2857L9.22141 1.18572C9.09407 0.975797 8.91478 0.802235 8.70083 0.681781C8.48689 0.561327 8.2455 0.498047 7.99998 0.498047C7.75445 0.498047 7.51307 0.561327 7.29913 0.681781C7.08518 0.802235 6.90589 0.975797 6.77855 1.18572Z" />
    <path d="M8.71425 10.5715C8.71425 10.966 8.39445 11.2857 7.99996 11.2857C7.60548 11.2857 7.28568 10.966 7.28568 10.5715C7.28568 10.177 7.60548 9.85718 7.99996 9.85718C8.39445 9.85718 8.71425 10.177 8.71425 10.5715Z" />
  </mask>
  <path d="M8.49998 4.85715C8.49998 4.58101 8.27612 4.35715 7.99998 4.35715C7.72384 4.35715 7.49998 4.58101 7.49998 4.85715H8.49998ZM7.49998 7.71429C7.49998 7.99044 7.72384 8.21429 7.99998 8.21429C8.27612 8.21429 8.49998 7.99044 8.49998 7.71429H7.49998ZM7.49998 4.85715V7.71429H8.49998V4.85715H7.49998ZM6.77855 1.18572L5.92354 0.667085L5.92068 0.67185L6.77855 1.18572ZM0.728551 11.2857L-0.129316 10.7719C-0.132061 10.7764 -0.134768 10.781 -0.137439 10.7857L0.728551 11.2857ZM1.94998 13.4286L1.93899 14.4286H1.94998V13.4286ZM14.05 13.4286V14.4286L14.061 14.4285L14.05 13.4286ZM15.2714 11.2857L16.1374 10.7857C16.1347 10.781 16.132 10.7764 16.1293 10.7719L15.2714 11.2857ZM9.22141 1.18572L10.0793 0.671842L10.0764 0.667093L9.22141 1.18572ZM7.99998 0.498047V-0.501953V0.498047ZM5.92068 0.67185L-0.129316 10.7719L1.58642 11.7996L7.63642 1.69959L5.92068 0.67185ZM-0.137439 10.7857C-0.349492 11.1529 -0.461694 11.5692 -0.462881 11.9933L1.53711 11.9989C1.53732 11.9241 1.55712 11.8506 1.59454 11.7858L-0.137439 10.7857ZM-0.462881 11.9933C-0.464068 12.4173 -0.3542 12.8343 -0.144207 13.2027L1.59335 12.2123C1.55629 12.1473 1.5369 12.0737 1.53711 11.9989L-0.462881 11.9933ZM-0.144207 13.2027C0.0657859 13.5711 0.368584 13.8781 0.734063 14.0932L1.74834 12.3695C1.68384 12.3315 1.63041 12.2773 1.59335 12.2123L-0.144207 13.2027ZM0.734063 14.0932C1.09954 14.3082 1.51496 14.4239 1.93899 14.4285L1.96097 12.4286C1.88615 12.4278 1.81284 12.4074 1.74834 12.3695L0.734063 14.0932ZM1.94998 14.4286H14.05V12.4286H1.94998V14.4286ZM14.061 14.4285C14.485 14.4239 14.9004 14.3082 15.2659 14.0932L14.2516 12.3695C14.1871 12.4074 14.1138 12.4278 14.039 12.4286L14.061 14.4285ZM15.2659 14.0932C15.6314 13.8781 15.9342 13.5711 16.1442 13.2027L14.4066 12.2123C14.3696 12.2773 14.3161 12.3315 14.2516 12.3695L15.2659 14.0932ZM16.1442 13.2027C16.3542 12.8343 16.464 12.4173 16.4628 11.9933L14.4628 11.9989C14.4631 12.0737 14.4437 12.1473 14.4066 12.2123L16.1442 13.2027ZM16.4628 11.9933C16.4617 11.5692 16.3495 11.1529 16.1374 10.7857L14.4054 11.7858C14.4428 11.8506 14.4626 11.9241 14.4628 11.9989L16.4628 11.9933ZM16.1293 10.7719L10.0793 0.67185L8.36354 1.69959L14.4135 11.7996L16.1293 10.7719ZM10.0764 0.667093C9.85994 0.310222 9.55514 0.0151667 9.19143 -0.189605L8.21024 1.55317C8.27442 1.5893 8.32821 1.64137 8.36641 1.70435L10.0764 0.667093ZM9.19143 -0.189605C8.82772 -0.394377 8.41737 -0.501953 7.99998 -0.501953V1.49805C8.07364 1.49805 8.14605 1.51703 8.21024 1.55317L9.19143 -0.189605ZM7.99998 -0.501953C7.58259 -0.501953 7.17224 -0.394377 6.80853 -0.189605L7.78972 1.55317C7.85391 1.51703 7.92632 1.49805 7.99998 1.49805V-0.501953ZM6.80853 -0.189605C6.44482 0.0151667 6.14002 0.310222 5.92355 0.667093L7.63355 1.70435C7.67175 1.64137 7.72554 1.5893 7.78972 1.55317L6.80853 -0.189605ZM7.71425 10.5715C7.71425 10.4137 7.84217 10.2857 7.99996 10.2857V12.2857C8.94674 12.2857 9.71425 11.5182 9.71425 10.5715H7.71425ZM7.99996 10.2857C8.15776 10.2857 8.28568 10.4137 8.28568 10.5715H6.28568C6.28568 11.5182 7.05319 12.2857 7.99996 12.2857V10.2857ZM8.28568 10.5715C8.28568 10.7293 8.15776 10.8572 7.99996 10.8572V8.85718C7.05319 8.85718 6.28568 9.62469 6.28568 10.5715H8.28568ZM7.99996 10.8572C7.84217 10.8572 7.71425 10.7293 7.71425 10.5715H9.71425C9.71425 9.62469 8.94674 8.85718 7.99996 8.85718V10.8572Z" fill="#E31A1A" mask="url(#path-1-inside-1)" />
</svg>
