<svg width="12" height="12" viewBox="0 0 12 12" fill="none" xmlns="http://www.w3.org/2000/svg">
<mask id="path-1-inside-1_20001_46045" fill="white">
<path d="M5.99944 11.7137C9.15536 11.7137 11.7137 9.15536 11.7137 5.99944C11.7137 2.84353 9.15536 0.285156 5.99944 0.285156C2.84353 0.285156 0.285156 2.84353 0.285156 5.99944C0.285156 9.15536 2.84353 11.7137 5.99944 11.7137Z"/>
<path d="M6.57087 3.71373C6.57087 4.02932 6.31503 4.28516 5.99944 4.28516C5.68385 4.28516 5.42801 4.02932 5.42801 3.71373C5.42801 3.39814 5.68385 3.1423 5.99944 3.1423C6.31503 3.1423 6.57087 3.39814 6.57087 3.71373Z"/>
</mask>
<path d="M5.49944 8.28516C5.49944 8.5613 5.7233 8.78516 5.99944 8.78516C6.27558 8.78516 6.49944 8.5613 6.49944 8.28516H5.49944ZM6.49944 5.99944C6.49944 5.7233 6.27558 5.49944 5.99944 5.49944C5.7233 5.49944 5.49944 5.7233 5.49944 5.99944H6.49944ZM6.49944 8.28516V5.99944H5.49944V8.28516H6.49944ZM10.7137 5.99944C10.7137 8.60307 8.60307 10.7137 5.99944 10.7137V12.7137C9.70764 12.7137 12.7137 9.70764 12.7137 5.99944H10.7137ZM5.99944 10.7137C3.39581 10.7137 1.28516 8.60307 1.28516 5.99944H-0.714844C-0.714844 9.70764 2.29124 12.7137 5.99944 12.7137V10.7137ZM1.28516 5.99944C1.28516 3.39581 3.39581 1.28516 5.99944 1.28516V-0.714844C2.29124 -0.714844 -0.714844 2.29124 -0.714844 5.99944H1.28516ZM5.99944 1.28516C8.60307 1.28516 10.7137 3.39581 10.7137 5.99944H12.7137C12.7137 2.29124 9.70764 -0.714844 5.99944 -0.714844V1.28516ZM5.57087 3.71373C5.57087 3.47703 5.76275 3.28516 5.99944 3.28516V5.28516C6.86732 5.28516 7.57087 4.5816 7.57087 3.71373H5.57087ZM5.99944 3.28516C6.23614 3.28516 6.42801 3.47703 6.42801 3.71373H4.42801C4.42801 4.5816 5.13157 5.28516 5.99944 5.28516V3.28516ZM6.42801 3.71373C6.42801 3.95042 6.23614 4.1423 5.99944 4.1423V2.1423C5.13157 2.1423 4.42801 2.84585 4.42801 3.71373H6.42801ZM5.99944 4.1423C5.76275 4.1423 5.57087 3.95042 5.57087 3.71373H7.57087C7.57087 2.84585 6.86732 2.1423 5.99944 2.1423V4.1423Z" fill="#637183" mask="url(#path-1-inside-1_20001_46045)"/>
</svg>
