<svg width="11" height="16" viewBox="0 0 11 16" fill="none" xmlns="http://www.w3.org/2000/svg">
  <path fillRule="evenodd" clipRule="evenodd" d="M5.42762 0.999963C4.33642 0.999963 3.28992 1.4214 2.51833 2.17156C1.74673 2.92172 1.31326 3.93916 1.31326 5.00005C1.31326 6.06094 1.74673 7.07838 2.51833 7.82854C3.28992 8.57871 4.33642 9.00014 5.42762 9.00014C6.51882 9.00014 7.56532 8.57871 8.33692 7.82854C9.10851 7.07838 9.54199 6.06094 9.54199 5.00005C9.54199 3.93916 9.10851 2.92172 8.33692 2.17156C7.56532 1.4214 6.51882 0.999963 5.42762 0.999963ZM0.284668 5.00005C0.28468 4.03244 0.573467 3.08563 1.116 2.27443C1.65854 1.46323 2.43152 0.822502 3.34119 0.429955C4.25086 0.0374075 5.25814 -0.0900948 6.24087 0.0629113C7.2236 0.215917 8.13955 0.642858 8.87764 1.29195C9.61574 1.94105 10.1443 2.78441 10.3991 3.71976C10.654 4.65511 10.6242 5.64225 10.3134 6.56148C10.0026 7.4807 9.42418 8.29251 8.64824 8.89844C7.87229 9.50438 6.93218 9.87841 5.94192 9.97517V12.0002H7.9991C8.1355 12.0002 8.26631 12.0529 8.36276 12.1467C8.45921 12.2404 8.51339 12.3676 8.51339 12.5002C8.51339 12.6328 8.45921 12.76 8.36276 12.8538C8.26631 12.9476 8.1355 13.0002 7.9991 13.0002H5.94192V15.5003C5.94192 15.6329 5.88773 15.7601 5.79128 15.8539C5.69484 15.9476 5.56402 16.0003 5.42762 16.0003C5.29122 16.0003 5.16041 15.9476 5.06396 15.8539C4.96751 15.7601 4.91333 15.6329 4.91333 15.5003V13.0002H2.85614C2.71975 13.0002 2.58893 12.9476 2.49248 12.8538C2.39603 12.76 2.34185 12.6328 2.34185 12.5002C2.34185 12.3676 2.39603 12.2404 2.49248 12.1467C2.58893 12.0529 2.71975 12.0002 2.85614 12.0002H4.91333V9.97517C3.64475 9.85121 2.46875 9.27356 1.61348 8.35427C0.758215 7.43499 0.284652 6.23961 0.284668 5.00005Z" fill="#4286D6" />
</svg>
