<svg width="66" height="66" viewBox="0 0 66 66" fill="none" xmlns="http://www.w3.org/2000/svg">
<path d="M5 33C5 17.536 17.536 5 33 5C48.464 5 61 17.536 61 33C61 48.464 48.464 61 33 61C17.536 61 5 48.464 5 33Z" fill="#F9D2D5"/>
<path d="M37.0833 27.7502L41.1666 23.6668M43.5 21.3335L41.1666 23.6668L43.5 21.3335ZM32.2883 32.5452C32.8907 33.1395 33.3696 33.8472 33.6973 34.6274C34.0251 35.4076 34.1953 36.245 34.1982 37.0912C34.201 37.9375 34.0364 38.776 33.7139 39.5583C33.3913 40.3407 32.9172 41.0516 32.3188 41.65C31.7204 42.2484 31.0095 42.7225 30.2271 43.0451C29.4448 43.3676 28.6063 43.5322 27.76 43.5294C26.9138 43.5265 26.0764 43.3563 25.2962 43.0285C24.516 42.7008 23.8083 42.2219 23.214 41.6195C22.0451 40.4093 21.3983 38.7884 21.413 37.106C21.4276 35.4236 22.1024 33.8142 23.2921 32.6245C24.4818 31.4348 26.0912 30.76 27.7736 30.7453C29.4561 30.7307 31.0769 31.3775 32.2871 32.5463L32.2883 32.5452ZM32.2883 32.5452L37.0833 27.7502L32.2883 32.5452ZM37.0833 27.7502L40.5833 31.2502L44.6666 27.1668L41.1666 23.6668L37.0833 27.7502Z" stroke="#D71E2A" stroke-width="2.33333" stroke-linecap="round" stroke-linejoin="round"/>
<path d="M33 56C20.2975 56 10 45.7025 10 33H0C0 51.2254 14.7746 66 33 66V56ZM56 33C56 45.7025 45.7025 56 33 56V66C51.2254 66 66 51.2254 66 33H56ZM33 10C45.7025 10 56 20.2975 56 33H66C66 14.7746 51.2254 0 33 0V10ZM33 0C14.7746 0 0 14.7746 0 33H10C10 20.2975 20.2975 10 33 10V0Z" fill="#FDEDEE"/>
</svg>
