<svg width="21" height="22" viewBox="0 0 21 22" fill="none" xmlns="http://www.w3.org/2000/svg">
  <path fillRule="evenodd" clipRule="evenodd" d="M11.0175 12.9737V9.10949H20.7404C20.8859 9.76392 21.0001 10.3768 21.0001 11.239C21.0001 17.1704 17.0216 21.3878 11.0279 21.3878C5.29385 21.3878 0.640137 16.7341 0.640137 11.0001C0.640137 5.26602 5.29385 0.612305 11.0279 0.612305C13.8326 0.612305 16.1802 1.64069 17.9773 3.32351L15.0272 6.19053C14.2793 5.48416 12.9704 4.65314 11.0279 4.65314C7.58954 4.65314 4.78485 7.50977 4.78485 11.0104C4.78485 14.5111 7.58954 17.3678 11.0279 17.3678C15.0064 17.3678 16.4711 14.615 16.7412 12.9841H11.0175V12.9737Z" fill="white" />
</svg>
