
<svg width="48" height="44" viewBox="0 0 48 44" fill="none" xmlns="http://www.w3.org/2000/svg">
<rect width="48" height="44" rx="6" fill="#FDEDEE"/>
<path fill-rule="evenodd" clip-rule="evenodd" d="M11.3033 19.5369C10.8892 20.1585 10.7324 20.8821 10.7324 21.2456H10.0933C10.0933 20.7416 10.2912 19.8808 10.7822 19.1445C11.2835 18.3921 12.1033 17.7543 13.3284 17.7753L13.3181 18.4542C12.3426 18.4375 11.7072 18.9313 11.3033 19.5369Z" fill="#E43846"/>
<path fill-rule="evenodd" clip-rule="evenodd" d="M6.08057 27.9099L8.91975 24.9677L9.91048 26.048L7.07166 28.9903L6.08057 27.9099Z" fill="#E43846"/>
<path fill-rule="evenodd" clip-rule="evenodd" d="M17.3296 18.6896C16.5151 17.2597 15.0374 16.304 13.3498 16.304C10.7825 16.304 8.70102 18.5164 8.70102 21.2455C8.70102 22.916 9.48071 24.3929 10.6744 25.2873L9.62726 26.3399C8.1998 25.1597 7.28125 23.3166 7.28125 21.2455C7.28125 17.683 9.99842 14.7951 13.3498 14.7951C15.8471 14.7951 17.992 16.3985 18.9234 18.6896H17.3296Z" fill="#E43846"/>
<path d="M7.28198 28.4504C7.28198 28.8671 6.96425 29.2048 6.57214 29.2048C6.18003 29.2048 5.8623 28.8671 5.8623 28.4504C5.8623 28.0338 6.18003 27.696 6.57214 27.696C6.96425 27.696 7.28198 28.0338 7.28198 28.4504Z" fill="#E43846"/>
<path d="M12.1753 19.4684H17.9833V21.9925H14.7862V23.048H17.6584V25.5455H14.7862V26.6276H18.0493V29.1782H12.1753V19.4684Z" fill="#1D3D6B"/>
<path d="M28.3105 19.4684H34.119V21.9925H30.9215V23.048H33.794V25.5455H30.9215V26.6276H34.1846V29.1782H28.3105V19.4684Z" fill="#1D3D6B"/>
<path d="M27.8552 19.4684L24.6137 26.196V29.1299H21.7804V26.196L18.5386 19.4684H21.7804L23.2225 22.8936L24.6647 19.4684H27.8552Z" fill="#1D3D6B"/>
<path d="M38.7632 29.1262C37.7051 29.1262 36.8301 28.865 36.1387 28.3425C35.4554 27.8111 35.0846 27.0362 35.0264 26.0177H37.9758C38.0176 26.5579 38.2426 26.828 38.6507 26.828C38.8006 26.828 38.9255 26.7926 39.0255 26.7218C39.134 26.642 39.1882 26.5225 39.1882 26.3631C39.1882 26.1417 39.0757 25.9646 38.8508 25.8317C38.6258 25.69 38.2759 25.5306 37.8011 25.3535C37.2342 25.1409 36.7634 24.9328 36.3886 24.7291C36.0218 24.5254 35.7053 24.2287 35.4389 23.839C35.1722 23.4494 35.0429 22.949 35.0513 22.3379C35.0513 21.7268 35.1971 21.2087 35.4888 20.7836C35.7888 20.3497 36.193 20.022 36.7011 19.8006C37.2178 19.5792 37.7967 19.4684 38.4382 19.4684C39.5213 19.4684 40.3797 19.7341 41.0128 20.2655C41.6544 20.7969 41.9918 21.5452 42.0252 22.5106H39.038C39.0299 22.2449 38.9673 22.0545 38.8508 21.9394C38.7339 21.8242 38.5925 21.7667 38.4257 21.7667C38.3092 21.7667 38.2132 21.8109 38.1385 21.8995C38.0634 21.9792 38.026 22.0944 38.026 22.2449C38.026 22.4574 38.1341 22.6346 38.3506 22.7763C38.5756 22.9091 38.9299 23.073 39.4132 23.2678C39.9712 23.4892 40.4296 23.7018 40.7879 23.9055C41.1546 24.1091 41.4712 24.3925 41.7376 24.7557C42.0043 25.1187 42.1377 25.5749 42.1377 26.124C42.1377 26.6996 42.0043 27.2177 41.7376 27.6782C41.4712 28.1299 41.0836 28.4841 40.5754 28.741C40.0672 28.9978 39.463 29.1262 38.7632 29.1262Z" fill="#1D3D6B"/>
</svg>
