<svg width="24" height="20" viewBox="0 0 24 20" fill="none" xmlns="http://www.w3.org/2000/svg">
  <path d="M16.5918 19V17C16.5918 15.9391 16.1704 14.9217 15.4202 14.1716C14.6701 13.4214 13.6527 13 12.5918 13H4.5918C3.53093 13 2.51352 13.4214 1.76337 14.1716C1.01322 14.9217 0.591797 15.9391 0.591797 17V19M22.5918 19V17C22.5911 16.1137 22.2962 15.2528 21.7532 14.5523C21.2102 13.8519 20.4499 13.3516 19.5918 13.13M15.5918 1.13C16.4522 1.3503 17.2148 1.8507 17.7594 2.55231C18.304 3.25392 18.5996 4.11683 18.5996 5.005C18.5996 5.89317 18.304 6.75608 17.7594 7.45769C17.2148 8.1593 16.4522 8.6597 15.5918 8.88M12.5918 5C12.5918 7.20914 10.8009 9 8.5918 9C6.38266 9 4.5918 7.20914 4.5918 5C4.5918 2.79086 6.38266 1 8.5918 1C10.8009 1 12.5918 2.79086 12.5918 5Z" stroke="#050C15" strokeLinecap="round" strokeLinejoin="round" />
</svg>
