<svg width="18" height="18" viewBox="0 0 18 18" fill="none" xmlns="http://www.w3.org/2000/svg">
  <path d="M9 1.62165C11.4031 1.62165 11.6878 1.6308 12.6367 1.67408C13.5142 1.71413 13.9908 1.86075 14.308 1.98398C14.7281 2.14725 15.0278 2.34225 15.3428 2.65717C15.6578 2.97217 15.8527 3.27195 16.016 3.69202C16.1392 4.0092 16.2859 4.48575 16.3259 5.36325C16.3692 6.31223 16.3784 6.59693 16.3784 8.99992C16.3784 11.4031 16.3692 11.6877 16.3259 12.6367C16.2859 13.5142 16.1392 13.9908 16.016 14.3079C15.8527 14.728 15.6578 15.0278 15.3428 15.3427C15.0278 15.6577 14.7281 15.8527 14.308 16.0159C13.9908 16.1392 13.5142 16.2859 12.6367 16.3258C11.6879 16.3691 11.4033 16.3783 9 16.3783C6.5967 16.3783 6.31215 16.3691 5.36325 16.3258C4.48575 16.2859 4.0092 16.1392 3.6921 16.0159C3.27195 15.8527 2.97217 15.6577 2.65725 15.3427C2.34232 15.0278 2.14725 14.728 1.98398 14.3079C1.86075 13.9908 1.71413 13.5142 1.67408 12.6367C1.6308 11.6877 1.62165 11.4031 1.62165 8.99992C1.62165 6.59693 1.6308 6.31223 1.67408 5.36325C1.71413 4.48575 1.86075 4.0092 1.98398 3.69202C2.14725 3.27195 2.34225 2.97217 2.65725 2.65725C2.97217 2.34225 3.27195 2.14725 3.6921 1.98398C4.0092 1.86075 4.48575 1.71413 5.36325 1.67408C6.31223 1.6308 6.59693 1.62165 9 1.62165ZM9 0C6.55575 0 6.2493 0.0103506 5.2893 0.0541506C4.3314 0.0978756 3.6771 0.250051 3.1047 0.472501C2.5128 0.702451 2.0109 1.01025 1.51057 1.51057C1.01025 2.0109 0.702451 2.5128 0.472501 3.10462C0.250051 3.6771 0.0978756 4.3314 0.0541506 5.2893C0.0103506 6.24922 0 6.55575 0 8.99992C0 11.4443 0.0103506 11.7507 0.0541506 12.7106C0.0978756 13.6686 0.250051 14.3228 0.472501 14.8953C0.702451 15.4871 1.01025 15.989 1.51057 16.4894C2.0109 16.9897 2.5128 17.2975 3.1047 17.5274C3.6771 17.7499 4.3314 17.9021 5.2893 17.9458C6.2493 17.9896 6.55575 17.9999 9 17.9999C11.4443 17.9999 11.7508 17.9896 12.7107 17.9458C13.6687 17.9021 14.3229 17.7499 14.8954 17.5274C15.4872 17.2975 15.9891 16.9897 16.4894 16.4894C16.9898 15.989 17.2975 15.4871 17.5276 14.8953C17.75 14.3228 17.9021 13.6686 17.9459 12.7106C17.9896 11.7507 18 11.4443 18 8.99992C18 6.55575 17.9896 6.24922 17.9459 5.2893C17.9021 4.3314 17.75 3.6771 17.5276 3.10462C17.2975 2.5128 16.9898 2.0109 16.4894 1.51057C15.9891 1.01025 15.4872 0.702451 14.8954 0.472501C14.3229 0.250051 13.6687 0.0978756 12.7107 0.0541506C11.7508 0.0103506 11.4443 0 9 0Z" fill="#E43B46" />
  <path d="M9.00446 4.38281C6.45199 4.38281 4.38281 6.45199 4.38281 9.00439C4.38281 11.5569 6.45199 13.626 9.00446 13.626C11.5569 13.626 13.626 11.5569 13.626 9.00439C13.626 6.45199 11.5569 4.38281 9.00446 4.38281ZM9.00446 12.0044C7.34756 12.0044 6.00446 10.6613 6.00446 9.00439C6.00446 7.34756 7.34756 6.00446 9.00446 6.00446C10.6613 6.00446 12.0045 7.34756 12.0045 9.00439C12.0045 10.6613 10.6613 12.0044 9.00446 12.0044Z" fill="#E43B46" />
  <path d="M14.888 4.19726C14.888 4.79366 14.4045 5.27718 13.808 5.27718C13.2116 5.27718 12.728 4.79366 12.728 4.19726C12.728 3.60079 13.2116 3.11719 13.808 3.11719C14.4045 3.11719 14.888 3.60079 14.888 4.19726Z" fill="#E43B46" />
</svg>
