<svg width="16" height="16" viewBox="0 0 16 16" fill="none" xmlns="http://www.w3.org/2000/svg">
  <path d="M8.00217 4.14844C5.87524 4.14844 4.15332 5.87223 4.15332 7.99729C4.15332 10.1242 5.87711 11.8461 8.00217 11.8461C10.1291 11.8461 11.851 10.1223 11.851 7.99729C11.851 5.87036 10.1272 4.14844 8.00217 4.14844ZM8.00217 10.4955C6.62151 10.4955 5.50398 9.37732 5.50398 7.99729C5.50398 6.61725 6.62213 5.4991 8.00217 5.4991C9.3822 5.4991 10.5004 6.61725 10.5004 7.99729C10.501 9.37732 9.38283 10.4955 8.00217 10.4955Z" fill="#E43B46" />
  <path d="M11.0924 0.547118C9.71239 0.482741 6.29417 0.485866 4.91289 0.547118C3.69911 0.603994 2.62846 0.897127 1.76531 1.76027C0.322774 3.20281 0.507154 5.14661 0.507154 7.99731C0.507154 10.9149 0.34465 12.8137 1.76531 14.2343C3.21347 15.6819 5.1854 15.4925 8.00234 15.4925C10.8924 15.4925 11.8899 15.4944 12.9118 15.0987C14.3013 14.5593 15.35 13.3174 15.4525 11.0868C15.5175 9.7061 15.5138 6.28851 15.4525 4.90723C15.3288 2.27404 13.9156 0.677121 11.0924 0.547118ZM13.2769 13.2799C12.3312 14.2256 11.0193 14.1412 7.98422 14.1412C4.85914 14.1412 3.60598 14.1875 2.69158 13.2706C1.63843 12.2224 1.82906 10.5392 1.82906 7.98731C1.82906 4.53409 1.47468 2.04716 4.94039 1.86965C5.73666 1.84153 5.97104 1.83215 7.97547 1.83215L8.00359 1.8509C11.3343 1.8509 13.9475 1.50214 14.1044 4.96723C14.14 5.75787 14.1481 5.99538 14.1481 7.99668C14.1475 11.0855 14.2062 12.3462 13.2769 13.2799Z" fill="#E43B46" />
  <path d="M12.0039 4.89645C12.5006 4.89645 12.9033 4.49377 12.9033 3.99705C12.9033 3.50033 12.5006 3.09766 12.0039 3.09766C11.5072 3.09766 11.1045 3.50033 11.1045 3.99705C11.1045 4.49377 11.5072 4.89645 12.0039 4.89645Z" fill="#E43B46" />
</svg>
