<svg width="20" height="20" viewBox="0 0 20 20" fill="none" xmlns="http://www.w3.org/2000/svg">
  <path d="M3.42868 7.28575V4.42861C3.42868 3.4814 3.80495 2.573 4.47472 1.90322C5.1445 1.23345 6.0529 0.857178 7.0001 0.857178C7.94731 0.857178 8.85571 1.23345 9.52549 1.90322C10.1953 2.573 10.5715 3.4814 10.5715 4.42861V7.28575M2.0001 7.28575H12.0001C12.7891 7.28575 13.4287 7.92534 13.4287 8.71432V13.7143C13.4287 14.5033 12.7891 15.1429 12.0001 15.1429H2.0001C1.21113 15.1429 0.571533 14.5033 0.571533 13.7143V8.71432C0.571533 7.92534 1.21113 7.28575 2.0001 7.28575Z" stroke="#E31A1A" strokeLinecap="round" strokeLinejoin="round" />
</svg>
