<svg width="24" height="25" viewBox="0 0 24 25" fill="none" xmlns="http://www.w3.org/2000/svg">
  <rect y="0.5625" width="24" height="24" rx="12" fill="white" />
  <path d="M6.89056 18.5354V17.708C6.89056 17.3908 6.69783 17.184 6.36747 17.184C6.20233 17.184 6.02339 17.2391 5.8995 17.4184C5.80319 17.2667 5.66557 17.184 5.45911 17.184C5.32142 17.184 5.18386 17.2253 5.0737 17.377V17.2115H4.78467V18.5354H5.0737V17.8045C5.0737 17.5701 5.1976 17.4597 5.39033 17.4597C5.58294 17.4597 5.67937 17.5839 5.67937 17.8045V18.5354H5.9684V17.8045C5.9684 17.5701 6.10596 17.4597 6.2849 17.4597C6.47763 17.4597 6.57394 17.5839 6.57394 17.8045V18.5354H6.89056ZM11.171 17.2115H10.7031V16.8116H10.4141V17.2115H10.1525V17.4735H10.414V18.0803C10.414 18.3837 10.5379 18.563 10.8682 18.563C10.9921 18.563 11.1297 18.5216 11.2261 18.4665L11.1435 18.2182C11.0609 18.2734 10.9646 18.2872 10.8958 18.2872C10.7581 18.2872 10.7031 18.2045 10.7031 18.0665V17.4735H11.171V17.2115ZM13.621 17.1839C13.4558 17.1839 13.3457 17.2667 13.2769 17.377V17.2115H12.9879V18.5354H13.2769V17.7907C13.2769 17.5701 13.3732 17.446 13.5521 17.446C13.6072 17.446 13.676 17.4598 13.7311 17.4736L13.8137 17.1978C13.7586 17.184 13.676 17.184 13.621 17.184V17.1839ZM9.91855 17.3218C9.78087 17.2253 9.5882 17.184 9.38173 17.184C9.05144 17.184 8.83125 17.3494 8.83125 17.6114C8.83125 17.8321 8.99639 17.9562 9.28543 17.9976L9.42305 18.0114C9.57447 18.0389 9.65704 18.0803 9.65704 18.1493C9.65704 18.2458 9.54694 18.3148 9.35421 18.3148C9.16154 18.3148 9.01012 18.2458 8.91376 18.1769L8.77613 18.3975C8.92755 18.5078 9.13401 18.563 9.34042 18.563C9.72582 18.563 9.94608 18.3837 9.94608 18.1355C9.94608 17.901 9.76714 17.7769 9.49183 17.7356L9.35421 17.7218C9.23032 17.7079 9.13401 17.6804 9.13401 17.5977C9.13401 17.5011 9.23032 17.446 9.38173 17.446C9.54694 17.446 9.71209 17.5149 9.79466 17.5563L9.91855 17.3218ZM17.5987 17.184C17.4335 17.184 17.3234 17.2667 17.2546 17.377V17.2115H16.9655V18.5354H17.2546V17.7907C17.2546 17.5701 17.3509 17.446 17.5298 17.446C17.5849 17.446 17.6538 17.4598 17.7088 17.4736L17.7914 17.1978C17.7363 17.184 17.6538 17.184 17.5987 17.184ZM13.91 17.8735C13.91 18.2734 14.1853 18.563 14.612 18.563C14.8047 18.563 14.9423 18.5216 15.0799 18.4113L14.9423 18.1769C14.8322 18.2596 14.7221 18.3009 14.5982 18.3009C14.3642 18.3009 14.1991 18.1355 14.1991 17.8735C14.1991 17.6253 14.3642 17.4597 14.5982 17.446C14.7221 17.446 14.8322 17.4873 14.9423 17.5701L15.0799 17.3357C14.9423 17.2253 14.8047 17.184 14.612 17.184C14.1853 17.184 13.91 17.4736 13.91 17.8735ZM16.5802 17.8735V17.2115H16.2912V17.377C16.1948 17.2529 16.0572 17.184 15.8782 17.184C15.5066 17.184 15.2176 17.4736 15.2176 17.8735C15.2176 18.2734 15.5066 18.563 15.8782 18.563C16.0709 18.563 16.2086 18.494 16.2912 18.3699V18.5354H16.5802V17.8735ZM15.5203 17.8735C15.5203 17.639 15.6718 17.446 15.9195 17.446C16.1535 17.446 16.3187 17.6253 16.3187 17.8735C16.3187 18.1079 16.1535 18.3009 15.9195 18.3009C15.6718 18.2871 15.5203 18.1079 15.5203 17.8735ZM12.0657 17.184C11.6803 17.184 11.405 17.4597 11.405 17.8735C11.405 18.2872 11.6802 18.563 12.0794 18.563C12.2721 18.563 12.4648 18.5078 12.6162 18.3837L12.4786 18.1769C12.3685 18.2596 12.2308 18.3148 12.0932 18.3148C11.9143 18.3148 11.7353 18.232 11.694 17.9975H12.6713V17.8873C12.6851 17.4597 12.4373 17.184 12.0656 17.184H12.0657ZM12.0657 17.4322C12.2446 17.4322 12.3685 17.5425 12.396 17.7494H11.7078C11.7353 17.5701 11.8592 17.4322 12.0657 17.4322ZM19.2366 17.8735V16.6875H18.9475V17.377C18.8512 17.2529 18.7135 17.184 18.5346 17.184C18.163 17.184 17.874 17.4736 17.874 17.8735C17.874 18.2734 18.163 18.563 18.5346 18.563C18.7273 18.563 18.865 18.494 18.9475 18.3699V18.5354H19.2366V17.8735ZM18.1768 17.8735C18.1768 17.639 18.3281 17.446 18.5759 17.446C18.8099 17.446 18.9751 17.6253 18.9751 17.8735C18.9751 18.1079 18.8099 18.3009 18.5759 18.3009C18.3281 18.2871 18.1768 18.1079 18.1768 17.8735ZM8.51462 17.8735V17.2115H8.22559V17.377C8.12922 17.2529 7.9916 17.184 7.81266 17.184C7.44105 17.184 7.15201 17.4736 7.15201 17.8735C7.15201 18.2734 7.44105 18.563 7.81266 18.563C8.00539 18.563 8.14301 18.494 8.22559 18.3699V18.5354H8.51462V17.8735ZM7.44105 17.8735C7.44105 17.639 7.59246 17.446 7.84018 17.446C8.07417 17.446 8.23938 17.6253 8.23938 17.8735C8.23938 18.1079 8.07417 18.3009 7.84018 18.3009C7.59246 18.2871 7.44105 18.1079 7.44105 17.8735Z" fill="black" />
  <path d="M9.82227 7.1582H14.1578V14.9635H9.82227V7.1582Z" fill="#FF5F00" />
  <path d="M10.0975 11.0612C10.0975 9.47533 10.8408 8.06869 11.9831 7.15851C11.1436 6.49659 10.0838 6.09668 8.92766 6.09668C6.18858 6.09668 3.97266 8.31689 3.97266 11.0612C3.97266 13.8054 6.18858 16.0257 8.9276 16.0257C10.0837 16.0257 11.1435 15.6258 11.9831 14.9638C10.8408 14.0675 10.0975 12.6471 10.0975 11.0612Z" fill="#EB001B" />
  <path d="M20.0075 11.0612C20.0075 13.8054 17.7916 16.0257 15.0526 16.0257C13.8964 16.0257 12.8367 15.6258 11.9971 14.9638C13.1532 14.0537 13.8827 12.6471 13.8827 11.0612C13.8827 9.47533 13.1394 8.06869 11.9971 7.15851C12.8366 6.49659 13.8964 6.09668 15.0526 6.09668C17.7916 6.09668 20.0076 8.33071 20.0076 11.0612H20.0075Z" fill="#F79E1B" />
</svg>
