<svg width="137" height="36" viewBox="0 0 137 36" fill="none" xmlns="http://www.w3.org/2000/svg">
  <path d="M24.7487 10.0407L28.3135 5.58985C28.1718 5.40353 24.7082 0.704295 18.814 0.704295C15.8973 0.704295 13.2439 1.94639 11.3805 4.22355C9.7601 6.19019 8.84863 8.79858 8.84863 11.3656C8.84863 13.9533 9.82087 16.603 11.5223 18.6111C13.5072 20.9504 16.2214 22.2546 19.1786 22.2546C23.108 22.2546 25.9437 20.2879 27.4831 18.5283L27.5033 18.5076C29.1642 16.4995 31.5341 13.5599 34.0457 10.4133C34.0457 10.3926 34.0862 10.3512 34.0862 10.3512L34.471 9.87506C34.9571 9.25401 35.4635 8.63297 35.9496 8.01192C36.0104 7.94982 36.0509 7.84631 36.1319 7.78421C38.0764 5.34143 39.9803 2.94006 41.6007 0.91131C40.9121 0.7664 40.1829 0.683594 39.4537 0.683594C36.7193 0.683594 34.228 1.80147 32.3848 3.6025C32.3848 3.6025 32.3848 3.6025 32.3645 3.62321C31.9797 3.99583 31.6353 4.38916 31.3113 4.82389C27.3008 9.44033 26.6526 11.3656 23.7765 14.3259C23.6347 14.4708 23.4929 14.595 23.3511 14.7399C23.1891 14.8848 23.0473 15.0504 22.865 15.216C22.1358 15.8578 20.9205 16.5616 19.1989 16.5616C16.1201 16.5616 14.439 13.5392 14.439 11.3656C14.439 9.29541 15.796 6.39721 18.8343 6.39721C21.8928 6.39721 23.7967 8.88139 23.8777 8.98489L23.8575 8.96419L24.7487 10.0407Z" fill="#E43B46" />
  <path d="M61.4704 9.46006L51.2822 0.786133V21.4048H56.8523V13.1242L67.0405 22.1087V1.36577H61.4704V9.46006Z" fill="#E43B46" />
  <path d="M84.7417 1.36577H79.1716V9.46006L68.9834 0.786133V21.4048H74.5535V13.1242L84.7417 22.1087V1.36577Z" fill="#E43B46" />
  <path d="M86.687 21.4062H97.4423V15.7133H92.2571V14.2642H97.4423V8.59201H92.2571V7.22571H97.4423V1.36719H86.687V21.4062Z" fill="#E43B46" />
  <path d="M114.68 8.98588L114.658 8.96387L114.68 8.98588Z" fill="#E43B46" />
  <path d="M114.54 14.2646L114.518 14.2867C114.518 14.2867 114.54 14.2867 114.54 14.2646Z" fill="#E43B46" />
  <path d="M109.635 0.704102C106.719 0.704102 104.065 1.94619 102.202 4.22335C100.581 6.19 99.6699 8.79838 99.6699 11.3654C99.6699 13.9531 100.642 16.6028 102.344 18.6109C104.329 20.9502 107.043 22.2544 110 22.2544C114.962 22.2544 118.163 19.1284 119.256 17.2446L114.517 14.305C114.334 14.5741 112.876 16.5821 110 16.5821C106.921 16.5821 105.24 13.5597 105.24 11.3861C105.24 9.31592 106.597 6.41771 109.635 6.41771C112.572 6.41771 114.436 8.69488 114.659 8.964L119.135 5.61035C118.993 5.40334 115.529 0.704102 109.635 0.704102Z" fill="#E43B46" />
  <path d="M121.222 7.18431H125.942V21.4062H131.613V7.18431H136.575V1.36719H121.222V7.18431Z" fill="#E43B46" />
  <path d="M4.84653 7.52341C6.6646 7.08464 7.79042 5.22262 7.36112 3.36446C6.93183 1.5063 5.10998 0.35565 3.29191 0.794414C1.47384 1.23318 0.348015 3.0952 0.777312 4.95336C1.20661 6.81153 3.02846 7.96217 4.84653 7.52341Z" fill="#173D6A" />
  <path d="M6.9028 8.15625C6.11286 8.75659 5.12038 9.10852 4.06712 9.10852C3.01387 9.10852 2.02138 8.75659 1.23145 8.15625V21.4052H6.9028V8.15625Z" fill="#173D6A" />
  <path d="M43.1996 1.53223L39.2904 6.39708C39.3309 6.39708 39.3714 6.37638 39.4322 6.37638C42.1261 6.37638 44.3339 8.79845 44.3339 11.5518C44.3339 14.305 42.1261 16.5615 39.4322 16.5615C36.9814 16.5615 34.9356 14.6777 34.6115 12.2349L30.6011 17.224C32.4443 20.2257 35.7053 22.2337 39.4322 22.2337C45.2251 22.2337 49.9039 17.431 49.9039 11.531C49.9039 7.03882 47.1088 3.14694 43.1996 1.53223Z" fill="#E43B46" />
  <path d="M1.81884 27.8018H1.23145V32.3768H1.81884V27.8018Z" fill="#808285" />
  <path d="M5.81064 32.3987V30.2665C5.81064 29.2314 5.18274 28.7139 4.37254 28.7139C3.88642 28.7139 3.48133 28.9209 3.23827 29.2935V28.776H2.65088V32.378H3.23827V30.3907C3.23827 29.6247 3.64337 29.2314 4.25101 29.2314C4.8384 29.2314 5.2435 29.604 5.2435 30.3493V32.378H5.81064V32.3987Z" fill="#808285" />
  <path d="M9.31298 27.5332H8.72559V32.3981H9.31298V27.5332Z" fill="#808285" />
  <path d="M7.99752 27.865V27.3682C7.10631 27.3682 6.70121 27.7201 6.70121 28.5274V28.7759H6.23535V29.2727H6.70121V32.3779H7.2886V29.2727H8.03803V28.7759H7.2886V28.5274C7.30886 28.072 7.4709 27.865 7.99752 27.865Z" fill="#808285" />
  <path d="M13.262 32.398V28.7959H12.6746V30.7832C12.6746 31.5492 12.2696 31.9425 11.6619 31.9425C11.0745 31.9425 10.6694 31.5699 10.6694 30.8454V28.8166H10.082V30.9282C10.082 31.9632 10.7099 32.4808 11.5201 32.4808C11.986 32.4808 12.4113 32.2738 12.6544 31.9011V32.4394H13.262V32.398Z" fill="#808285" />
  <path d="M17.3144 30.4536C17.3144 29.4599 16.646 28.7354 15.613 28.7354C14.58 28.7354 13.8711 29.4599 13.8711 30.5985C13.8711 31.7371 14.6205 32.4616 15.613 32.4616C16.484 32.4616 17.0511 31.9441 17.2334 31.2816H16.6055C16.484 31.675 16.1396 31.9441 15.613 31.9441C15.0054 31.9441 14.5192 31.5508 14.4585 30.8055H17.2942C17.3144 30.6813 17.3144 30.5778 17.3144 30.4536ZM14.4787 30.3294C14.5395 29.6255 15.0256 29.2322 15.5928 29.2322C16.2004 29.2322 16.7068 29.6255 16.7068 30.3294H14.4787Z" fill="#808285" />
  <path d="M21.0816 32.3987V30.2665C21.0816 29.2314 20.4537 28.7139 19.6435 28.7139C19.1574 28.7139 18.7523 28.9209 18.5093 29.2935V28.776H17.9219V32.378H18.5093V30.3907C18.5093 29.6247 18.9144 29.2314 19.522 29.2314C20.1094 29.2314 20.5145 29.604 20.5145 30.3493V32.378H21.0816V32.3987Z" fill="#808285" />
  <path d="M23.3721 29.2314C23.8987 29.2314 24.243 29.5005 24.3645 29.9353H24.9924C24.8102 29.1693 24.243 28.7139 23.3721 28.7139C22.3593 28.7139 21.6504 29.4384 21.6504 30.577C21.6504 31.7156 22.3593 32.4401 23.3721 32.4401C24.243 32.4401 24.8102 31.9433 24.9924 31.2187H24.3848C24.2633 31.6742 23.9189 31.9226 23.3923 31.9226C22.7442 31.9226 22.2783 31.4465 22.2783 30.5563C22.258 29.7075 22.7442 29.2314 23.3721 29.2314Z" fill="#808285" />
  <path d="M28.8388 30.4536C28.8388 29.4599 28.1704 28.7354 27.1374 28.7354C26.1044 28.7354 25.3955 29.4599 25.3955 30.5985C25.3955 31.7371 26.1449 32.4616 27.1374 32.4616C28.0084 32.4616 28.5755 31.9441 28.7578 31.2816H28.1299C28.0084 31.675 27.6641 31.9441 27.1374 31.9441C26.5298 31.9441 26.0437 31.5508 25.9829 30.8055H28.7983C28.8388 30.6813 28.8388 30.5778 28.8388 30.4536ZM26.0032 30.3294C26.0639 29.6255 26.55 29.2322 27.1172 29.2322C27.7248 29.2322 28.2312 29.6255 28.2312 30.3294H26.0032Z" fill="#808285" />
  <path d="M29.4463 28.7967V32.3987H30.0337V30.4321C30.0337 29.604 30.459 29.3349 31.0262 29.3349H31.1882V28.7139C30.6211 28.7139 30.2565 28.9623 30.0539 29.3556V28.776H29.4463V28.7967Z" fill="#808285" />
  <path d="M37.7929 32.3981V27.8438H37.1853L35.5244 31.5907L33.8838 27.8438H33.2559V32.3981H33.8432V28.9823L35.3218 32.3981H35.7269L37.2055 29.003V32.3981H37.7929Z" fill="#808285" />
  <path d="M41.9845 32.3995V28.7975H41.3971V29.4599C41.1946 29.0873 40.749 28.7354 40.0806 28.7354C39.1286 28.7354 38.3994 29.4599 38.3994 30.5778C38.3994 31.6957 39.1286 32.4616 40.0603 32.4616C40.7085 32.4616 41.1743 32.1097 41.3769 31.7371V32.3995H41.9845ZM40.2021 31.9234C39.5539 31.9234 39.0071 31.4265 39.0071 30.5778C39.0071 29.729 39.5539 29.2529 40.2021 29.2529C40.8502 29.2529 41.3971 29.7497 41.3971 30.5778C41.3971 31.4265 40.8502 31.9234 40.2021 31.9234Z" fill="#808285" />
  <path d="M42.8149 28.7967V32.3987H43.4023V30.4321C43.4023 29.604 43.8277 29.3349 44.3948 29.3349H44.5569V28.7139C43.9897 28.7139 43.6251 28.9623 43.4226 29.3556V28.776H42.8149V28.7967Z" fill="#808285" />
  <path d="M45.0635 27.5332V32.3981H45.6509V30.804L47.0282 32.3981H47.8181L46.1572 30.5763L47.8181 28.796H47.0079L45.6509 30.39V27.5332H45.0635Z" fill="#808285" />
  <path d="M49.7419 28.7354C48.7089 28.7354 48 29.4599 48 30.5985C48 31.7371 48.7494 32.4616 49.7419 32.4616C50.6129 32.4616 51.18 31.9441 51.3623 31.2816H50.7344C50.6129 31.675 50.2685 31.9441 49.7419 31.9441C49.1343 31.9441 48.6482 31.5508 48.5874 30.8055H51.4028C51.4231 30.6813 51.4231 30.5778 51.4231 30.4536C51.4231 29.4599 50.7546 28.7354 49.7419 28.7354ZM48.5874 30.3294C48.6482 29.6255 49.1343 29.2322 49.7014 29.2322C50.309 29.2322 50.8154 29.6255 50.8154 30.3294H48.5874Z" fill="#808285" />
  <path d="M53.6722 29.2729V28.7761H52.7608V27.8652H52.1734V28.7761H51.7075V29.2729H52.1734V31.4052C52.1734 32.1297 52.5177 32.3989 53.1456 32.3989H53.6722V31.902H53.2469C52.8823 31.902 52.7608 31.7778 52.7608 31.4259V29.2729H53.6722Z" fill="#808285" />
  <path d="M54.8061 28.7959H54.2188V32.398H54.8061V28.7959Z" fill="#808285" />
  <path d="M54.5238 27.3896C54.3009 27.3896 54.1187 27.576 54.1187 27.8037C54.1187 28.0314 54.3009 28.2177 54.5238 28.2177C54.7263 28.2177 54.9086 28.0314 54.9086 27.8037C54.9086 27.5553 54.7263 27.3896 54.5238 27.3896Z" fill="#808285" />
  <path d="M58.7955 32.3987V30.2665C58.7955 29.2314 58.1676 28.7139 57.3574 28.7139C56.8713 28.7139 56.4662 28.9209 56.2231 29.2935V28.776H55.6357V32.378H56.2231V30.3907C56.2231 29.6247 56.6282 29.2314 57.2359 29.2314C57.8233 29.2314 58.2284 29.604 58.2284 30.3493V32.378H58.7955V32.3987Z" fill="#808285" />
  <path d="M61.2675 33.6408C60.6801 33.6408 60.275 33.351 60.1332 32.9163H59.5458C59.6673 33.6822 60.3155 34.1584 61.2472 34.1584C62.2802 34.1584 62.9284 33.4545 62.9284 32.4608V28.776H62.341V29.4384C62.1384 29.0451 61.6726 28.7139 61.0244 28.7139C60.0724 28.7139 59.3433 29.4384 59.3433 30.5563C59.3433 31.6742 60.0724 32.4401 61.0244 32.4401C61.6726 32.4401 62.1182 32.0882 62.341 31.6949V32.4608C62.3612 33.2475 61.8954 33.6408 61.2675 33.6408ZM61.1662 31.9226C60.518 31.9226 59.9712 31.4258 59.9712 30.577C59.9712 29.7282 60.518 29.2521 61.1662 29.2521C61.8144 29.2521 62.3612 29.7489 62.3612 30.577C62.3612 31.4258 61.8144 31.9226 61.1662 31.9226Z" fill="#808285" />
  <path d="M65.3384 27.8018V32.3768H65.9258V30.4723H66.7967C67.9107 30.4723 68.3563 29.8512 68.3563 29.1474C68.3563 28.4021 67.8702 27.8018 66.7967 27.8018H65.3384ZM67.7487 29.1474C67.7487 29.6649 67.4651 29.9754 66.7967 29.9754H65.9258V28.2986H66.7967C67.4651 28.2986 67.7487 28.6091 67.7487 29.1474Z" fill="#808285" />
  <path d="M69.4897 27.5332H68.9023V32.3981H69.4897V27.5332Z" fill="#808285" />
  <path d="M73.6832 32.3995V28.7975H73.0959V29.4599C72.8933 29.0873 72.4477 28.7354 71.7793 28.7354C70.8273 28.7354 70.0981 29.4599 70.0981 30.5778C70.0981 31.6957 70.8273 32.4616 71.759 32.4616C72.4072 32.4616 72.8731 32.1097 73.0756 31.7371V32.3995H73.6832ZM71.9008 31.9234C71.2527 31.9234 70.7058 31.4265 70.7058 30.5778C70.7058 29.729 71.2527 29.2529 71.9008 29.2529C72.549 29.2529 73.0959 29.7497 73.0959 30.5778C73.0959 31.4265 72.549 31.9234 71.9008 31.9234Z" fill="#808285" />
  <path d="M76.1542 29.2729V28.7761H75.2427V27.8652H74.6553V28.7761H74.1895V29.2729H74.6553V31.4052C74.6553 32.1297 74.9996 32.3989 75.6275 32.3989H76.1542V31.902H75.7288C75.3642 31.902 75.2427 31.7778 75.2427 31.4259V29.2729H76.1542Z" fill="#808285" />
  <path d="M77.3912 32.3994V29.2942H78.1406V28.7974H77.3912V28.5489C77.3912 28.0728 77.5734 27.8865 78.1001 27.8865V27.3896C77.2089 27.3896 76.8038 27.7416 76.8038 28.5489V28.7974H76.3379V29.2942H76.8038V32.3994H77.3912Z" fill="#808285" />
  <path d="M78.4424 30.577C78.4424 31.7156 79.1918 32.4401 80.2046 32.4401C81.2173 32.4401 82.0072 31.7156 82.0072 30.577C82.0072 29.4384 81.2376 28.7139 80.2248 28.7139C79.2121 28.7346 78.4424 29.4384 78.4424 30.577ZM81.3996 30.577C81.3996 31.4879 80.7919 31.9226 80.1843 31.9226C79.5767 31.9226 79.0298 31.4879 79.0298 30.577C79.0298 29.6661 79.5969 29.2521 80.2046 29.2521C80.8122 29.2521 81.3996 29.6661 81.3996 30.577Z" fill="#808285" />
  <path d="M82.6147 28.7967V32.3987H83.2021V30.4321C83.2021 29.604 83.6275 29.3349 84.1946 29.3349H84.3567V28.7139C83.7895 28.7139 83.4249 28.9623 83.2224 29.3556V28.776H82.6147V28.7967Z" fill="#808285" />
  <path d="M84.8447 28.7967V32.3987H85.4321V30.4114C85.4321 29.6454 85.8372 29.2521 86.4246 29.2521C87.012 29.2521 87.3968 29.6247 87.3968 30.37V32.3987H87.9842V30.4114C87.9842 29.6454 88.3893 29.2521 88.9767 29.2521C89.5641 29.2521 89.949 29.6247 89.949 30.37V32.3987H90.5364V30.2665C90.5364 29.2314 89.9085 28.7139 89.0983 28.7139C88.5514 28.7139 88.0653 29.0037 87.8425 29.5212C87.6196 28.983 87.1335 28.7139 86.5461 28.7139C86.0803 28.7139 85.6549 28.9209 85.4321 29.2935V28.776H84.8447V28.7967Z" fill="#808285" />
  <path d="M92.7842 27.5332V32.3981H93.8779V31.8805C94.0805 32.2117 94.4653 32.4395 94.992 32.4395C95.8832 32.4395 96.5718 31.6942 96.5718 30.5556C96.5718 29.3963 95.8832 28.6718 94.992 28.6718C94.4856 28.6718 94.0805 28.9202 93.8779 29.2514V27.5332H92.7842ZM94.6679 29.6448C95.0932 29.6448 95.4578 29.9553 95.4578 30.5556C95.4578 31.156 95.0932 31.4665 94.6679 31.4665C94.2628 31.4665 93.8779 31.1353 93.8779 30.5556C93.8779 29.976 94.2425 29.6448 94.6679 29.6448Z" fill="#808285" />
  <path d="M98.6375 31.0117L97.8071 28.7139H96.5918L98.0502 32.2745L97.2197 34.1377H98.3945L100.663 28.7139H99.468L98.6375 31.0117Z" fill="#808285" />
  <path d="M107.812 28.4656H106.739V32.6473H107.934V30.3288C107.934 29.7698 108.379 29.5421 108.805 29.5214C108.947 29.5214 109.088 29.5421 109.21 29.5835L109.23 28.4449C109.068 28.4035 108.906 28.3828 108.764 28.3828C108.44 28.3828 108.136 28.4863 107.873 28.7554L107.812 28.4656Z" fill="#808285" />
  <path d="M113.931 32.6471V28.4654H112.736V28.9002C112.473 28.5482 112.088 28.4033 111.683 28.4033C110.366 28.4033 109.718 29.3349 109.698 30.4942C109.698 31.6535 110.366 32.7092 111.662 32.7092C112.047 32.7092 112.452 32.585 112.736 32.2331V32.6471H113.931ZM111.825 31.5292C111.217 31.5292 110.913 31.0117 110.913 30.5149C110.913 29.9973 111.217 29.5212 111.825 29.5212C112.331 29.5212 112.756 29.9766 112.756 30.5356C112.736 31.0945 112.331 31.5292 111.825 31.5292Z" fill="#808285" />
  <path d="M114.679 27.2012V32.6457H115.853V32.2316C116.137 32.5836 116.542 32.7078 116.927 32.7078C118.223 32.7078 118.892 31.652 118.892 30.4927C118.871 29.3541 118.244 28.4019 116.907 28.4019C116.502 28.4019 116.117 28.5261 115.833 28.8573V27.2012H114.679ZM116.785 29.5197C117.393 29.5197 117.697 29.9959 117.697 30.5134C117.697 31.0102 117.393 31.5278 116.785 31.5278C116.279 31.5278 115.853 31.0724 115.853 30.5341C115.853 29.9752 116.279 29.5197 116.785 29.5197Z" fill="#808285" />
  <path d="M132.443 32.6457V27.2012H131.269V28.8366C131.005 28.5261 130.621 28.3812 130.215 28.3812C128.899 28.3812 128.251 29.3127 128.23 30.472C128.23 31.6313 128.899 32.6871 130.195 32.6871C130.58 32.6871 130.985 32.5629 131.269 32.2109V32.625H132.443V32.6457ZM130.317 31.5278C129.709 31.5278 129.405 31.0102 129.405 30.5134C129.405 29.9959 129.709 29.5197 130.317 29.5197C130.823 29.5197 131.248 29.9752 131.248 30.5341C131.248 31.0931 130.843 31.5278 130.317 31.5278Z" fill="#808285" />
  <path d="M134.813 31.6322C134.55 31.6322 134.246 31.508 134.246 31.2388H133.051C133.071 32.2946 133.8 32.75 134.772 32.75C135.684 32.75 136.514 32.3981 136.514 31.3423C136.514 30.3487 135.643 29.976 134.793 29.9553C134.61 29.9553 134.307 29.9346 134.307 29.7276C134.307 29.4999 134.55 29.4378 134.732 29.4378C134.975 29.4378 135.299 29.4585 135.299 29.7897H136.433C136.433 28.8168 135.664 28.3613 134.793 28.3613C133.881 28.3613 133.112 28.7961 133.112 29.8104C133.112 30.7213 133.922 31.0318 134.691 31.0939C134.894 31.1146 135.34 31.0732 135.34 31.363C135.34 31.5287 135.117 31.6529 134.813 31.6322Z" fill="#808285" />
  <path d="M103.923 29.3553L104.328 30.5353V30.556L104.814 31.8602L105.118 32.6468H106.577L104.369 27.1816H103.457L101.331 32.6468H102.728L103.012 31.8602L103.478 30.6181L103.518 30.4939L103.923 29.3553Z" fill="#808285" />
  <path d="M125.435 29.3553L125.84 30.5353L125.86 30.556L126.346 31.8602L126.63 32.6468H128.088L125.901 27.1816H124.969L122.862 32.6468H124.24L124.523 31.8602L125.009 30.6181L125.05 30.4939L125.435 29.3553Z" fill="#808285" />
  <path d="M121.424 29.9751L122.072 31.6519L123.328 28.4639H122.032L121.424 29.9751Z" fill="#808285" />
  <path d="M120.391 28.4639H119.094L120.553 32.2315L119.094 35.9992H120.411L121.221 33.9084L121.869 32.2315L121.221 30.5547L120.391 28.4639Z" fill="#808285" />
</svg>
