<svg width="14" height="14" viewBox="0 0 14 14" fill="none" xmlns="http://www.w3.org/2000/svg">
  <path fillRule="evenodd" clipRule="evenodd" d="M8.50012 0.999977C8.36752 0.999977 8.24035 0.9473 8.14658 0.853534C8.05281 0.759768 8.00014 0.632594 8.00014 0.499989C8.00014 0.367383 8.05281 0.240209 8.14658 0.146443C8.24035 0.0526772 8.36752 0 8.50012 0H13.5C13.6326 0 13.7598 0.0526772 13.8536 0.146443C13.9473 0.240209 14 0.367383 14 0.499989V5.49987C14 5.63248 13.9473 5.75965 13.8536 5.85342C13.7598 5.94719 13.6326 5.99986 13.5 5.99986C13.3674 5.99986 13.2402 5.94719 13.1465 5.85342C13.0527 5.75965 13 5.63248 13 5.49987V1.70696L8.87112 5.83587C9.68291 6.82903 10.0819 8.09621 9.98568 9.37532C9.88941 10.6544 9.30523 11.8476 8.35394 12.7081C7.40265 13.5686 6.15704 14.0305 4.87471 13.9984C3.59239 13.9663 2.37146 13.4426 1.46443 12.5356C0.557411 11.6285 0.0336824 10.4076 0.00156878 9.12529C-0.0305448 7.84296 0.431413 6.59735 1.2919 5.64606C2.15238 4.69477 3.34557 4.11058 4.62468 4.01432C5.90379 3.91806 7.17096 4.31709 8.16413 5.12888L12.293 0.999977H8.50012ZM5.00021 4.99989C3.93936 4.99989 2.92197 5.4213 2.17184 6.17143C1.42171 6.92156 1.0003 7.93895 1.0003 8.99979C1.0003 10.0606 1.42171 11.078 2.17184 11.8282C2.92197 12.5783 3.93936 12.9997 5.00021 12.9997C6.06105 12.9997 7.07844 12.5783 7.82857 11.8282C8.5787 11.078 9.00011 10.0606 9.00011 8.99979C9.00011 7.93895 8.5787 6.92156 7.82857 6.17143C7.07844 5.4213 6.06105 4.99989 5.00021 4.99989Z" fill="#4286D6" />
</svg>
