<svg width="26" height="26" viewBox="0 0 26 26" fill="none" xmlns="http://www.w3.org/2000/svg">
<g clip-path="url(#clip0_11750_344717)">
<path d="M20.4666 0.200195H8.7333C8.30895 0.200195 7.90199 0.368766 7.60193 0.668824C7.30187 0.968883 7.1333 1.37585 7.1333 1.8002V8.20019H8.19997V1.8002C8.19997 1.65875 8.25616 1.52309 8.35618 1.42307C8.4562 1.32305 8.59185 1.26686 8.7333 1.26686H11.4C11.4 1.54976 11.5123 1.82107 11.7124 2.02111C11.9124 2.22115 12.1837 2.33353 12.4666 2.33353H16.7333C17.0162 2.33353 17.2875 2.22115 17.4875 2.02111C17.6876 1.82107 17.8 1.54976 17.8 1.26686H20.4666C20.6081 1.26686 20.7437 1.32305 20.8438 1.42307C20.9438 1.52309 21 1.65875 21 1.8002V22.6002H8.19997V19.9335H7.1333V24.2002C7.1333 24.6245 7.30187 25.0315 7.60193 25.3316C7.90199 25.6316 8.30895 25.8002 8.7333 25.8002H20.4666C20.891 25.8002 21.2979 25.6316 21.598 25.3316C21.8981 25.0315 22.0666 24.6245 22.0666 24.2002V1.8002C22.0666 1.37585 21.8981 0.968883 21.598 0.668824C21.2979 0.368766 20.891 0.200195 20.4666 0.200195V0.200195ZM15.6666 24.7335H13.5333C13.3919 24.7335 13.2562 24.6773 13.1562 24.5773C13.0562 24.4773 13 24.3416 13 24.2002C13 24.0587 13.0562 23.9231 13.1562 23.8231C13.2562 23.7231 13.3919 23.6669 13.5333 23.6669H15.6666C15.8081 23.6669 15.9437 23.7231 16.0438 23.8231C16.1438 23.9231 16.2 24.0587 16.2 24.2002C16.2 24.3416 16.1438 24.4773 16.0438 24.5773C15.9437 24.6773 15.8081 24.7335 15.6666 24.7335Z" fill="#E43B46"/>
<path d="M15.6667 13.5335V10.3335C16.091 10.3335 16.498 10.5021 16.7981 10.8021C17.0981 11.1022 17.2667 11.5091 17.2667 11.9335C17.2667 12.3578 17.0981 12.7648 16.7981 13.0649C16.498 13.3649 16.091 13.5335 15.6667 13.5335V13.5335Z" fill="#E43B46"/>
<path d="M15.3953 7.20838C13.6963 8.229 11.8105 8.8999 9.84863 9.18171C9.02729 9.29905 9.66196 9.26705 6.60063 9.26705C5.93932 9.26638 5.30136 9.51146 4.81058 9.95471C4.31981 10.398 4.01124 11.0078 3.94478 11.6657C3.87832 12.3237 4.05871 12.9829 4.45093 13.5153C4.84315 14.0477 5.41921 14.4154 6.06729 14.547V18.3337C6.06729 18.4752 6.12348 18.6108 6.2235 18.7108C6.32352 18.8109 6.45918 18.867 6.60063 18.867H9.26729C9.40874 18.867 9.5444 18.8109 9.64442 18.7108C9.74444 18.6108 9.80063 18.4752 9.80063 18.3337C9.80063 16.8564 9.90729 17.155 9.26729 16.515V14.6004C14.6806 15.3737 15.182 17.0857 15.9286 16.659C16.318 16.4404 16.2006 16.8297 16.2006 7.66171C16.1997 7.56803 16.1741 7.47625 16.1264 7.39561C16.0787 7.31497 16.0106 7.24832 15.9289 7.20236C15.8473 7.15641 15.755 7.13277 15.6613 7.13382C15.5676 7.13488 15.4759 7.16059 15.3953 7.20838V7.20838ZM5.00063 11.9337C5.00063 11.5094 5.1692 11.1024 5.46926 10.8023C5.76931 10.5023 6.17628 10.3337 6.60063 10.3337H8.73396V13.5337H6.60063C6.17628 13.5337 5.76931 13.3651 5.46926 13.0651C5.1692 12.765 5.00063 12.3581 5.00063 11.9337ZM8.73396 17.8004H7.13396V14.6004H8.20063C8.20063 17.3097 8.05663 16.8137 8.73396 17.4857V17.8004ZM15.134 15.2884C13.4689 14.4178 11.6636 13.8473 9.80063 13.603V10.2644C11.6636 10.0201 13.4689 9.44961 15.134 8.57905V15.2884Z" fill="#E43B46"/>
</g>
<defs>
<clipPath id="clip0_11750_344717">
<rect width="25.6" height="25.6" fill="white" transform="translate(0.200012 0.200195)"/>
</clipPath>
</defs>
</svg>
