<svg width="13" height="10" viewBox="0 0 13 10" fill="none" xmlns="http://www.w3.org/2000/svg">
  <path d="M4.71422 2.07143H12.1428V1.07143H4.71422V2.07143ZM4.71422 5.5H12.1428V4.5H4.71422V5.5ZM4.71422 8.92857H12.1428V7.92857H4.71422V8.92857ZM1.9285 1.57143C1.9285 1.61088 1.89652 1.64286 1.85707 1.64286V2.64286C2.44881 2.64286 2.9285 2.16316 2.9285 1.57143H1.9285ZM1.85707 1.64286C1.81762 1.64286 1.78564 1.61088 1.78564 1.57143H0.785645C0.785645 2.16316 1.26534 2.64286 1.85707 2.64286V1.64286ZM1.78564 1.57143C1.78564 1.53198 1.81762 1.5 1.85707 1.5V0.5C1.26534 0.5 0.785645 0.979695 0.785645 1.57143H1.78564ZM1.85707 1.5C1.89652 1.5 1.9285 1.53198 1.9285 1.57143H2.9285C2.9285 0.979695 2.44881 0.5 1.85707 0.5V1.5ZM1.9285 5C1.9285 5.03945 1.89652 5.07143 1.85707 5.07143V6.07143C2.44881 6.07143 2.9285 5.59173 2.9285 5H1.9285ZM1.85707 5.07143C1.81762 5.07143 1.78564 5.03945 1.78564 5H0.785645C0.785645 5.59173 1.26534 6.07143 1.85707 6.07143V5.07143ZM1.78564 5C1.78564 4.96055 1.81762 4.92857 1.85707 4.92857V3.92857C1.26534 3.92857 0.785645 4.40827 0.785645 5H1.78564ZM1.85707 4.92857C1.89652 4.92857 1.9285 4.96055 1.9285 5H2.9285C2.9285 4.40827 2.44881 3.92857 1.85707 3.92857V4.92857ZM1.9285 8.42857C1.9285 8.46802 1.89652 8.5 1.85707 8.5V9.5C2.44881 9.5 2.9285 9.02031 2.9285 8.42857H1.9285ZM1.85707 8.5C1.81762 8.5 1.78564 8.46802 1.78564 8.42857H0.785645C0.785645 9.02031 1.26534 9.5 1.85707 9.5V8.5ZM1.78564 8.42857C1.78564 8.38912 1.81762 8.35714 1.85707 8.35714V7.35714C1.26534 7.35714 0.785645 7.83684 0.785645 8.42857H1.78564ZM1.85707 8.35714C1.89652 8.35714 1.9285 8.38912 1.9285 8.42857H2.9285C2.9285 7.83684 2.44881 7.35714 1.85707 7.35714V8.35714Z" fill="#E43B46" />
</svg>
