<svg width="49" height="48" viewBox="0 0 49 48" fill="none" xmlns="http://www.w3.org/2000/svg">
  <g clipPath="url(#clip0)">
    <path d="M10.8998 29.5995H10.0998C5.2397 29.5995 1.2998 25.6596 1.2998 20.7995C1.2998 15.9394 5.2397 11.9995 10.0998 11.9995C10.5987 11.997 11.0967 12.0399 11.5878 12.1275C12.7295 9.7014 15.1248 8.11072 17.8038 7.99949C19.3781 3.12849 24.2629 0.127447 29.3195 0.924706C34.3761 1.72197 38.1006 6.08041 38.0998 11.1995C38.1157 11.4793 38.1157 11.7597 38.0998 12.0395C38.3718 12.0395 38.6598 11.9995 38.8998 11.9995C43.7599 11.9995 47.6998 15.9394 47.6998 20.7995C47.6998 25.6596 43.7599 29.5995 38.8998 29.5995H10.8998Z" fill="white" />
    <path d="M38.9008 11.9998C38.6208 11.9998 38.3328 11.9998 38.1008 12.0398C38.1167 11.76 38.1167 11.4796 38.1008 11.1998C38.1008 8.44155 37.0051 5.79627 35.0547 3.84589C33.1043 1.89552 30.459 0.799805 27.7008 0.799805C27.3025 0.80338 26.9046 0.827411 26.5088 0.871805C31.7489 1.48461 35.7 5.92397 35.7008 11.1998C35.7167 11.4796 35.7167 11.76 35.7008 12.0398C35.9728 12.0398 36.2608 11.9998 36.5008 11.9998C41.0386 12.0144 44.8213 15.4772 45.2357 19.9962C45.6501 24.5151 42.5603 28.6081 38.1008 29.4478V29.5998H38.9008C43.7609 29.5998 47.7008 25.6599 47.7008 20.7998C47.7008 15.9397 43.7609 11.9998 38.9008 11.9998Z" fill="#F0F2F4" />
    <path d="M33.1634 7.32019C32.9296 7.3202 32.7074 7.2179 32.5554 7.04019C31.3412 5.62063 29.5674 4.80241 27.6994 4.80019C27.2576 4.80019 26.8994 4.44202 26.8994 4.00019C26.8994 3.55837 27.2576 3.2002 27.6994 3.2002C30.0338 3.20038 32.2517 4.22019 33.7714 5.99219C33.9093 6.15344 33.9775 6.36287 33.961 6.57442C33.9445 6.78596 33.8447 6.98228 33.6834 7.12019C33.5396 7.24701 33.3551 7.31798 33.1634 7.32019Z" fill="white" />
    <path d="M24.5003 47.2008C32.895 47.2008 39.7003 40.3955 39.7003 32.0008C39.7003 23.6061 32.895 16.8008 24.5003 16.8008C16.1056 16.8008 9.30029 23.6061 9.30029 32.0008C9.30029 40.3955 16.1056 47.2008 24.5003 47.2008Z" fill="white" />
    <path d="M24.5018 16.8008C24.0938 16.8008 23.7018 16.8008 23.3018 16.8648C31.1235 17.5848 37.1084 24.1459 37.1084 32.0008C37.1084 39.8556 31.1235 46.4167 23.3018 47.1368C23.7018 47.1368 24.1018 47.2008 24.5018 47.2008C32.8965 47.2008 39.7018 40.3955 39.7018 32.0008C39.7018 23.6061 32.8965 16.8008 24.5018 16.8008Z" fill="#F0F2F4" />
    <path d="M26.7629 32.0006L32.0269 26.7286C32.5706 26.0938 32.534 25.1475 31.943 24.5565C31.352 23.9655 30.4057 23.929 29.7709 24.4726L24.4989 29.7366L19.2269 24.4726C18.5921 23.929 17.6458 23.9655 17.0548 24.5565C16.4638 25.1475 16.4273 26.0938 16.9709 26.7286L22.2349 32.0006L16.9709 37.2726C16.5143 37.6636 16.3155 38.2776 16.456 38.8621C16.5966 39.4466 17.053 39.9029 17.6375 40.0435C18.222 40.1841 18.8359 39.9852 19.2269 39.5286L24.4989 34.2646L29.7709 39.5286C30.4057 40.0722 31.352 40.0357 31.943 39.4447C32.534 38.8537 32.5706 37.9074 32.0269 37.2726L26.7629 32.0006Z" fill="white" />
    <path d="M9.23695 28.9682C5.53995 27.4907 3.29554 23.715 3.76398 19.7613C4.23243 15.8076 7.29703 12.661 11.237 12.0882C8.07215 11.7114 4.95095 13.0753 3.07745 15.6536C1.20395 18.232 0.871009 21.6219 2.20706 24.5155C3.54311 27.4091 6.33931 29.3541 9.51695 29.6003" fill="white" />
    <path d="M2.90006 14.4004L4.10006 15.4644C2.80686 16.9408 2.09585 18.8377 2.10006 20.8004H0.500064C0.491508 18.4455 1.34521 16.169 2.90006 14.4004Z" fill="white" />
    <path d="M32.5559 7.04019C32.7079 7.2179 32.93 7.3202 33.1639 7.32019C33.3556 7.31798 33.5401 7.24701 33.6839 7.12019C33.8451 6.98228 33.945 6.78596 33.9615 6.57442C33.978 6.36287 33.9098 6.15344 33.7719 5.99219C32.2522 4.22019 30.0343 3.20038 27.6999 3.2002C27.2581 3.2002 26.8999 3.55837 26.8999 4.00019C26.8999 4.44202 27.2581 4.80019 27.6999 4.80019C29.5679 4.80241 31.3417 5.62063 32.5559 7.04019Z" fill="#D3D8DE" />
    <path d="M1.88398 18.4574C2.32581 18.4574 2.68398 18.0992 2.68398 17.6574C2.68398 17.2156 2.32581 16.8574 1.88398 16.8574C1.44216 16.8574 1.08398 17.2156 1.08398 17.6574C1.08398 18.0992 1.44216 18.4574 1.88398 18.4574Z" fill="#D3D8DE" />
    <path d="M38.9005 11.2007C38.8895 5.79391 35.0174 1.16687 29.6972 0.202954C24.377 -0.760962 19.1278 2.21346 17.2205 7.27269C14.6722 7.5496 12.4141 9.03911 11.1565 11.2727C10.8061 11.2288 10.4536 11.2047 10.1005 11.2007C7.35316 11.188 4.73203 12.3529 2.90049 14.4007C2.75586 14.5642 2.68431 14.7797 2.70244 14.9972C2.72057 15.2147 2.82679 15.4154 2.99649 15.5527C3.33548 15.8009 3.8051 15.7635 4.10049 15.4647C5.62726 13.7592 7.81147 12.7894 10.1005 12.8007C11.6789 12.7956 13.2227 13.2638 14.5325 14.1447C14.6649 14.2337 14.8209 14.2811 14.9805 14.2807C15.2466 14.2811 15.4955 14.1492 15.6445 13.9287C15.7687 13.7515 15.8159 13.5315 15.7752 13.319C15.7345 13.1064 15.6094 12.9195 15.4285 12.8007C14.6266 12.2621 13.7471 11.8493 12.8205 11.5767C13.968 9.90353 15.8409 8.87358 17.8685 8.80069H18.1005C19.4862 8.79484 20.8354 9.24459 21.9405 10.0807C22.2939 10.3458 22.7954 10.2742 23.0605 9.92069C23.3256 9.56723 23.254 9.06579 22.9005 8.80069C21.751 7.93502 20.3876 7.39851 18.9565 7.24869C20.8217 3.1328 25.3049 0.874942 29.7223 1.82663C34.1398 2.77832 37.2955 6.68188 37.3005 11.2007V11.3367C35.9675 11.5527 34.6963 12.0519 33.5725 12.8007C33.2058 13.0481 33.1091 13.546 33.3565 13.9127C33.6039 14.2794 34.1018 14.3761 34.4685 14.1287C35.7801 13.2534 37.3237 12.7909 38.9005 12.8007C43.063 12.816 46.5183 16.0208 46.8462 20.1705C47.1741 24.3202 44.265 28.0279 40.1565 28.6967C38.5963 21.2946 32.0652 15.9966 24.5005 15.9966C16.9357 15.9966 10.4047 21.2946 8.84449 28.6967C4.96165 28.0794 2.10284 24.7323 2.10049 20.8007C2.10049 20.3589 1.74232 20.0007 1.30049 20.0007C0.85866 20.0007 0.500488 20.3589 0.500488 20.8007C0.501204 25.5215 3.93402 29.5411 8.59649 30.2807C8.532 30.8517 8.49995 31.426 8.50049 32.0007C8.50049 40.8372 15.6639 48.0007 24.5005 48.0007C33.337 48.0007 40.5005 40.8372 40.5005 32.0007C40.501 31.426 40.469 30.8517 40.4045 30.2807C45.3478 29.4917 48.8551 25.0367 48.4617 20.0463C48.0683 15.0559 43.9063 11.2054 38.9005 11.2007ZM24.5005 46.4007C16.5476 46.4007 10.1005 39.9536 10.1005 32.0007C10.1005 24.0478 16.5476 17.6007 24.5005 17.6007C32.4534 17.6007 38.9005 24.0478 38.9005 32.0007C38.9005 39.9536 32.4534 46.4007 24.5005 46.4007Z" fill="#D3D8DE" />
    <path d="M33.3 25.6001C33.2995 24.9638 33.0462 24.3538 32.596 23.9041C31.6453 23.002 30.1548 23.002 29.204 23.9041L24.5 28.6081L19.796 23.9041C18.8453 23.002 17.3548 23.002 16.404 23.9041C15.4682 24.8411 15.4682 26.3591 16.404 27.2961L21.108 32.0001L16.404 36.7041C15.4682 37.6412 15.4682 39.1591 16.404 40.0961C17.3548 40.9982 18.8453 40.9982 19.796 40.0961L24.5 35.3921L29.204 40.0961C29.8023 40.7382 30.7034 41.0025 31.5537 40.7854C32.4041 40.5682 33.0681 39.9042 33.2852 39.0539C33.5024 38.2035 33.2381 37.3024 32.596 36.7041L27.892 32.0001L32.596 27.2961C33.0462 26.8465 33.2995 26.2364 33.3 25.6001ZM31.468 26.1681L26.196 31.4321C26.0446 31.5823 25.9594 31.7868 25.9594 32.0001C25.9594 32.2134 26.0446 32.4179 26.196 32.5681L31.468 37.8321C31.6195 37.9823 31.7047 38.1868 31.7047 38.4001C31.7047 38.6134 31.6195 38.8179 31.468 38.9681C31.3178 39.1196 31.1133 39.2048 30.9 39.2048C30.6867 39.2048 30.4822 39.1196 30.332 38.9681L25.068 33.6961C24.9178 33.5447 24.7133 33.4595 24.5 33.4595C24.2867 33.4595 24.0822 33.5447 23.932 33.6961L18.668 38.9681C18.5178 39.1196 18.3133 39.2048 18.1 39.2048C17.8867 39.2048 17.6822 39.1196 17.532 38.9681C17.3806 38.8179 17.2954 38.6134 17.2954 38.4001C17.2954 38.1868 17.3806 37.9823 17.532 37.8321L22.804 32.5681C22.9555 32.4179 23.0407 32.2134 23.0407 32.0001C23.0407 31.7868 22.9555 31.5823 22.804 31.4321L17.532 26.1681C17.3806 26.0179 17.2954 25.8134 17.2954 25.6001C17.2954 25.3868 17.3806 25.1823 17.532 25.0321C17.6822 24.8807 17.8867 24.7955 18.1 24.7955C18.3133 24.7955 18.5178 24.8807 18.668 25.0321L23.932 30.3041C24.0822 30.4556 24.2867 30.5408 24.5 30.5408C24.7133 30.5408 24.9178 30.4556 25.068 30.3041L30.332 25.0321C30.4822 24.8807 30.6867 24.7955 30.9 24.7955C31.1133 24.7955 31.3178 24.8807 31.468 25.0321C31.6195 25.1823 31.7047 25.3868 31.7047 25.6001C31.7047 25.8134 31.6195 26.0179 31.468 26.1681Z" fill="#D3D8DE" />
  </g>
  <defs>
    <clipPath id="clip0">
      <rect width="48" height="48" fill="white" transform="translate(0.5)" />
    </clipPath>
  </defs>
</svg>
