<svg width="12" height="12" viewBox="0 0 12 12" fill="none" xmlns="http://www.w3.org/2000/svg">
  <mask id="path-1-inside-1" fill="white">
    <path d="M5.99944 11.7143C9.15536 11.7143 11.7137 9.1559 11.7137 5.99999C11.7137 2.84408 9.15536 0.285706 5.99944 0.285706C2.84353 0.285706 0.285156 2.84408 0.285156 5.99999C0.285156 9.1559 2.84353 11.7143 5.99944 11.7143Z" />
    <path d="M6.57087 3.71428C6.57087 4.02987 6.31503 4.28571 5.99944 4.28571C5.68385 4.28571 5.42801 4.02987 5.42801 3.71428C5.42801 3.39869 5.68385 3.14285 5.99944 3.14285C6.31503 3.14285 6.57087 3.39869 6.57087 3.71428Z" />
  </mask>
  <path d="M5.49944 8.28571C5.49944 8.56185 5.7233 8.78571 5.99944 8.78571C6.27558 8.78571 6.49944 8.56185 6.49944 8.28571H5.49944ZM6.49944 5.99999C6.49944 5.72385 6.27558 5.49999 5.99944 5.49999C5.7233 5.49999 5.49944 5.72385 5.49944 5.99999H6.49944ZM6.49944 8.28571V5.99999H5.49944V8.28571H6.49944ZM10.7137 5.99999C10.7137 8.60362 8.60307 10.7143 5.99944 10.7143V12.7143C9.70764 12.7143 12.7137 9.70819 12.7137 5.99999H10.7137ZM5.99944 10.7143C3.39581 10.7143 1.28516 8.60362 1.28516 5.99999H-0.714844C-0.714844 9.70819 2.29124 12.7143 5.99944 12.7143V10.7143ZM1.28516 5.99999C1.28516 3.39636 3.39581 1.28571 5.99944 1.28571V-0.714294C2.29124 -0.714294 -0.714844 2.29179 -0.714844 5.99999H1.28516ZM5.99944 1.28571C8.60307 1.28571 10.7137 3.39636 10.7137 5.99999H12.7137C12.7137 2.29179 9.70764 -0.714294 5.99944 -0.714294V1.28571ZM5.57087 3.71428C5.57087 3.47758 5.76275 3.28571 5.99944 3.28571V5.28571C6.86732 5.28571 7.57087 4.58215 7.57087 3.71428H5.57087ZM5.99944 3.28571C6.23614 3.28571 6.42801 3.47758 6.42801 3.71428H4.42801C4.42801 4.58215 5.13157 5.28571 5.99944 5.28571V3.28571ZM6.42801 3.71428C6.42801 3.95097 6.23614 4.14285 5.99944 4.14285V2.14285C5.13157 2.14285 4.42801 2.8464 4.42801 3.71428H6.42801ZM5.99944 4.14285C5.76275 4.14285 5.57087 3.95097 5.57087 3.71428H7.57087C7.57087 2.8464 6.86732 2.14285 5.99944 2.14285V4.14285Z" fill="white" mask="url(#path-1-inside-1)" />
</svg>
