<svg width="13" height="13" viewBox="0 0 13 13" fill="none" xmlns="http://www.w3.org/2000/svg">
<mask id="path-1-inside-1_19088_67829" fill="white">
<path d="M6.69964 12.2144C9.85555 12.2144 12.4139 9.65603 12.4139 6.50011C12.4139 3.3442 9.85555 0.785828 6.69964 0.785828C3.54372 0.785828 0.985352 3.3442 0.985352 6.50011C0.985352 9.65603 3.54372 12.2144 6.69964 12.2144Z"/>
<path d="M7.27107 8.78583C7.27107 9.10142 7.01523 9.35726 6.69964 9.35726C6.38405 9.35726 6.12821 9.10142 6.12821 8.78583C6.12821 8.47024 6.38405 8.2144 6.69964 8.2144C7.01523 8.2144 7.27107 8.47024 7.27107 8.78583Z"/>
</mask>
<path d="M6.69964 12.2144C9.85555 12.2144 12.4139 9.65603 12.4139 6.50011C12.4139 3.3442 9.85555 0.785828 6.69964 0.785828C3.54372 0.785828 0.985352 3.3442 0.985352 6.50011C0.985352 9.65603 3.54372 12.2144 6.69964 12.2144Z" fill="#FDF4F4"/>
<path d="M7.27107 8.78583C7.27107 9.10142 7.01523 9.35726 6.69964 9.35726C6.38405 9.35726 6.12821 9.10142 6.12821 8.78583C6.12821 8.47024 6.38405 8.2144 6.69964 8.2144C7.01523 8.2144 7.27107 8.47024 7.27107 8.78583Z" fill="#FDF4F4"/>
<path d="M7.04964 4.2144C7.04964 4.0211 6.89294 3.8644 6.69964 3.8644C6.50634 3.8644 6.34964 4.0211 6.34964 4.2144H7.04964ZM6.34964 6.50011C6.34964 6.69341 6.50634 6.85011 6.69964 6.85011C6.89294 6.85011 7.04964 6.69341 7.04964 6.50011H6.34964ZM6.34964 4.2144V6.50011H7.04964V4.2144H6.34964ZM11.7139 6.50011C11.7139 9.26943 9.46895 11.5144 6.69964 11.5144V12.9144C10.2422 12.9144 13.1139 10.0426 13.1139 6.50011H11.7139ZM6.69964 11.5144C3.93032 11.5144 1.68535 9.26943 1.68535 6.50011H0.285352C0.285352 10.0426 3.15713 12.9144 6.69964 12.9144V11.5144ZM1.68535 6.50011C1.68535 3.7308 3.93032 1.48583 6.69964 1.48583V0.0858276C3.15713 0.0858276 0.285352 2.9576 0.285352 6.50011H1.68535ZM6.69964 1.48583C9.46895 1.48583 11.7139 3.7308 11.7139 6.50011H13.1139C13.1139 2.9576 10.2422 0.0858276 6.69964 0.0858276V1.48583ZM6.57107 8.78583C6.57107 8.71482 6.62863 8.65726 6.69964 8.65726V10.0573C7.40183 10.0573 7.97107 9.48802 7.97107 8.78583H6.57107ZM6.69964 8.65726C6.77065 8.65726 6.82821 8.71482 6.82821 8.78583H5.42821C5.42821 9.48802 5.99745 10.0573 6.69964 10.0573V8.65726ZM6.82821 8.78583C6.82821 8.85684 6.77065 8.9144 6.69964 8.9144V7.5144C5.99745 7.5144 5.42821 8.08364 5.42821 8.78583H6.82821ZM6.69964 8.9144C6.62863 8.9144 6.57107 8.85684 6.57107 8.78583H7.97107C7.97107 8.08364 7.40183 7.5144 6.69964 7.5144V8.9144Z" fill="#E31A1A" mask="url(#path-1-inside-1_19088_67829)"/>
</svg>
