<svg width="14" height="14" viewBox="0 0 14 14" fill="none" xmlns="http://www.w3.org/2000/svg">
  <path d="M10.8996 13.9997C10.7684 13.9993 10.6376 13.985 10.5094 13.9568C8.06999 13.4522 5.8226 12.269 4.02593 10.5434C2.26761 8.81403 1.04811 6.61216 0.515002 4.20422C0.452141 3.90411 0.46757 3.59288 0.559803 3.30047C0.652036 3.00806 0.817971 2.7443 1.04164 2.53457L2.60205 1.03268C2.68175 0.957304 2.77645 0.899585 2.87997 0.863287C2.98349 0.826989 3.09349 0.812928 3.20281 0.822021C3.31616 0.833846 3.42555 0.87036 3.52327 0.928995C3.621 0.987629 3.70469 1.06696 3.76846 1.16141L5.71898 4.04427C5.79212 4.15613 5.82743 4.28852 5.81971 4.42195C5.81198 4.55537 5.76163 4.6828 5.67607 4.78547L4.69691 5.95578C5.08688 6.81886 5.63914 7.59893 6.32364 8.25349C7.00371 8.9318 7.80753 9.47342 8.69157 9.84901L9.90479 8.88546C10.0067 8.80493 10.1307 8.75731 10.2603 8.74895C10.3899 8.74059 10.519 8.77187 10.6304 8.83864L13.5757 10.7423C13.6767 10.8027 13.7628 10.8851 13.8275 10.9835C13.8922 11.0818 13.9338 11.1935 13.9492 11.3103C13.9646 11.427 13.9534 11.5456 13.9164 11.6574C13.8794 11.7692 13.8176 11.8711 13.7356 11.9556L12.2142 13.4614C12.0414 13.6333 11.8363 13.7694 11.6106 13.8618C11.385 13.9542 11.1434 14.0011 10.8996 13.9997ZM3.1404 1.59443L1.57998 3.09632C1.45416 3.21357 1.36101 3.36155 1.30971 3.5257C1.25842 3.68986 1.25073 3.86454 1.28741 4.03257C1.78312 6.2921 2.92261 8.35972 4.56817 9.98555C6.25896 11.609 8.37387 12.7219 10.6694 13.1961C10.8431 13.2324 11.0232 13.2251 11.1934 13.1747C11.3636 13.1243 11.5187 13.0325 11.6446 12.9074L13.1661 11.4016L10.3222 9.56424L9.01925 10.6019C8.96937 10.6414 8.91059 10.6681 8.84804 10.6796C8.78549 10.6912 8.72105 10.6873 8.66036 10.6682C7.57849 10.2696 6.59806 9.63687 5.7892 8.81524C4.95256 8.03394 4.30315 7.07382 3.88939 6.00649C3.87189 5.94188 3.87131 5.87385 3.88771 5.80894C3.9041 5.74404 3.93693 5.68444 3.98302 5.6359L5.0363 4.37586L3.1404 1.59443Z" fill="#4286D6" />
</svg>
