<svg width="12" height="14" viewBox="0 0 12 14" fill="none" xmlns="http://www.w3.org/2000/svg">
<path d="M0.857422 3.57185H2.00028M2.00028 3.57185H11.1431M2.00028 3.57185V11.5718C2.00028 11.875 2.12069 12.1656 2.33501 12.38C2.54934 12.5943 2.84003 12.7147 3.14314 12.7147H8.85742C9.16053 12.7147 9.45122 12.5943 9.66554 12.38C9.87987 12.1656 10.0003 11.875 10.0003 11.5718V3.57185H2.00028ZM3.71456 3.57185V2.42899C3.71456 2.12589 3.83497 1.8352 4.0493 1.62087C4.26363 1.40654 4.55432 1.28613 4.85742 1.28613H7.14314C7.44624 1.28613 7.73693 1.40654 7.95126 1.62087C8.16559 1.8352 8.28599 2.12589 8.28599 2.42899V3.57185M4.85742 6.42899V9.85756M7.14314 6.42899V9.85756" stroke="#E43B46" stroke-linecap="round" stroke-linejoin="round"/>
</svg>
