<svg width="21" height="22" viewBox="0 0 21 22" fill="none" xmlns="http://www.w3.org/2000/svg">
  <path d="M19.7104 14.89C19.0742 16.3945 18.0792 17.7202 16.8123 18.7513C15.5454 19.7824 14.0452 20.4874 12.4428 20.8048C10.8405 21.1221 9.18483 21.0421 7.62055 20.5718C6.05627 20.1014 4.63103 19.2551 3.46942 18.1067C2.30782 16.9582 1.44522 15.5428 0.957038 13.9839C0.468859 12.4251 0.369965 10.7705 0.669001 9.16463C0.968037 7.55878 1.6559 6.05063 2.67245 4.77203C3.689 3.49343 5.00329 2.48332 6.5004 1.83M20.5004 11C20.5004 9.68678 20.2417 8.38642 19.7392 7.17317C19.2367 5.95991 18.5001 4.85752 17.5715 3.92893C16.6429 3.00035 15.5405 2.26375 14.3272 1.7612C13.114 1.25866 11.8136 1 10.5004 1V11H20.5004Z" stroke="#1A1A1A" strokeLinecap="round" strokeLinejoin="round" />
</svg>
