<svg width="12" height="14" viewBox="0 0 12 14" fill="none" xmlns="http://www.w3.org/2000/svg">
<path d="M4.04975 7.8623L7.95261 10.1366M7.9469 3.8623L4.04975 6.13658M11.1412 2.99944C11.1412 3.94622 10.3737 4.71373 9.4269 4.71373C8.48012 4.71373 7.71261 3.94622 7.71261 2.99944C7.71261 2.05267 8.48012 1.28516 9.4269 1.28516C10.3737 1.28516 11.1412 2.05267 11.1412 2.99944ZM4.28404 6.99944C4.28404 7.94622 3.51653 8.71373 2.56975 8.71373C1.62298 8.71373 0.855469 7.94622 0.855469 6.99944C0.855469 6.05267 1.62298 5.28516 2.56975 5.28516C3.51653 5.28516 4.28404 6.05267 4.28404 6.99944ZM11.1412 10.9994C11.1412 11.9462 10.3737 12.7137 9.4269 12.7137C8.48012 12.7137 7.71261 11.9462 7.71261 10.9994C7.71261 10.0527 8.48012 9.28516 9.4269 9.28516C10.3737 9.28516 11.1412 10.0527 11.1412 10.9994Z" stroke="#E43B46" stroke-linecap="round" stroke-linejoin="round"/>
</svg>
