<svg width="17" height="16" viewBox="0 0 17 16" fill="none" xmlns="http://www.w3.org/2000/svg">
<path d="M8.49993 10.0356C9.62422 10.0356 10.5356 9.12422 10.5356 7.99993C10.5356 6.87564 9.62422 5.96422 8.49993 5.96422C7.37564 5.96422 6.46422 6.87564 6.46422 7.99993C6.46422 9.12422 7.37564 10.0356 8.49993 10.0356Z" stroke="#050C15" stroke-linecap="round" stroke-linejoin="round"/>
<path d="M13.5214 10.0356C13.431 10.2403 13.4041 10.4673 13.444 10.6875C13.4839 10.9076 13.5889 11.1107 13.7453 11.2706L13.786 11.3114C13.9122 11.4374 14.0123 11.5871 14.0806 11.7518C14.1489 11.9166 14.184 12.0932 14.184 12.2715C14.184 12.4499 14.1489 12.6265 14.0806 12.7912C14.0123 12.956 13.9122 13.1057 13.786 13.2317C13.66 13.3579 13.5103 13.458 13.3455 13.5263C13.1808 13.5946 13.0042 13.6297 12.8258 13.6297C12.6475 13.6297 12.4709 13.5946 12.3061 13.5263C12.1414 13.458 11.9917 13.3579 11.8656 13.2317L11.8249 13.191C11.665 13.0346 11.4619 12.9296 11.2418 12.8897C11.0216 12.8498 10.7946 12.8767 10.5899 12.9671C10.3892 13.0531 10.2181 13.1959 10.0975 13.378C9.97693 13.56 9.91223 13.7734 9.91136 13.9917V14.1071C9.91136 14.467 9.76837 14.8122 9.51386 15.0667C9.25935 15.3212 8.91415 15.4642 8.55422 15.4642C8.19428 15.4642 7.84908 15.3212 7.59457 15.0667C7.34006 14.8122 7.19707 14.467 7.19707 14.1071V14.046C7.19182 13.8214 7.11912 13.6036 6.98842 13.4208C6.85772 13.2381 6.67507 13.0989 6.46422 13.0214C6.25955 12.931 6.03251 12.9041 5.81239 12.944C5.59226 12.9839 5.38914 13.0889 5.22922 13.2453L5.1885 13.286C5.06246 13.4122 4.91278 13.5123 4.74803 13.5806C4.58327 13.6489 4.40667 13.684 4.22832 13.684C4.04997 13.684 3.87337 13.6489 3.70862 13.5806C3.54386 13.5123 3.39419 13.4122 3.26814 13.286C3.14196 13.16 3.04186 13.0103 2.97356 12.8455C2.90527 12.6808 2.87011 12.5042 2.87011 12.3258C2.87011 12.1475 2.90527 11.9709 2.97356 11.8061C3.04186 11.6414 3.14196 11.4917 3.26814 11.3656L3.30886 11.3249C3.46529 11.165 3.57023 10.9619 3.61015 10.7418C3.65006 10.5216 3.62312 10.2946 3.53279 10.0899C3.44677 9.88923 3.30394 9.71806 3.12189 9.5975C2.93983 9.47693 2.7265 9.41223 2.50814 9.41136H2.39279C2.03285 9.41136 1.68766 9.26837 1.43314 9.01386C1.17863 8.75935 1.03564 8.41415 1.03564 8.05422C1.03564 7.69428 1.17863 7.34908 1.43314 7.09457C1.68766 6.84006 2.03285 6.69707 2.39279 6.69707H2.45386C2.67846 6.69182 2.89629 6.61912 3.07903 6.48842C3.26176 6.35772 3.40095 6.17507 3.4785 5.96422C3.56883 5.75955 3.59577 5.53251 3.55586 5.31239C3.51595 5.09226 3.41101 4.88914 3.25457 4.72922L3.21386 4.6885C3.08768 4.56246 2.98757 4.41278 2.91928 4.24803C2.85098 4.08327 2.81583 3.90667 2.81583 3.72832C2.81583 3.54997 2.85098 3.37337 2.91928 3.20862C2.98757 3.04386 3.08768 2.89419 3.21386 2.76814C3.3399 2.64196 3.48958 2.54186 3.65433 2.47356C3.81909 2.40527 3.99569 2.37011 4.17404 2.37011C4.35239 2.37011 4.52899 2.40527 4.69374 2.47356C4.8585 2.54186 5.00817 2.64196 5.13422 2.76814L5.17493 2.80886C5.33486 2.96529 5.53798 3.07023 5.7581 3.11015C5.97823 3.15006 6.20526 3.12312 6.40993 3.03279H6.46422C6.66492 2.94677 6.83608 2.80394 6.95665 2.62189C7.07722 2.43983 7.14192 2.2265 7.14279 2.00814V1.89279C7.14279 1.53285 7.28577 1.18766 7.54029 0.933142C7.7948 0.678629 8.13999 0.535645 8.49993 0.535645C8.85987 0.535645 9.20506 0.678629 9.45957 0.933142C9.71409 1.18766 9.85707 1.53285 9.85707 1.89279V1.95386C9.85794 2.17221 9.92264 2.38555 10.0432 2.5676C10.1638 2.74966 10.3349 2.89248 10.5356 2.9785C10.7403 3.06883 10.9673 3.09577 11.1875 3.05586C11.4076 3.01595 11.6107 2.91101 11.7706 2.75457L11.8114 2.71386C11.9374 2.58768 12.0871 2.48757 12.2518 2.41928C12.4166 2.35098 12.5932 2.31583 12.7715 2.31583C12.9499 2.31583 13.1265 2.35098 13.2912 2.41928C13.456 2.48757 13.6057 2.58768 13.7317 2.71386C13.8579 2.8399 13.958 2.98958 14.0263 3.15433C14.0946 3.31909 14.1297 3.49569 14.1297 3.67404C14.1297 3.85239 14.0946 4.02899 14.0263 4.19374C13.958 4.3585 13.8579 4.50817 13.7317 4.63422L13.691 4.67493C13.5346 4.83486 13.4296 5.03798 13.3897 5.2581C13.3498 5.47823 13.3767 5.70526 13.4671 5.90993V5.96422C13.5531 6.16492 13.6959 6.33608 13.878 6.45665C14.06 6.57722 14.2734 6.64192 14.4917 6.64279H14.6071C14.967 6.64279 15.3122 6.78577 15.5667 7.04029C15.8212 7.2948 15.9642 7.63999 15.9642 7.99993C15.9642 8.35987 15.8212 8.70506 15.5667 8.95957C15.3122 9.21409 14.967 9.35707 14.6071 9.35707H14.546C14.3276 9.35794 14.1143 9.42264 13.9323 9.54321C13.7502 9.66378 13.6074 9.83494 13.5214 10.0356Z" stroke="#050C15" stroke-linecap="round" stroke-linejoin="round"/>
</svg>
