<svg width="15" height="15" viewBox="0 0 15 15" fill="none" xmlns="http://www.w3.org/2000/svg">
  <path d="M3.64298 2.83312C3.26798 3.67313 3.41611 5.17812 3.47611 6.23063C3.07111 6.455 2.55111 6.06125 2.25673 6.06125C1.95048 6.06125 1.58486 6.2625 1.52736 6.5625C1.48611 6.77875 1.58298 7.09375 2.27798 7.36812C2.54673 7.47437 3.18611 7.59938 3.33423 7.94812C3.54236 8.43812 2.26548 10.7 0.260481 11.03C0.184783 11.0425 0.116374 11.0825 0.0683876 11.1424C0.020401 11.2023 -0.00378188 11.2778 0.000481123 11.3544C0.0354811 11.9637 1.40173 12.2025 2.00736 12.2962C2.06923 12.38 2.11923 12.7337 2.19861 13.0031C2.23423 13.1237 2.32611 13.2681 2.56236 13.2681C2.87048 13.2681 3.38236 13.0306 4.27361 13.1781C5.14736 13.3237 5.96861 14.5625 7.54548 14.5625C9.01111 14.5625 9.88548 13.3181 10.7267 13.1781C11.2136 13.0975 11.6317 13.1231 12.0992 13.2144C12.4211 13.2775 12.7099 13.3125 12.8017 12.9963C12.8824 12.7231 12.9317 12.3762 12.9924 12.2944C13.5924 12.2012 14.9649 11.9631 14.9992 11.3538C15.0035 11.2771 14.9793 11.2017 14.9313 11.1418C14.8833 11.0819 14.8149 11.0419 14.7392 11.0294C12.768 10.7044 11.4524 8.44938 11.6655 7.9475C11.813 7.59937 12.448 7.47563 12.7217 7.3675C13.2305 7.16688 13.4855 6.92 13.4799 6.63438C13.473 6.26875 13.033 6.05062 12.7092 6.05062C12.3799 6.05062 11.9067 6.44063 11.5236 6.22937C11.5836 5.16813 11.7311 3.67 11.3567 2.83062C10.6474 1.24125 9.06923 0.4375 7.49173 0.4375C5.92423 0.4375 4.35798 1.23 3.64298 2.83312Z" fill="#E43B46" />
</svg>
