<svg width="13" height="12" viewBox="0 0 13 12" fill="none" xmlns="http://www.w3.org/2000/svg">
<mask id="path-1-inside-1_18351_137978" fill="white">
<path d="M6.69964 11.7653C9.85555 11.7653 12.4139 9.20693 12.4139 6.05102C12.4139 2.8951 9.85555 0.336731 6.69964 0.336731C3.54372 0.336731 0.985352 2.8951 0.985352 6.05102C0.985352 9.20693 3.54372 11.7653 6.69964 11.7653Z"/>
<path d="M7.27107 8.33673C7.27107 8.65232 7.01523 8.90816 6.69964 8.90816C6.38405 8.90816 6.12821 8.65232 6.12821 8.33673C6.12821 8.02114 6.38405 7.7653 6.69964 7.7653C7.01523 7.7653 7.27107 8.02114 7.27107 8.33673Z"/>
</mask>
<path d="M6.69964 11.7653C9.85555 11.7653 12.4139 9.20693 12.4139 6.05102C12.4139 2.8951 9.85555 0.336731 6.69964 0.336731C3.54372 0.336731 0.985352 2.8951 0.985352 6.05102C0.985352 9.20693 3.54372 11.7653 6.69964 11.7653Z" fill="#FFA000" fill-opacity="0.4"/>
<path d="M7.27107 8.33673C7.27107 8.65232 7.01523 8.90816 6.69964 8.90816C6.38405 8.90816 6.12821 8.65232 6.12821 8.33673C6.12821 8.02114 6.38405 7.7653 6.69964 7.7653C7.01523 7.7653 7.27107 8.02114 7.27107 8.33673Z" fill="#FFA000" fill-opacity="0.4"/>
<path d="M7.04964 3.7653C7.04964 3.572 6.89294 3.4153 6.69964 3.4153C6.50634 3.4153 6.34964 3.572 6.34964 3.7653H7.04964ZM6.34964 6.05102C6.34964 6.24432 6.50634 6.40102 6.69964 6.40102C6.89294 6.40102 7.04964 6.24432 7.04964 6.05102H6.34964ZM6.34964 3.7653V6.05102H7.04964V3.7653H6.34964ZM11.7139 6.05102C11.7139 8.82033 9.46895 11.0653 6.69964 11.0653V12.4653C10.2422 12.4653 13.1139 9.59353 13.1139 6.05102H11.7139ZM6.69964 11.0653C3.93032 11.0653 1.68535 8.82033 1.68535 6.05102H0.285352C0.285352 9.59353 3.15713 12.4653 6.69964 12.4653V11.0653ZM1.68535 6.05102C1.68535 3.2817 3.93032 1.03673 6.69964 1.03673V-0.363269C3.15713 -0.363269 0.285352 2.5085 0.285352 6.05102H1.68535ZM6.69964 1.03673C9.46895 1.03673 11.7139 3.2817 11.7139 6.05102H13.1139C13.1139 2.5085 10.2422 -0.363269 6.69964 -0.363269V1.03673ZM6.57107 8.33673C6.57107 8.26572 6.62863 8.20816 6.69964 8.20816V9.60816C7.40183 9.60816 7.97107 9.03892 7.97107 8.33673H6.57107ZM6.69964 8.20816C6.77065 8.20816 6.82821 8.26572 6.82821 8.33673H5.42821C5.42821 9.03892 5.99745 9.60816 6.69964 9.60816V8.20816ZM6.82821 8.33673C6.82821 8.40774 6.77065 8.4653 6.69964 8.4653V7.0653C5.99745 7.0653 5.42821 7.63454 5.42821 8.33673H6.82821ZM6.69964 8.4653C6.62863 8.4653 6.57107 8.40774 6.57107 8.33673H7.97107C7.97107 7.63454 7.40183 7.0653 6.69964 7.0653V8.4653Z" fill="#FFA000" mask="url(#path-1-inside-1_18351_137978)"/>
</svg>
