<svg width="12" height="12" viewBox="0 0 12 12" fill="none" xmlns="http://www.w3.org/2000/svg">
<mask id="path-1-inside-1_18351_138063" fill="white">
<path d="M6.00042 11.7653C9.15633 11.7653 11.7147 9.20693 11.7147 6.05102C11.7147 2.8951 9.15633 0.336731 6.00042 0.336731C2.84451 0.336731 0.286133 2.8951 0.286133 6.05102C0.286133 9.20693 2.84451 11.7653 6.00042 11.7653Z"/>
<path d="M6.57185 8.33673C6.57185 8.65232 6.31601 8.90816 6.00042 8.90816C5.68483 8.90816 5.42899 8.65232 5.42899 8.33673C5.42899 8.02114 5.68483 7.7653 6.00042 7.7653C6.31601 7.7653 6.57185 8.02114 6.57185 8.33673Z"/>
</mask>
<path d="M6.00042 11.7653C9.15633 11.7653 11.7147 9.20693 11.7147 6.05102C11.7147 2.8951 9.15633 0.336731 6.00042 0.336731C2.84451 0.336731 0.286133 2.8951 0.286133 6.05102C0.286133 9.20693 2.84451 11.7653 6.00042 11.7653Z" fill="#01B574" fill-opacity="0.4"/>
<path d="M6.57185 8.33673C6.57185 8.65232 6.31601 8.90816 6.00042 8.90816C5.68483 8.90816 5.42899 8.65232 5.42899 8.33673C5.42899 8.02114 5.68483 7.7653 6.00042 7.7653C6.31601 7.7653 6.57185 8.02114 6.57185 8.33673Z" fill="#01B574" fill-opacity="0.4"/>
<path d="M6.35042 3.7653C6.35042 3.572 6.19372 3.4153 6.00042 3.4153C5.80712 3.4153 5.65042 3.572 5.65042 3.7653H6.35042ZM5.65042 6.05102C5.65042 6.24432 5.80712 6.40102 6.00042 6.40102C6.19372 6.40102 6.35042 6.24432 6.35042 6.05102H5.65042ZM5.65042 3.7653V6.05102H6.35042V3.7653H5.65042ZM11.0147 6.05102C11.0147 8.82033 8.76973 11.0653 6.00042 11.0653V12.4653C9.54293 12.4653 12.4147 9.59353 12.4147 6.05102H11.0147ZM6.00042 11.0653C3.23111 11.0653 0.986133 8.82033 0.986133 6.05102H-0.413867C-0.413867 9.59353 2.45791 12.4653 6.00042 12.4653V11.0653ZM0.986133 6.05102C0.986133 3.2817 3.23111 1.03673 6.00042 1.03673V-0.363269C2.45791 -0.363269 -0.413867 2.5085 -0.413867 6.05102H0.986133ZM6.00042 1.03673C8.76973 1.03673 11.0147 3.2817 11.0147 6.05102H12.4147C12.4147 2.5085 9.54293 -0.363269 6.00042 -0.363269V1.03673ZM5.87185 8.33673C5.87185 8.26572 5.92941 8.20816 6.00042 8.20816V9.60816C6.70261 9.60816 7.27185 9.03892 7.27185 8.33673H5.87185ZM6.00042 8.20816C6.07143 8.20816 6.12899 8.26572 6.12899 8.33673H4.72899C4.72899 9.03892 5.29823 9.60816 6.00042 9.60816V8.20816ZM6.12899 8.33673C6.12899 8.40774 6.07143 8.4653 6.00042 8.4653V7.0653C5.29823 7.0653 4.72899 7.63454 4.72899 8.33673H6.12899ZM6.00042 8.4653C5.92941 8.4653 5.87185 8.40774 5.87185 8.33673H7.27185C7.27185 7.63454 6.70261 7.0653 6.00042 7.0653V8.4653Z" fill="#01B574" mask="url(#path-1-inside-1_18351_138063)"/>
</svg>
