<svg width="24" height="24" viewBox="0 0 24 24" fill="none" xmlns="http://www.w3.org/2000/svg">
<rect width="24" height="24" rx="12" fill="#EAF2FA"/>
<path d="M15.8996 19.0007C15.7684 19.0003 15.6376 18.9859 15.5094 18.9578C13.07 18.4531 10.8226 17.2699 9.02593 15.5444C7.26761 13.815 6.04811 11.6131 5.515 9.20519C5.45214 8.90509 5.46757 8.59386 5.5598 8.30145C5.65204 8.00903 5.81797 7.74528 6.04164 7.53555L7.60205 6.03365C7.68175 5.95828 7.77645 5.90056 7.87997 5.86426C7.98349 5.82797 8.09349 5.8139 8.20281 5.823C8.31616 5.83482 8.42555 5.87134 8.52327 5.92997C8.621 5.98861 8.70469 6.06794 8.76846 6.16239L10.719 9.04525C10.7921 9.15711 10.8274 9.28949 10.8197 9.42292C10.812 9.55635 10.7616 9.68378 10.6761 9.78645L9.69691 10.9568C10.0869 11.8198 10.6391 12.5999 11.3236 13.2545C12.0037 13.9328 12.8075 14.4744 13.6916 14.85L14.9048 13.8864C15.0067 13.8059 15.1307 13.7583 15.2603 13.7499C15.3899 13.7416 15.519 13.7729 15.6304 13.8396L18.5757 15.7433C18.6767 15.8037 18.7628 15.8861 18.8275 15.9845C18.8922 16.0828 18.9338 16.1945 18.9492 16.3112C18.9646 16.4279 18.9534 16.5466 18.9164 16.6584C18.8794 16.7701 18.8176 16.8721 18.7356 16.9565L17.2142 18.4623C17.0414 18.6343 16.8363 18.7704 16.6106 18.8628C16.385 18.9552 16.1434 19.0021 15.8996 19.0007ZM8.1404 6.5954L6.57998 8.0973C6.45416 8.21455 6.36101 8.36252 6.30971 8.52668C6.25842 8.69084 6.25073 8.86552 6.28741 9.03355C6.78312 11.2931 7.92261 13.3607 9.56817 14.9865C11.259 16.61 13.3739 17.7229 15.6694 18.1971C15.8431 18.2334 16.0232 18.226 16.1934 18.1757C16.3636 18.1253 16.5187 18.0334 16.6446 17.9084L18.1661 16.4026L15.3222 14.5652L14.0193 15.6029C13.9694 15.6424 13.9106 15.669 13.848 15.6806C13.7855 15.6922 13.7211 15.6883 13.6604 15.6692C12.5785 15.2706 11.5981 14.6378 10.7892 13.8162C9.95256 13.0349 9.30315 12.0748 8.88939 11.0075C8.87189 10.9429 8.87131 10.8748 8.88771 10.8099C8.9041 10.745 8.93693 10.6854 8.98302 10.6369L10.0363 9.37684L8.1404 6.5954Z" fill="#4286D6"/>
</svg>
