<svg width="11" height="13" viewBox="0 0 11 13" fill="none" xmlns="http://www.w3.org/2000/svg">
  <path d="M9.83411 3.71622C9.23603 3.5847 8.69499 3.2671 8.28862 2.80899C7.88226 2.35089 7.63145 1.77583 7.57221 1.16633V0.902344H5.5023V9.10397C5.50273 9.46789 5.38863 9.82272 5.17618 10.1182C4.96374 10.4137 4.66371 10.6348 4.3186 10.7503C3.97348 10.8658 3.60079 10.8697 3.25329 10.7616C2.9058 10.6535 2.60113 10.4388 2.38245 10.1479C2.18653 9.89044 2.06655 9.58327 2.0361 9.26116C2.00565 8.93905 2.06593 8.61484 2.21012 8.3252C2.35432 8.03556 2.57668 7.79205 2.85205 7.62219C3.12743 7.45234 3.44484 7.36292 3.76838 7.36405C3.94732 7.36302 4.12536 7.38933 4.29636 7.44204V5.34214C4.09737 5.3175 3.89684 5.30747 3.69639 5.31214C2.95801 5.33187 2.24141 5.56649 1.63433 5.98727C1.02726 6.40805 0.556064 6.99673 0.278449 7.68122C0.000833199 8.36571 -0.071154 9.11629 0.0713026 9.84107C0.213759 10.5658 0.564476 11.2334 1.08051 11.7618C1.60937 12.2995 2.28615 12.6679 3.02483 12.8201C3.76352 12.9723 4.53078 12.9014 5.22911 12.6166C5.92745 12.3317 6.52534 11.8457 6.94681 11.2202C7.36829 10.5948 7.59433 9.85817 7.59621 9.10397V4.90416C8.43105 5.5005 9.43213 5.81951 10.4581 5.81612V3.77621C10.2565 3.77704 10.0555 3.75694 9.8581 3.71622H9.83411Z" fill="#E43B46" />
</svg>
