<svg width="14" height="12" viewBox="0 0 14 12" fill="none" xmlns="http://www.w3.org/2000/svg">
  <path d="M12.3629 3.06356C12.9119 2.67375 13.3737 2.18719 13.75 1.62694V1.62638C13.2477 1.84631 12.7133 1.99256 12.1553 2.06344C12.7291 1.72088 13.1672 1.18256 13.3731 0.534C12.8382 0.852937 12.2476 1.07794 11.6181 1.20394C11.1102 0.662812 10.3862 0.328125 9.5965 0.328125C8.06425 0.328125 6.83069 1.57181 6.83069 3.09619C6.83069 3.31556 6.84925 3.5265 6.89481 3.72731C4.59419 3.61481 2.55794 2.51231 1.18994 0.832125C0.951438 1.24669 0.810812 1.72087 0.810812 2.23106C0.810812 3.18956 1.30413 4.03894 2.04044 4.53113C1.5955 4.52269 1.15956 4.39331 0.79 4.19025V4.22062C0.79 5.56556 1.74906 6.68269 3.00738 6.94031C2.78181 7.00219 2.53656 7.03144 2.28175 7.03144C2.10456 7.03144 1.92569 7.02131 1.75806 6.98419C2.11637 8.07994 3.1345 8.886 4.34387 8.91244C3.40225 9.64875 2.20638 10.0926 0.912063 10.0926C0.685375 10.0926 0.467688 10.0824 0.25 10.0549C1.47625 10.8452 2.92862 11.2969 4.49575 11.2969C9.37994 11.2969 12.5631 7.22213 12.3629 3.06356Z" fill="#E43B46" />
</svg>
