<svg width="24" height="20" viewBox="0 0 24 20" fill="none" xmlns="http://www.w3.org/2000/svg">
  <path d="M16.0053 13.9977L12.0053 9.99767M12.0053 9.99767L8.00533 13.9977M12.0053 9.99767V18.9977M20.3953 16.3877C21.3707 15.8559 22.1412 15.0145 22.5852 13.9963C23.0292 12.978 23.1215 11.8409 22.8475 10.7644C22.5735 9.68781 21.9488 8.73318 21.072 8.05111C20.1952 7.36905 19.1162 6.9984 18.0053 6.99766H16.7453C16.4426 5.82691 15.8785 4.74 15.0953 3.81866C14.3121 2.89732 13.3302 2.16551 12.2234 1.67827C11.1167 1.19103 9.91388 0.961023 8.70545 1.00555C7.49701 1.05007 6.3144 1.36796 5.24651 1.93533C4.17862 2.5027 3.25324 3.30477 2.53995 4.28125C1.82666 5.25773 1.34402 6.3832 1.12831 7.57306C0.912601 8.76292 0.969437 9.98619 1.29454 11.1509C1.61965 12.3157 2.20457 13.3915 3.00533 14.2977" stroke="#1A1A1A" strokeLinecap="round" strokeLinejoin="round" />
</svg>
