<svg width="22" height="22" viewBox="0 0 22 22" fill="none" xmlns="http://www.w3.org/2000/svg">
  <path strokeWidth="0" d="M0.236977 10.4745C0.329749 10.5441 0.446393 10.5741 0.561255 10.5578C0.676118 10.5414 0.779792 10.4802 0.849477 10.3874C1.42008 9.62668 2.15994 9.00924 3.01049 8.58398C3.86105 8.15872 4.79892 7.93731 5.74986 7.93729C6.7008 7.93727 7.63868 8.15864 8.48925 8.58386C9.33982 9.00908 10.0797 9.62648 10.6504 10.3872C10.6529 10.3906 10.656 10.393 10.6587 10.3963C10.6702 10.4104 10.6826 10.4239 10.6959 10.4365C10.7045 10.445 10.7131 10.4535 10.7224 10.4611C10.7276 10.4654 10.7315 10.4704 10.737 10.4745C10.7469 10.482 10.7578 10.4876 10.768 10.4942C10.7743 10.498 10.7803 10.5022 10.7866 10.5057C10.8075 10.5175 10.8294 10.5275 10.8519 10.5357C10.854 10.5365 10.856 10.5376 10.8581 10.5382C10.8836 10.547 10.9099 10.5534 10.9367 10.5573C10.9405 10.5578 10.9444 10.5577 10.9481 10.5581C10.9651 10.5605 10.9823 10.5618 10.9995 10.5622C11.003 10.5622 11.0065 10.5611 11.01 10.561C11.0335 10.5602 11.0568 10.5575 11.0799 10.553C11.0869 10.5517 11.0941 10.5516 11.1011 10.5499C11.1317 10.5427 11.1615 10.5321 11.1899 10.5184C11.1957 10.5157 11.2008 10.5115 11.2065 10.5085C11.2262 10.4985 11.245 10.4871 11.263 10.4742C11.2657 10.4722 11.2677 10.4695 11.2704 10.4674C11.2783 10.4611 11.2852 10.4537 11.2927 10.4468C11.3101 10.4313 11.3262 10.4145 11.3408 10.3965C11.3436 10.3932 11.347 10.3908 11.3496 10.3874C11.9202 9.6267 12.66 9.00928 13.5106 8.58403C14.3611 8.15878 15.299 7.93739 16.2499 7.93736C17.2008 7.93734 18.1387 8.1587 18.9893 8.58391C19.8398 9.00912 20.5797 9.62651 21.1504 10.3872C21.1845 10.434 21.2276 10.4736 21.2772 10.5036C21.3268 10.5337 21.3819 10.5535 21.4392 10.5621C21.4966 10.5707 21.555 10.5678 21.6112 10.5535C21.6674 10.5393 21.7202 10.514 21.7666 10.4792C21.8129 10.4444 21.8519 10.4007 21.8812 10.3507C21.9106 10.3007 21.9297 10.2454 21.9374 10.1879C21.9452 10.1305 21.9414 10.072 21.9264 10.016C21.9114 9.96005 21.8854 9.9076 21.8499 9.86174C20.9622 8.67066 19.7165 7.79513 18.2951 7.3634C19.0293 6.91715 19.5974 6.243 19.9127 5.44377C20.2281 4.64455 20.2733 3.76411 20.0416 2.93676C19.8099 2.10942 19.314 1.38056 18.6294 0.861373C17.9448 0.342184 17.1092 0.0611572 16.25 0.0611572C15.3908 0.0611572 14.5552 0.342184 13.8707 0.861373C13.1861 1.38056 12.6901 2.10942 12.4584 2.93676C12.2267 3.76411 12.272 4.64455 12.5873 5.44377C12.9026 6.243 13.4707 6.91715 14.2049 7.3634C12.9637 7.74037 11.8533 8.45824 11 9.43529C10.1468 8.45823 9.03632 7.74036 7.79512 7.3634C8.52932 6.91715 9.09741 6.243 9.41275 5.44377C9.72808 4.64455 9.77334 3.76411 9.54163 2.93676C9.30992 2.10942 8.81396 1.38056 8.12938 0.861373C7.44481 0.342184 6.60921 0.0611572 5.75002 0.0611572C4.89084 0.0611572 4.05524 0.342184 3.37066 0.861373C2.68609 1.38056 2.19013 2.10942 1.95842 2.93676C1.72671 3.76411 1.77197 4.64455 2.0873 5.44377C2.40263 6.243 2.97072 6.91715 3.70493 7.3634C2.28351 7.79519 1.03771 8.6708 0.150024 9.86196C0.0803576 9.95473 0.0503931 10.0714 0.0667199 10.1862C0.0830468 10.3011 0.144328 10.4048 0.237086 10.4745H0.236977ZM13.1875 3.9999C13.1875 3.3942 13.3671 2.80209 13.7036 2.29847C14.0402 1.79484 14.5185 1.40231 15.0781 1.17052C15.6377 0.938726 16.2534 0.878079 16.8475 0.996246C17.4416 1.11441 17.9872 1.40609 18.4155 1.83439C18.8438 2.26268 19.1355 2.80837 19.2537 3.40244C19.3718 3.9965 19.3112 4.61227 19.0794 5.17187C18.8476 5.73147 18.4551 6.20976 17.9515 6.54628C17.4478 6.88279 16.8557 7.0624 16.25 7.0624C15.4381 7.0615 14.6596 6.73856 14.0855 6.16442C13.5114 5.59029 13.1884 4.81185 13.1875 3.9999ZM2.68752 3.9999C2.68752 3.3942 2.86714 2.80209 3.20365 2.29847C3.54016 1.79484 4.01846 1.40231 4.57806 1.17052C5.13765 0.938726 5.75342 0.878079 6.34749 0.996246C6.94156 1.11441 7.48724 1.40609 7.91554 1.83439C8.34384 2.26268 8.63551 2.80837 8.75368 3.40244C8.87185 3.9965 8.8112 4.61227 8.5794 5.17187C8.34761 5.73147 7.95508 6.20976 7.45146 6.54628C6.94783 6.88279 6.35573 7.0624 5.75002 7.0624C4.93807 7.0615 4.15964 6.73856 3.5855 6.16442C3.01136 5.59029 2.68842 4.81185 2.68752 3.9999ZM18.2951 18.7384C19.0293 18.2922 19.5974 17.618 19.9127 16.8188C20.2281 16.0195 20.2733 15.1391 20.0416 14.3118C19.8099 13.4844 19.314 12.7556 18.6294 12.2364C17.9448 11.7172 17.1092 11.4362 16.25 11.4362C15.3908 11.4362 14.5552 11.7172 13.8707 12.2364C13.1861 12.7556 12.6901 13.4844 12.4584 14.3118C12.2267 15.1391 12.272 16.0195 12.5873 16.8188C12.9026 17.618 13.4707 18.2922 14.2049 18.7384C12.9637 19.1154 11.8533 19.8332 11 20.8103C10.1468 19.8332 9.03632 19.1154 7.79512 18.7384C8.52932 18.2922 9.09741 17.618 9.41275 16.8188C9.72808 16.0195 9.77334 15.1391 9.54163 14.3118C9.30992 13.4844 8.81396 12.7556 8.12938 12.2364C7.44481 11.7172 6.60921 11.4362 5.75002 11.4362C4.89084 11.4362 4.05524 11.7172 3.37066 12.2364C2.68609 12.7556 2.19013 13.4844 1.95842 14.3118C1.72671 15.1391 1.77197 16.0195 2.0873 16.8188C2.40263 17.618 2.97072 18.2922 3.70493 18.7384C2.28351 19.1702 1.03771 20.0458 0.150024 21.237C0.114556 21.2828 0.088556 21.3353 0.0735348 21.3913C0.0585136 21.4473 0.0547707 21.5057 0.0625236 21.5631C0.0702766 21.6206 0.0893708 21.6759 0.118696 21.7259C0.148022 21.7759 0.186995 21.8196 0.233349 21.8544C0.279703 21.8893 0.332515 21.9145 0.388715 21.9287C0.444915 21.943 0.503382 21.9459 0.56072 21.9373C0.618057 21.9288 0.673121 21.9089 0.722711 21.8789C0.772301 21.8488 0.815428 21.8092 0.849586 21.7624C1.42019 21.0017 2.16005 20.3842 3.0106 19.959C3.86116 19.5337 4.79903 19.3123 5.74997 19.3123C6.70091 19.3123 7.63879 19.5336 8.48936 19.9589C9.33993 20.3841 10.0798 21.0015 10.6505 21.7622C10.653 21.7656 10.6561 21.768 10.6588 21.7713C10.6703 21.7854 10.6827 21.7989 10.696 21.8115C10.7046 21.82 10.7132 21.8285 10.7225 21.8361C10.7277 21.8404 10.7316 21.8454 10.7371 21.8495C10.7471 21.8571 10.7579 21.8626 10.7683 21.8692C10.7745 21.8731 10.7803 21.8772 10.7866 21.8807C10.8078 21.8926 10.8299 21.9027 10.8527 21.9109C10.8544 21.9116 10.8562 21.9126 10.8582 21.9132C10.8838 21.922 10.9102 21.9284 10.937 21.9323C10.9403 21.9328 10.9436 21.9327 10.947 21.933C10.9644 21.9354 10.9819 21.9368 10.9995 21.9372C11.0032 21.9372 11.0068 21.9361 11.0104 21.936C11.0333 21.9352 11.0561 21.9326 11.0786 21.9282C11.0862 21.9268 11.0939 21.9266 11.1015 21.9248C11.132 21.9176 11.1617 21.9071 11.1899 21.8935C11.196 21.8906 11.2013 21.8862 11.2073 21.883C11.2267 21.8732 11.2453 21.8619 11.2631 21.8492C11.2658 21.8472 11.2678 21.8445 11.2705 21.8424C11.2784 21.8361 11.2853 21.8287 11.2928 21.8218C11.3102 21.8063 11.3263 21.7895 11.3409 21.7715C11.3437 21.7682 11.3471 21.7658 11.3497 21.7624C11.9203 21.0017 12.6602 20.3843 13.5107 19.959C14.3612 19.5338 15.2991 19.3124 16.25 19.3124C17.2009 19.3123 18.1388 19.5337 18.9894 19.9589C19.8399 20.3841 20.5798 21.0015 21.1505 21.7622C21.1846 21.809 21.2277 21.8486 21.2773 21.8786C21.3269 21.9087 21.382 21.9285 21.4393 21.9371C21.4967 21.9457 21.5551 21.9428 21.6113 21.9285C21.6675 21.9143 21.7203 21.889 21.7667 21.8542C21.8131 21.8194 21.852 21.7757 21.8814 21.7257C21.9107 21.6757 21.9298 21.6204 21.9375 21.5629C21.9453 21.5055 21.9415 21.447 21.9265 21.391C21.9115 21.3351 21.8855 21.2826 21.85 21.2367C20.9623 20.0457 19.7166 19.1701 18.2952 18.7384H18.2951ZM2.68752 15.3749C2.68752 14.7692 2.86714 14.1771 3.20365 13.6735C3.54016 13.1698 4.01846 12.7773 4.57806 12.5455C5.13765 12.3137 5.75342 12.2531 6.34749 12.3712C6.94156 12.4894 7.48724 12.7811 7.91554 13.2094C8.34384 13.6377 8.63551 14.1834 8.75368 14.7774C8.87185 15.3715 8.8112 15.9873 8.5794 16.5469C8.34761 17.1065 7.95508 17.5848 7.45146 17.9213C6.94783 18.2578 6.35573 18.4374 5.75002 18.4374C4.93807 18.4365 4.15964 18.1136 3.5855 17.5394C3.01136 16.9653 2.68842 16.1869 2.68752 15.3749ZM13.1875 15.3749C13.1875 14.7692 13.3671 14.1771 13.7036 13.6735C14.0402 13.1698 14.5185 12.7773 15.0781 12.5455C15.6377 12.3137 16.2534 12.2531 16.8475 12.3712C17.4416 12.4894 17.9872 12.7811 18.4155 13.2094C18.8438 13.6377 19.1355 14.1834 19.2537 14.7774C19.3718 15.3715 19.3112 15.9873 19.0794 16.5469C18.8476 17.1065 18.4551 17.5848 17.9515 17.9213C17.4478 18.2578 16.8557 18.4374 16.25 18.4374C15.4381 18.4365 14.6596 18.1136 14.0855 17.5394C13.5114 16.9653 13.1884 16.1869 13.1875 15.3749Z" fill="black" />
</svg>
