<svg width="16" height="17" viewBox="0 0 16 17" fill="none" xmlns="http://www.w3.org/2000/svg">
<path d="M6.6 3.3265C7.05889 3.21909 7.52871 3.1654 8 3.1665C12.6667 3.1665 15.3333 8.49984 15.3333 8.49984C14.9287 9.25691 14.446 9.96966 13.8933 10.6265M9.41333 9.91317C9.23024 10.1097 9.00943 10.2673 8.7641 10.3766C8.51877 10.4859 8.25394 10.5447 7.98539 10.5494C7.71685 10.5542 7.45011 10.5048 7.20107 10.4042C6.95204 10.3036 6.72582 10.1539 6.5359 9.96394C6.34598 9.77402 6.19626 9.5478 6.09567 9.29876C5.99508 9.04973 5.94569 8.78298 5.95042 8.51444C5.95516 8.2459 6.01394 7.98107 6.12325 7.73574C6.23256 7.4904 6.39017 7.2696 6.58667 7.0865M0.666668 1.1665L15.3333 15.8332M11.96 12.4598C10.8204 13.3285 9.43274 13.8097 8 13.8332C3.33333 13.8332 0.666668 8.49984 0.666668 8.49984C1.49593 6.95443 2.64609 5.60424 4.04 4.53984L11.96 12.4598Z" stroke="#98A2B3" stroke-width="1.5" stroke-linecap="round" stroke-linejoin="round"/>
</svg>
