<svg width="26" height="26" viewBox="0 0 26 26" fill="none" xmlns="http://www.w3.org/2000/svg">
<g clip-path="url(#clip0_11750_344703)">
<path d="M24.2 20.4671V17.2671C24.6243 17.2671 25.0313 17.4357 25.3313 17.7357C25.6314 18.0358 25.8 18.4427 25.8 18.8671C25.8 19.2914 25.6314 19.6984 25.3313 19.9985C25.0313 20.2985 24.6243 20.4671 24.2 20.4671Z" fill="#E43B46"/>
<path d="M23.6666 0.200195H2.33328C1.76749 0.200195 1.22487 0.424957 0.82479 0.825034C0.424712 1.22511 0.199951 1.76773 0.199951 2.33353L0.199951 17.2669C0.199951 17.8327 0.424712 18.3753 0.82479 18.7754C1.22487 19.1754 1.76749 19.4002 2.33328 19.4002H11.4373C11.384 19.0466 11.384 18.6871 11.4373 18.3335H2.33328C2.05039 18.3335 1.77908 18.2211 1.57904 18.0211C1.379 17.8211 1.26662 17.5498 1.26662 17.2669V4.46686H24.7333V13.0962C25.0445 13.2062 25.3141 13.4098 25.5051 13.6791C25.696 13.9484 25.799 14.2701 25.7999 14.6002V2.33353C25.7999 1.76773 25.5752 1.22511 25.1751 0.825034C24.775 0.424957 24.2324 0.200195 23.6666 0.200195V0.200195ZM2.86662 2.86686C2.72517 2.86686 2.58951 2.81067 2.48949 2.71065C2.38947 2.61063 2.33328 2.47498 2.33328 2.33353C2.33328 2.19208 2.38947 2.05642 2.48949 1.9564C2.58951 1.85639 2.72517 1.8002 2.86662 1.8002C3.00807 1.8002 3.14372 1.85639 3.24374 1.9564C3.34376 2.05642 3.39995 2.19208 3.39995 2.33353C3.39995 2.47498 3.34376 2.61063 3.24374 2.71065C3.14372 2.81067 3.00807 2.86686 2.86662 2.86686ZM4.99995 2.86686C4.8585 2.86686 4.72285 2.81067 4.62283 2.71065C4.52281 2.61063 4.46662 2.47498 4.46662 2.33353C4.46662 2.19208 4.52281 2.05642 4.62283 1.9564C4.72285 1.85639 4.8585 1.8002 4.99995 1.8002C5.1414 1.8002 5.27705 1.85639 5.37707 1.9564C5.47709 2.05642 5.53328 2.19208 5.53328 2.33353C5.53328 2.47498 5.47709 2.61063 5.37707 2.71065C5.27705 2.81067 5.1414 2.86686 4.99995 2.86686ZM7.13328 2.86686C6.99184 2.86686 6.85618 2.81067 6.75616 2.71065C6.65614 2.61063 6.59995 2.47498 6.59995 2.33353C6.59995 2.19208 6.65614 2.05642 6.75616 1.9564C6.85618 1.85639 6.99184 1.8002 7.13328 1.8002C7.27473 1.8002 7.41039 1.85639 7.51041 1.9564C7.61043 2.05642 7.66662 2.19208 7.66662 2.33353C7.66662 2.47498 7.61043 2.61063 7.51041 2.71065C7.41039 2.81067 7.27473 2.86686 7.13328 2.86686Z" fill="#E43B46"/>
<path d="M12.9999 15.1334C12.1561 15.1334 11.3312 14.8832 10.6295 14.4144C9.92786 13.9455 9.38099 13.2792 9.05806 12.4995C8.73513 11.7199 8.65063 10.862 8.81526 10.0344C8.97989 9.20673 9.38625 8.44648 9.98296 7.84978C10.5797 7.25307 11.3399 6.84671 12.1676 6.68208C12.9952 6.51745 13.8531 6.60195 14.6327 6.92488C15.4124 7.24781 16.0787 7.79468 16.5476 8.49633C17.0164 9.19798 17.2666 10.0229 17.2666 10.8668C17.2666 11.9984 16.8171 13.0836 16.0169 13.8838C15.2168 14.6839 14.1315 15.1334 12.9999 15.1334ZM12.9999 7.66677C12.367 7.66677 11.7484 7.85444 11.2221 8.20606C10.6959 8.55768 10.2857 9.05746 10.0435 9.64218C9.80133 10.2269 9.73796 10.8703 9.86143 11.4911C9.98491 12.1118 10.2897 12.682 10.7372 13.1295C11.1847 13.577 11.7549 13.8818 12.3757 14.0053C12.9964 14.1288 13.6398 14.0654 14.2245 13.8232C14.8093 13.581 15.309 13.1708 15.6606 12.6446C16.0123 12.1184 16.1999 11.4997 16.1999 10.8668C16.1999 10.0181 15.8628 9.20414 15.2627 8.60402C14.6626 8.00391 13.8486 7.66677 12.9999 7.66677Z" fill="#E43B46"/>
<path d="M11.9332 12.4671V9.26709L15.1332 10.8671L11.9332 12.4671Z" fill="#E43B46"/>
<path d="M23.9278 14.1415C22.2295 15.1627 20.3432 15.832 18.3811 16.1095C17.5598 16.2268 18.1944 16.2002 15.1331 16.2002C14.4718 16.1995 13.8338 16.4446 13.3431 16.8878C12.8523 17.3311 12.5437 17.9409 12.4773 18.5988C12.4108 19.2568 12.5912 19.916 12.9834 20.4484C13.3756 20.9808 13.9517 21.3486 14.5998 21.4802V25.2668C14.5998 25.4083 14.656 25.5439 14.756 25.6439C14.856 25.744 14.9916 25.8001 15.1331 25.8001H17.7998C17.9412 25.8001 18.0769 25.744 18.1769 25.6439C18.2769 25.5439 18.3331 25.4083 18.3331 25.2668C18.3331 23.7895 18.4398 24.0881 17.7998 23.4481V21.5335C23.2131 22.3068 23.7144 24.0188 24.4611 23.5921C24.8504 23.3735 24.7331 23.7628 24.7331 14.5948C24.7321 14.5011 24.7065 14.4094 24.6588 14.3287C24.6111 14.2481 24.5431 14.1814 24.4614 14.1355C24.3798 14.0895 24.2875 14.0659 24.1938 14.0669C24.1001 14.068 24.0084 14.0937 23.9278 14.1415ZM13.5331 18.8668C13.5331 18.4425 13.7017 18.0355 14.0017 17.7354C14.3018 17.4354 14.7088 17.2668 15.1331 17.2668H17.2664V20.4668H15.1331C14.7088 20.4668 14.3018 20.2982 14.0017 19.9982C13.7017 19.6981 13.5331 19.2912 13.5331 18.8668ZM17.2664 24.7335H15.6664V21.5335H16.7331C16.7331 24.2428 16.5891 23.7468 17.2664 24.4188V24.7335ZM23.6664 22.2215C22.0014 21.3509 20.196 20.7804 18.3331 20.5362V17.1975C20.196 16.9532 22.0014 16.3827 23.6664 15.5122V22.2215Z" fill="#E43B46"/>
</g>
<defs>
<clipPath id="clip0_11750_344703">
<rect width="25.6" height="25.6" fill="white" transform="translate(0.199951 0.200195)"/>
</clipPath>
</defs>
</svg>
