<svg width="18" height="17" viewBox="0 0 18 17" fill="none" xmlns="http://www.w3.org/2000/svg">
  <path d="M5.21359 13.9207L5.4762 14.052C6.57058 14.7086 7.79618 15.015 9.02183 15.015C12.8738 15.015 16.0254 11.8634 16.0254 8.01141C16.0254 6.17299 15.2813 4.3783 13.9681 3.06511C12.6549 1.75192 10.904 1.00781 9.02183 1.00781C5.16985 1.00781 2.01817 4.15943 2.06197 8.05521C2.06197 9.36834 2.45593 10.6378 3.11249 11.7321L3.28757 11.9947L2.58726 14.5773L5.21359 13.9207Z" fill="#4286D6" />
  <path d="M14.7124 2.36371C13.2241 0.831704 11.1668 0 9.06569 0C4.60094 0 1.01157 3.63311 1.05531 8.05411C1.05531 9.45485 1.44926 10.8118 2.10589 12.0374L0.967773 16.1958L5.21371 15.1015C6.39556 15.7581 7.70869 16.0646 9.02195 16.0646C13.443 16.0646 17.0323 12.4314 17.0323 8.01044C17.0323 5.86554 16.2006 3.85198 14.7124 2.36371H14.7124ZM9.06569 14.7076C7.88383 14.7076 6.70198 14.4013 5.6952 13.7884L5.43258 13.6571L2.8938 14.3137L3.55036 11.8187L3.37529 11.556C1.44926 8.44819 2.36851 4.33347 5.52012 2.40745C8.67173 0.48149 12.7426 1.40073 14.6686 4.55235C16.5946 7.70396 15.6753 11.7748 12.5238 13.7008C11.5169 14.3574 10.2913 14.7076 9.06569 14.7076V14.7076ZM12.9177 9.84892L12.4362 9.63005C12.4362 9.63005 11.7359 9.32363 11.2981 9.10476C11.2543 9.10476 11.2106 9.06096 11.1668 9.06096C11.0354 9.06096 10.9479 9.10476 10.8604 9.14856C10.8604 9.14856 10.8166 9.1923 10.2038 9.89266C10.16 9.9802 10.0725 10.024 9.98493 10.024H9.94113C9.89739 10.024 9.80985 9.9802 9.76605 9.93646L9.54718 9.84892C9.06569 9.63005 8.628 9.36737 8.27778 9.01722C8.19025 8.92968 8.05891 8.84214 7.97137 8.75461C7.66496 8.44819 7.35854 8.09798 7.13973 7.70403L7.09593 7.61649C7.05219 7.57269 7.05219 7.52895 7.00839 7.44141C7.00839 7.35387 7.00839 7.26634 7.05219 7.22254C7.05219 7.22254 7.22727 7.00366 7.35854 6.87238C7.44614 6.78478 7.48988 6.65351 7.57742 6.56597C7.66496 6.43463 7.70876 6.25956 7.66496 6.12822C7.62122 5.90934 7.09593 4.72749 6.96465 4.46487C6.87705 4.33353 6.78958 4.2898 6.65824 4.246H6.17675C6.08915 4.246 6.00167 4.2898 5.91407 4.2898L5.87027 4.33353C5.78273 4.37733 5.6952 4.46487 5.60766 4.50861C5.52012 4.59621 5.47632 4.68369 5.38878 4.77129C5.08237 5.16524 4.90729 5.64673 4.90729 6.12822C4.90729 6.47837 4.99483 6.82858 5.12617 7.135L5.16997 7.26634C5.56392 8.09798 6.08915 8.84214 6.78958 9.49871L6.96465 9.67378C7.09593 9.80512 7.22727 9.89266 7.3148 10.0239C8.23405 10.8119 9.28456 11.3809 10.4664 11.6873C10.5978 11.7311 10.7728 11.7311 10.9042 11.7749H11.3419C11.5607 11.7749 11.8233 11.6873 11.9985 11.5998C12.1298 11.5123 12.2173 11.5123 12.3048 11.4247L12.3924 11.3371C12.48 11.2496 12.5675 11.2059 12.6551 11.1183C12.7426 11.0308 12.8301 10.9432 12.8739 10.8556C12.9615 10.6806 13.0052 10.4617 13.049 10.2429V9.93646C13.049 9.93646 13.0052 9.89266 12.9177 9.84892Z" fill="white" />
</svg>
