<svg width="24" height="25" viewBox="0 0 24 25" fill="none" xmlns="http://www.w3.org/2000/svg">
<rect width="24" height="24.2812" rx="12" fill="#EAF2FA"/>
<path d="M8.21359 17.9207L8.4762 18.052C9.57058 18.7086 10.7962 19.015 12.0218 19.015C15.8738 19.015 19.0254 15.8634 19.0254 12.0114C19.0254 10.173 18.2813 8.3783 16.9681 7.06511C15.6549 5.75192 13.904 5.00781 12.0218 5.00781C8.16985 5.00781 5.01817 8.15943 5.06197 12.0552C5.06197 13.3683 5.45593 14.6378 6.11249 15.7321L6.28757 15.9947L5.58726 18.5773L8.21359 17.9207Z" fill="#4286D6"/>
<path d="M17.7126 6.36371C16.2243 4.8317 14.167 4 12.0659 4C7.60119 4 4.01182 7.63311 4.05556 12.0541C4.05556 13.4548 4.44951 14.8118 5.10614 16.0374L3.96802 20.1958L8.21395 19.1015C9.39581 19.7581 10.7089 20.0646 12.0222 20.0646C16.4432 20.0646 20.0326 16.4314 20.0326 12.0104C20.0326 9.86554 19.2009 7.85198 17.7127 6.36371H17.7126ZM12.0659 18.7076C10.8841 18.7076 9.70222 18.4013 8.69544 17.7884L8.43283 17.6571L5.89404 18.3137L6.5506 15.8187L6.37553 15.556C4.44951 12.4482 5.36875 8.33347 8.52036 6.40745C11.672 4.48149 15.7428 5.40073 17.6689 8.55235C19.5948 11.704 18.6756 15.7748 15.524 17.7008C14.5172 18.3574 13.2916 18.7076 12.0659 18.7076V18.7076ZM15.9179 13.8489L15.4364 13.63C15.4364 13.63 14.7361 13.3236 14.2984 13.1048C14.2546 13.1048 14.2108 13.061 14.167 13.061C14.0357 13.061 13.9482 13.1048 13.8606 13.1486C13.8606 13.1486 13.8169 13.1923 13.204 13.8927C13.1602 13.9802 13.0727 14.024 12.9852 14.024H12.9414C12.8976 14.024 12.8101 13.9802 12.7663 13.9365L12.5474 13.8489C12.0659 13.63 11.6282 13.3674 11.278 13.0172C11.1905 12.9297 11.0592 12.8421 10.9716 12.7546C10.6652 12.4482 10.3588 12.098 10.14 11.704L10.0962 11.6165C10.0524 11.5727 10.0524 11.5289 10.0086 11.4414C10.0086 11.3539 10.0086 11.2663 10.0524 11.2225C10.0524 11.2225 10.2275 11.0037 10.3588 10.8724C10.4464 10.7848 10.4901 10.6535 10.5777 10.566C10.6652 10.4346 10.709 10.2596 10.6652 10.1282C10.6215 9.90934 10.0962 8.72749 9.9649 8.46487C9.8773 8.33353 9.78982 8.2898 9.65848 8.246H9.17699C9.08939 8.246 9.00192 8.2898 8.91432 8.2898L8.87052 8.33353C8.78298 8.37733 8.69544 8.46487 8.6079 8.50861C8.52036 8.59621 8.47656 8.68369 8.38903 8.77129C8.08261 9.16524 7.90754 9.64673 7.90754 10.1282C7.90754 10.4784 7.99507 10.8286 8.12641 11.135L8.17021 11.2663C8.56416 12.098 9.08939 12.8421 9.78982 13.4987L9.9649 13.6738C10.0962 13.8051 10.2275 13.8927 10.315 14.0239C11.2343 14.8119 12.2848 15.3809 13.4667 15.6873C13.598 15.7311 13.7731 15.7311 13.9044 15.7749H14.3421C14.561 15.7749 14.8236 15.6873 14.9987 15.5998C15.13 15.5123 15.2175 15.5123 15.3051 15.4247L15.3927 15.3371C15.4802 15.2496 15.5678 15.2059 15.6553 15.1183C15.7428 15.0308 15.8304 14.9432 15.8742 14.8556C15.9617 14.6806 16.0055 14.4617 16.0493 14.2429V13.9365C16.0493 13.9365 16.0054 13.8927 15.9179 13.8489Z" fill="white"/>
</svg>
