<svg width="14" height="11" viewBox="0 0 14 11" fill="none" xmlns="http://www.w3.org/2000/svg">
  <path d="M13.7067 2.36744C13.6274 2.0847 13.473 1.82872 13.2599 1.62671C13.0408 1.4185 12.7722 1.26955 12.4795 1.19394C11.3842 0.905236 6.99582 0.905236 6.99582 0.905236C5.16637 0.884421 3.33736 0.975969 1.51913 1.17936C1.22646 1.26056 0.958379 1.41283 0.73875 1.62263C0.522949 1.83027 0.366639 2.08631 0.284984 2.36685C0.0888344 3.42355 -0.00646867 4.49649 0.00035997 5.57121C-0.00663899 6.64497 0.0884302 7.71756 0.284984 8.77557C0.364889 9.05494 0.520616 9.30982 0.737 9.51571C0.953385 9.72159 1.22284 9.87032 1.51913 9.94906C2.62905 10.2372 6.99582 10.2372 6.99582 10.2372C8.8276 10.258 10.6589 10.1665 12.4795 9.96306C12.7722 9.88745 13.0408 9.7385 13.2599 9.53029C13.4757 9.3244 13.6291 9.06836 13.7061 8.78956C13.9073 7.73328 14.0052 6.65989 13.9983 5.58462C14.0134 4.5048 13.9157 3.42636 13.7067 2.36685V2.36744ZM5.60069 7.56824V3.57476L9.25182 5.57179L5.60069 7.56824Z" fill="#E43B46" />
</svg>
