<svg width="702" height="675" viewBox="0 0 702 675" fill="none" xmlns="http://www.w3.org/2000/svg">
<g opacity="0.5">
<path d="M-85.4543 292.802L26.0973 153.527C21.6606 147.697 -86.7219 0.647793 -271.162 0.647793C-362.432 0.647793 -445.462 39.5154 -503.773 110.773C-554.478 172.313 -583 253.935 -583 334.261C-583 415.235 -552.577 498.153 -499.336 560.988C-437.222 634.189 -352.291 675 -259.754 675C-136.793 675 -48.0591 613.46 0.110901 558.397L0.744629 557.75C52.7176 494.914 126.874 402.927 205.467 304.463C205.467 303.815 206.735 302.519 206.735 302.519L218.777 287.62C233.989 268.186 249.834 248.752 265.046 229.319C266.948 227.375 268.215 224.136 270.75 222.193C331.597 145.753 391.175 70.6094 441.881 7.12572C420.331 2.59117 397.514 0 374.696 0C289.131 0 211.172 34.9808 153.494 91.3388C153.494 91.3388 153.494 91.3388 152.861 91.9866C140.818 103.647 130.043 115.955 119.902 129.559C-5.59351 274.016 -25.8756 334.261 -115.877 426.895C-120.314 431.43 -124.751 435.317 -129.188 439.851C-134.258 444.386 -138.695 449.568 -144.399 454.75C-167.217 474.832 -205.246 496.857 -259.12 496.857C-355.46 496.857 -408.067 402.279 -408.067 334.261C-408.067 269.482 -365.601 178.791 -270.529 178.791C-174.822 178.791 -115.244 256.526 -112.708 259.765L-113.342 259.117L-85.4543 292.802Z" fill="#F0F2F4"/>
<path d="M491.958 26.5859L369.632 178.817C370.899 178.817 372.167 178.169 374.068 178.169C458.366 178.169 527.452 253.961 527.452 340.118C527.452 426.274 458.366 496.883 374.068 496.883C297.377 496.883 233.361 437.934 223.22 361.495L97.7246 517.613C155.402 611.543 257.446 674.379 374.068 674.379C555.34 674.379 701.751 524.091 701.751 339.47C701.751 198.899 614.285 77.1138 491.958 26.5859Z" fill="#F0F2F4"/>
</g>
</svg>
