<svg width="100%" height="100%" viewBox="0 0 51 25" fill="none" xmlns="http://www.w3.org/2000/svg">
  <path d="M24.7487 10.0405L28.3135 5.58973C28.1718 5.40341 24.7082 0.704173 18.814 0.704173C15.8973 0.704173 13.2439 1.94626 11.3805 4.22343C9.7601 6.19007 8.84863 8.79846 8.84863 11.3654C8.84863 13.9531 9.82087 16.6029 11.5223 18.611C13.5072 20.9502 16.2214 22.2544 19.1786 22.2544C23.108 22.2544 25.9437 20.2878 27.4831 18.5282L27.5033 18.5075C29.1642 16.4994 31.5341 13.5598 34.0457 10.4132C34.0457 10.3925 34.0862 10.3511 34.0862 10.3511L34.471 9.87494C34.9571 9.25389 35.4635 8.63285 35.9496 8.0118C36.0104 7.9497 36.0509 7.84619 36.1319 7.78408C38.0764 5.34131 39.9803 2.93993 41.6007 0.911188C40.9121 0.766278 40.1829 0.683472 39.4537 0.683472C36.7193 0.683472 34.228 1.80135 32.3848 3.60238C32.3848 3.60238 32.3848 3.60238 32.3645 3.62308C31.9797 3.99571 31.6353 4.38904 31.3113 4.82377C27.3008 9.4402 26.6526 11.3654 23.7765 14.3258C23.6347 14.4707 23.4929 14.5949 23.3511 14.7398C23.1891 14.8847 23.0473 15.0503 22.865 15.2159C22.1358 15.8577 20.9205 16.5615 19.1989 16.5615C16.1201 16.5615 14.439 13.5391 14.439 11.3654C14.439 9.29529 15.796 6.39708 18.8343 6.39708C21.8928 6.39708 23.7967 8.88126 23.8777 8.98477L23.8575 8.96407L24.7487 10.0405Z" fill="#E43B46" />
  <path d="M43.1996 1.53235L39.2904 6.3972C39.3309 6.3972 39.3714 6.3765 39.4322 6.3765C42.1261 6.3765 44.3339 8.79857 44.3339 11.5519C44.3339 14.3052 42.1261 16.5616 39.4322 16.5616C36.9814 16.5616 34.9356 14.6778 34.6115 12.235L30.6011 17.2241C32.4443 20.2258 35.7053 22.2338 39.4322 22.2338C45.2251 22.2338 49.9039 17.4311 49.9039 11.5312C49.9039 7.03895 47.1088 3.14707 43.1996 1.53235Z" fill="#E43B46" />
  <path d="M4.84653 7.52341C6.6646 7.08464 7.79042 5.22262 7.36112 3.36446C6.93183 1.5063 5.10998 0.35565 3.29191 0.794414C1.47384 1.23318 0.348015 3.0952 0.777312 4.95336C1.20661 6.81153 3.02846 7.96217 4.84653 7.52341Z" fill="#173D6A" />
  <path d="M6.9028 8.15625C6.11286 8.75659 5.12038 9.10852 4.06712 9.10852C3.01387 9.10852 2.02138 8.75659 1.23145 8.15625V21.4052H6.9028V8.15625Z" fill="#173D6A" />
</svg>
