<svg width="100%" height="100%" viewBox="0 0 137 36" fill="none" xmlns="http://www.w3.org/2000/svg">
  <path d="M24.7487 10.0405L28.3135 5.58973C28.1718 5.40341 24.7082 0.704173 18.814 0.704173C15.8973 0.704173 13.2439 1.94626 11.3805 4.22343C9.7601 6.19007 8.84863 8.79846 8.84863 11.3654C8.84863 13.9531 9.82087 16.6029 11.5223 18.611C13.5072 20.9502 16.2214 22.2544 19.1786 22.2544C23.108 22.2544 25.9437 20.2878 27.4831 18.5282L27.5033 18.5075C29.1642 16.4994 31.5341 13.5598 34.0457 10.4132C34.0457 10.3925 34.0862 10.3511 34.0862 10.3511L34.471 9.87494C34.9571 9.25389 35.4635 8.63285 35.9496 8.0118C36.0104 7.9497 36.0509 7.84619 36.1319 7.78408C38.0764 5.34131 39.9803 2.93993 41.6007 0.911188C40.9121 0.766278 40.1829 0.683472 39.4537 0.683472C36.7193 0.683472 34.228 1.80135 32.3848 3.60238C32.3848 3.60238 32.3848 3.60238 32.3645 3.62308C31.9797 3.99571 31.6353 4.38904 31.3113 4.82377C27.3008 9.4402 26.6526 11.3654 23.7765 14.3258C23.6347 14.4707 23.4929 14.5949 23.3511 14.7398C23.1891 14.8847 23.0473 15.0503 22.865 15.2159C22.1358 15.8577 20.9205 16.5615 19.1989 16.5615C16.1201 16.5615 14.439 13.5391 14.439 11.3654C14.439 9.29529 15.796 6.39708 18.8343 6.39708C21.8928 6.39708 23.7967 8.88126 23.8777 8.98477L23.8575 8.96407L24.7487 10.0405Z" fill="#E43B46" />
  <path d="M61.4704 9.46055L51.2822 0.786621V21.4053H56.8523V13.1247L67.0405 22.1092V1.36626H61.4704V9.46055Z" fill="#E43B46" />
  <path d="M84.7417 1.36626H79.1716V9.46055L68.9834 0.786621V21.4053H74.5535V13.1247L84.7417 22.1092V1.36626Z" fill="#E43B46" />
  <path d="M86.687 21.4059H97.4423V15.713H92.2571V14.2638H97.4423V8.59164H92.2571V7.22534H97.4423V1.36682H86.687V21.4059Z" fill="#E43B46" />
  <path d="M114.68 8.98637L114.658 8.96436L114.68 8.98637Z" fill="#E43B46" />
  <path d="M114.54 14.2643L114.518 14.2863C114.518 14.2863 114.54 14.2863 114.54 14.2643Z" fill="#E43B46" />
  <path d="M109.635 0.703857C106.719 0.703857 104.065 1.94595 102.202 4.22311C100.581 6.18975 99.6699 8.79814 99.6699 11.3651C99.6699 13.9528 100.642 16.6026 102.344 18.6106C104.329 20.9499 107.043 22.2541 110 22.2541C114.962 22.2541 118.163 19.1282 119.256 17.2443L114.517 14.3047C114.334 14.5739 112.876 16.5819 110 16.5819C106.921 16.5819 105.24 13.5595 105.24 11.3858C105.24 9.31568 106.597 6.41747 109.635 6.41747C112.572 6.41747 114.436 8.69463 114.659 8.96375L119.135 5.61011C118.993 5.4031 115.529 0.703857 109.635 0.703857Z" fill="#E43B46" />
  <path d="M121.222 7.18394H125.942V21.4059H131.613V7.18394H136.575V1.36682H121.222V7.18394Z" fill="#E43B46" />
  <path d="M4.84653 7.52341C6.6646 7.08464 7.79042 5.22262 7.36112 3.36446C6.93183 1.5063 5.10998 0.35565 3.29191 0.794414C1.47384 1.23318 0.348015 3.0952 0.777312 4.95336C1.20661 6.81153 3.02846 7.96217 4.84653 7.52341Z" fill="#173D6A" />
  <path d="M6.9028 8.15625C6.11286 8.75659 5.12038 9.10852 4.06712 9.10852C3.01387 9.10852 2.02138 8.75659 1.23145 8.15625V21.4052H6.9028V8.15625Z" fill="#173D6A" />
  <path d="M43.1996 1.53235L39.2904 6.3972C39.3309 6.3972 39.3714 6.3765 39.4322 6.3765C42.1261 6.3765 44.3339 8.79857 44.3339 11.5519C44.3339 14.3052 42.1261 16.5616 39.4322 16.5616C36.9814 16.5616 34.9356 14.6778 34.6115 12.235L30.6011 17.2241C32.4443 20.2258 35.7053 22.2338 39.4322 22.2338C45.2251 22.2338 49.9039 17.4311 49.9039 11.5312C49.9039 7.03895 47.1088 3.14707 43.1996 1.53235Z" fill="#E43B46" />
  <path d="M1.81884 27.8022H1.23145V32.3773H1.81884V27.8022Z" fill="#808285" />
  <path d="M5.81064 32.3984V30.2661C5.81064 29.231 5.18274 28.7135 4.37254 28.7135C3.88642 28.7135 3.48133 28.9205 3.23827 29.2931V28.7756H2.65088V32.3777H3.23827V30.3903C3.23827 29.6244 3.64337 29.231 4.25101 29.231C4.8384 29.231 5.2435 29.6037 5.2435 30.3489V32.3777H5.81064V32.3984Z" fill="#808285" />
  <path d="M9.31298 27.5336H8.72559V32.3984H9.31298V27.5336Z" fill="#808285" />
  <path d="M7.99752 27.8649V27.368C7.10631 27.368 6.70121 27.72 6.70121 28.5273V28.7757H6.23535V29.2726H6.70121V32.3778H7.2886V29.2726H8.03803V28.7757H7.2886V28.5273C7.30886 28.0719 7.4709 27.8649 7.99752 27.8649Z" fill="#808285" />
  <path d="M13.262 32.3983V28.7963H12.6746V30.7836C12.6746 31.5496 12.2696 31.9429 11.6619 31.9429C11.0745 31.9429 10.6694 31.5703 10.6694 30.8457V28.817H10.082V30.9285C10.082 31.9636 10.7099 32.4811 11.5201 32.4811C11.986 32.4811 12.4113 32.2741 12.6544 31.9015V32.4397H13.262V32.3983Z" fill="#808285" />
  <path d="M17.3144 30.4531C17.3144 29.4594 16.646 28.7349 15.613 28.7349C14.58 28.7349 13.8711 29.4594 13.8711 30.598C13.8711 31.7366 14.6205 32.4611 15.613 32.4611C16.484 32.4611 17.0511 31.9436 17.2334 31.2811H16.6055C16.484 31.6745 16.1396 31.9436 15.613 31.9436C15.0054 31.9436 14.5192 31.5503 14.4585 30.805H17.2942C17.3144 30.6808 17.3144 30.5773 17.3144 30.4531ZM14.4787 30.3289C14.5395 29.625 15.0256 29.2317 15.5928 29.2317C16.2004 29.2317 16.7068 29.625 16.7068 30.3289H14.4787Z" fill="#808285" />
  <path d="M21.0816 32.3984V30.2661C21.0816 29.231 20.4537 28.7135 19.6435 28.7135C19.1574 28.7135 18.7523 28.9205 18.5093 29.2931V28.7756H17.9219V32.3777H18.5093V30.3903C18.5093 29.6244 18.9144 29.231 19.522 29.231C20.1094 29.231 20.5145 29.6037 20.5145 30.3489V32.3777H21.0816V32.3984Z" fill="#808285" />
  <path d="M23.3721 29.231C23.8987 29.231 24.243 29.5002 24.3645 29.9349H24.9924C24.8102 29.1689 24.243 28.7135 23.3721 28.7135C22.3593 28.7135 21.6504 29.4381 21.6504 30.5766C21.6504 31.7152 22.3593 32.4398 23.3721 32.4398C24.243 32.4398 24.8102 31.9429 24.9924 31.2184H24.3848C24.2633 31.6738 23.9189 31.9222 23.3923 31.9222C22.7442 31.9222 22.2783 31.4461 22.2783 30.5559C22.258 29.7072 22.7442 29.231 23.3721 29.231Z" fill="#808285" />
  <path d="M28.8388 30.4531C28.8388 29.4594 28.1704 28.7349 27.1374 28.7349C26.1044 28.7349 25.3955 29.4594 25.3955 30.598C25.3955 31.7366 26.1449 32.4611 27.1374 32.4611C28.0084 32.4611 28.5755 31.9436 28.7578 31.2811H28.1299C28.0084 31.6745 27.6641 31.9436 27.1374 31.9436C26.5298 31.9436 26.0437 31.5503 25.9829 30.805H28.7983C28.8388 30.6808 28.8388 30.5773 28.8388 30.4531ZM26.0032 30.3289C26.0639 29.625 26.55 29.2317 27.1172 29.2317C27.7248 29.2317 28.2312 29.625 28.2312 30.3289H26.0032Z" fill="#808285" />
  <path d="M29.4463 28.7963V32.3984H30.0337V30.4317C30.0337 29.6037 30.459 29.3345 31.0262 29.3345H31.1882V28.7135C30.6211 28.7135 30.2565 28.9619 30.0539 29.3552V28.7756H29.4463V28.7963Z" fill="#808285" />
  <path d="M37.7929 32.3984V27.8441H37.1853L35.5244 31.5911L33.8838 27.8441H33.2559V32.3984H33.8432V28.9827L35.3218 32.3984H35.7269L37.2055 29.0034V32.3984H37.7929Z" fill="#808285" />
  <path d="M41.9845 32.399V28.797H41.3971V29.4594C41.1946 29.0868 40.749 28.7349 40.0806 28.7349C39.1286 28.7349 38.3994 29.4594 38.3994 30.5773C38.3994 31.6952 39.1286 32.4611 40.0603 32.4611C40.7085 32.4611 41.1743 32.1092 41.3769 31.7366V32.399H41.9845ZM40.2021 31.9229C39.5539 31.9229 39.0071 31.4261 39.0071 30.5773C39.0071 29.7285 39.5539 29.2524 40.2021 29.2524C40.8502 29.2524 41.3971 29.7492 41.3971 30.5773C41.3971 31.4261 40.8502 31.9229 40.2021 31.9229Z" fill="#808285" />
  <path d="M42.8149 28.7963V32.3984H43.4023V30.4317C43.4023 29.6037 43.8277 29.3345 44.3948 29.3345H44.5569V28.7135C43.9897 28.7135 43.6251 28.9619 43.4226 29.3552V28.7756H42.8149V28.7963Z" fill="#808285" />
  <path d="M45.0635 27.5336V32.3984H45.6509V30.8044L47.0282 32.3984H47.8181L46.1572 30.5767L47.8181 28.7964H47.0079L45.6509 30.3904V27.5336H45.0635Z" fill="#808285" />
  <path d="M49.7419 28.7349C48.7089 28.7349 48 29.4594 48 30.598C48 31.7366 48.7494 32.4611 49.7419 32.4611C50.6129 32.4611 51.18 31.9436 51.3623 31.2811H50.7344C50.6129 31.6745 50.2685 31.9436 49.7419 31.9436C49.1343 31.9436 48.6482 31.5503 48.5874 30.805H51.4028C51.4231 30.6808 51.4231 30.5773 51.4231 30.4531C51.4231 29.4594 50.7546 28.7349 49.7419 28.7349ZM48.5874 30.3289C48.6482 29.625 49.1343 29.2317 49.7014 29.2317C50.309 29.2317 50.8154 29.625 50.8154 30.3289H48.5874Z" fill="#808285" />
  <path d="M53.6722 29.2732V28.7763H52.7608V27.8655H52.1734V28.7763H51.7075V29.2732H52.1734V31.4054C52.1734 32.13 52.5177 32.3991 53.1456 32.3991H53.6722V31.9023H53.2469C52.8823 31.9023 52.7608 31.7781 52.7608 31.4261V29.2732H53.6722Z" fill="#808285" />
  <path d="M54.8061 28.7963H54.2188V32.3983H54.8061V28.7963Z" fill="#808285" />
  <path d="M54.5238 27.3894C54.3009 27.3894 54.1187 27.5757 54.1187 27.8034C54.1187 28.0312 54.3009 28.2175 54.5238 28.2175C54.7263 28.2175 54.9086 28.0312 54.9086 27.8034C54.9086 27.555 54.7263 27.3894 54.5238 27.3894Z" fill="#808285" />
  <path d="M58.7955 32.3984V30.2661C58.7955 29.231 58.1676 28.7135 57.3574 28.7135C56.8713 28.7135 56.4662 28.9205 56.2231 29.2931V28.7756H55.6357V32.3777H56.2231V30.3903C56.2231 29.6244 56.6282 29.231 57.2359 29.231C57.8233 29.231 58.2284 29.6037 58.2284 30.3489V32.3777H58.7955V32.3984Z" fill="#808285" />
  <path d="M61.2675 33.6405C60.6801 33.6405 60.275 33.3506 60.1332 32.9159H59.5458C59.6673 33.6819 60.3155 34.158 61.2472 34.158C62.2802 34.158 62.9284 33.4541 62.9284 32.4605V28.7756H62.341V29.4381C62.1384 29.0447 61.6726 28.7135 61.0244 28.7135C60.0724 28.7135 59.3433 29.4381 59.3433 30.5559C59.3433 31.6738 60.0724 32.4398 61.0244 32.4398C61.6726 32.4398 62.1182 32.0878 62.341 31.6945V32.4605C62.3612 33.2471 61.8954 33.6405 61.2675 33.6405ZM61.1662 31.9222C60.518 31.9222 59.9712 31.4254 59.9712 30.5766C59.9712 29.7279 60.518 29.2517 61.1662 29.2517C61.8144 29.2517 62.3612 29.7486 62.3612 30.5766C62.3612 31.4254 61.8144 31.9222 61.1662 31.9222Z" fill="#808285" />
  <path d="M65.3384 27.8022V32.3773H65.9258V30.4727H66.7967C67.9107 30.4727 68.3563 29.8517 68.3563 29.1478C68.3563 28.4026 67.8702 27.8022 66.7967 27.8022H65.3384ZM67.7487 29.1478C67.7487 29.6654 67.4651 29.9759 66.7967 29.9759H65.9258V28.2991H66.7967C67.4651 28.2991 67.7487 28.6096 67.7487 29.1478Z" fill="#808285" />
  <path d="M69.4897 27.5336H68.9023V32.3984H69.4897V27.5336Z" fill="#808285" />
  <path d="M73.6832 32.399V28.797H73.0959V29.4594C72.8933 29.0868 72.4477 28.7349 71.7793 28.7349C70.8273 28.7349 70.0981 29.4594 70.0981 30.5773C70.0981 31.6952 70.8273 32.4611 71.759 32.4611C72.4072 32.4611 72.8731 32.1092 73.0756 31.7366V32.399H73.6832ZM71.9008 31.9229C71.2527 31.9229 70.7058 31.4261 70.7058 30.5773C70.7058 29.7285 71.2527 29.2524 71.9008 29.2524C72.549 29.2524 73.0959 29.7492 73.0959 30.5773C73.0959 31.4261 72.549 31.9229 71.9008 31.9229Z" fill="#808285" />
  <path d="M76.1542 29.2732V28.7763H75.2427V27.8655H74.6553V28.7763H74.1895V29.2732H74.6553V31.4054C74.6553 32.13 74.9996 32.3991 75.6275 32.3991H76.1542V31.9023H75.7288C75.3642 31.9023 75.2427 31.7781 75.2427 31.4261V29.2732H76.1542Z" fill="#808285" />
  <path d="M77.3912 32.3992V29.2939H78.1406V28.7971H77.3912V28.5487C77.3912 28.0726 77.5734 27.8862 78.1001 27.8862V27.3894C77.2089 27.3894 76.8038 27.7413 76.8038 28.5487V28.7971H76.3379V29.2939H76.8038V32.3992H77.3912Z" fill="#808285" />
  <path d="M78.4424 30.5766C78.4424 31.7152 79.1918 32.4398 80.2046 32.4398C81.2173 32.4398 82.0072 31.7152 82.0072 30.5766C82.0072 29.4381 81.2376 28.7135 80.2248 28.7135C79.2121 28.7342 78.4424 29.4381 78.4424 30.5766ZM81.3996 30.5766C81.3996 31.4875 80.7919 31.9222 80.1843 31.9222C79.5767 31.9222 79.0298 31.4875 79.0298 30.5766C79.0298 29.6658 79.5969 29.2517 80.2046 29.2517C80.8122 29.2517 81.3996 29.6658 81.3996 30.5766Z" fill="#808285" />
  <path d="M82.6147 28.7963V32.3984H83.2021V30.4317C83.2021 29.6037 83.6275 29.3345 84.1946 29.3345H84.3567V28.7135C83.7895 28.7135 83.4249 28.9619 83.2224 29.3552V28.7756H82.6147V28.7963Z" fill="#808285" />
  <path d="M84.8447 28.7963V32.3984H85.4321V30.411C85.4321 29.6451 85.8372 29.2517 86.4246 29.2517C87.012 29.2517 87.3968 29.6244 87.3968 30.3696V32.3984H87.9842V30.411C87.9842 29.6451 88.3893 29.2517 88.9767 29.2517C89.5641 29.2517 89.949 29.6244 89.949 30.3696V32.3984H90.5364V30.2661C90.5364 29.231 89.9085 28.7135 89.0983 28.7135C88.5514 28.7135 88.0653 29.0033 87.8425 29.5209C87.6196 28.9826 87.1335 28.7135 86.5461 28.7135C86.0803 28.7135 85.6549 28.9205 85.4321 29.2931V28.7756H84.8447V28.7963Z" fill="#808285" />
  <path d="M92.7842 27.5336V32.3984H93.8779V31.8809C94.0805 32.2121 94.4653 32.4398 94.992 32.4398C95.8832 32.4398 96.5718 31.6946 96.5718 30.556C96.5718 29.3967 95.8832 28.6722 94.992 28.6722C94.4856 28.6722 94.0805 28.9206 93.8779 29.2518V27.5336H92.7842ZM94.6679 29.6451C95.0932 29.6451 95.4578 29.9556 95.4578 30.556C95.4578 31.1563 95.0932 31.4669 94.6679 31.4669C94.2628 31.4669 93.8779 31.1356 93.8779 30.556C93.8779 29.9763 94.2425 29.6451 94.6679 29.6451Z" fill="#808285" />
  <path d="M98.6375 31.0114L97.8071 28.7135H96.5918L98.0502 32.2742L97.2197 34.1373H98.3945L100.663 28.7135H99.468L98.6375 31.0114Z" fill="#808285" />
  <path d="M107.812 28.4653H106.739V32.647H107.934V30.3284C107.934 29.7694 108.379 29.5417 108.805 29.521C108.947 29.521 109.088 29.5417 109.21 29.5831L109.23 28.4446C109.068 28.4031 108.906 28.3824 108.764 28.3824C108.44 28.3824 108.136 28.486 107.873 28.7551L107.812 28.4653Z" fill="#808285" />
  <path d="M113.931 32.6468V28.4651H112.736V28.8998C112.473 28.5479 112.088 28.403 111.683 28.403C110.366 28.403 109.718 29.3345 109.698 30.4938C109.698 31.6531 110.366 32.7089 111.662 32.7089C112.047 32.7089 112.452 32.5847 112.736 32.2327V32.6468H113.931ZM111.825 31.5289C111.217 31.5289 110.913 31.0113 110.913 30.5145C110.913 29.997 111.217 29.5208 111.825 29.5208C112.331 29.5208 112.756 29.9763 112.756 30.5352C112.736 31.0941 112.331 31.5289 111.825 31.5289Z" fill="#808285" />
  <path d="M114.679 27.2015V32.646H115.853V32.232C116.137 32.5839 116.542 32.7081 116.927 32.7081C118.223 32.7081 118.892 31.6524 118.892 30.4931C118.871 29.3545 118.244 28.4022 116.907 28.4022C116.502 28.4022 116.117 28.5264 115.833 28.8577V27.2015H114.679ZM116.785 29.5201C117.393 29.5201 117.697 29.9962 117.697 30.5138C117.697 31.0106 117.393 31.5282 116.785 31.5282C116.279 31.5282 115.853 31.0727 115.853 30.5345C115.853 29.9755 116.279 29.5201 116.785 29.5201Z" fill="#808285" />
  <path d="M132.443 32.646V27.2015H131.269V28.837C131.005 28.5264 130.621 28.3815 130.215 28.3815C128.899 28.3815 128.251 29.3131 128.23 30.4724C128.23 31.6317 128.899 32.6874 130.195 32.6874C130.58 32.6874 130.985 32.5632 131.269 32.2113V32.6253H132.443V32.646ZM130.317 31.5281C129.709 31.5281 129.405 31.0106 129.405 30.5138C129.405 29.9962 129.709 29.5201 130.317 29.5201C130.823 29.5201 131.248 29.9755 131.248 30.5345C131.248 31.0934 130.843 31.5281 130.317 31.5281Z" fill="#808285" />
  <path d="M134.813 31.6319C134.55 31.6319 134.246 31.5077 134.246 31.2386H133.051C133.071 32.2944 133.8 32.7498 134.772 32.7498C135.684 32.7498 136.514 32.3979 136.514 31.3421C136.514 30.3484 135.643 29.9758 134.793 29.9551C134.61 29.9551 134.307 29.9344 134.307 29.7274C134.307 29.4997 134.55 29.4376 134.732 29.4376C134.975 29.4376 135.299 29.4583 135.299 29.7895H136.433C136.433 28.8165 135.664 28.3611 134.793 28.3611C133.881 28.3611 133.112 28.7958 133.112 29.8102C133.112 30.7211 133.922 31.0316 134.691 31.0937C134.894 31.1144 135.34 31.073 135.34 31.3628C135.34 31.5284 135.117 31.6526 134.813 31.6319Z" fill="#808285" />
  <path d="M103.923 29.3558L104.328 30.5358V30.5565L104.814 31.8607L105.118 32.6473H106.577L104.369 27.1821H103.457L101.331 32.6473H102.728L103.012 31.8607L103.478 30.6186L103.518 30.4944L103.923 29.3558Z" fill="#808285" />
  <path d="M125.435 29.3558L125.84 30.5358L125.86 30.5565L126.346 31.8607L126.63 32.6473H128.088L125.901 27.1821H124.969L122.862 32.6473H124.24L124.523 31.8607L125.009 30.6186L125.05 30.4944L125.435 29.3558Z" fill="#808285" />
  <path d="M121.424 29.9754L122.072 31.6523L123.328 28.4642H122.032L121.424 29.9754Z" fill="#808285" />
  <path d="M120.391 28.4642H119.094L120.553 32.2319L119.094 35.9996H120.411L121.221 33.9087L121.869 32.2319L121.221 30.5551L120.391 28.4642Z" fill="#808285" />
</svg>
